<svg width="169" height="40" viewBox="0 0 169 40" fill="none" xmlns="http://www.w3.org/2000/svg">
<path d="M143.633 0C141.215 0 139.463 1.94856 137.858 4.16074C136.253 1.94856 134.503 0 132.086 0C128.902 0 126.313 2.78916 126.313 6.21748C126.311 7.03337 126.459 7.84162 126.748 8.59578C127.037 9.34993 127.461 10.0351 127.997 10.612C128.531 11.1914 129.166 11.651 129.866 11.9639C130.566 12.2769 131.317 12.437 132.074 12.435H132.088C134.5 12.4287 136.251 10.4802 137.857 8.268C139.463 10.4839 141.215 12.435 143.633 12.435C146.816 12.435 149.406 9.64579 149.406 6.21748C149.406 2.78916 146.816 0 143.633 0ZM132.084 9.94796H132.074C131.152 9.94796 130.285 9.55999 129.633 8.85617C129.151 8.33338 128.822 7.66847 128.69 6.94517C128.558 6.22188 128.627 5.47256 128.889 4.79157C129.151 4.11058 129.595 3.52837 130.164 3.11827C130.733 2.70818 131.401 2.48853 132.086 2.48699C133.622 2.48699 135.042 4.27514 136.411 6.21499C135.04 8.1536 133.619 9.94423 132.084 9.94796ZM143.633 9.94796C142.097 9.94796 140.676 8.15733 139.304 6.21499C140.674 4.27514 142.095 2.48699 143.633 2.48699C145.543 2.48699 147.097 4.16074 147.097 6.21748C147.097 8.27422 145.543 9.94796 143.633 9.94796Z" fill="#561EE3"/>
<path d="M11.08 39.5473C7.44504 39.5473 4.68947 38.5676 2.81396 36.6069C0.937758 34.6449 0 31.8268 0 28.1513C0 24.4635 1.01264 21.607 3.0393 19.5803C5.06527 17.5543 7.94861 16.541 11.69 16.541C14.2656 16.541 16.69 17.1037 18.964 18.2283L16.7106 23.8947C15.7818 23.49 14.9244 23.1665 14.1385 22.9246C13.3539 22.6828 12.5378 22.5619 11.69 22.5619C10.4479 22.5619 9.48612 23.0455 8.80462 24.0128C8.12448 24.9801 7.78511 26.3473 7.78511 28.1129C7.78511 31.6688 9.09934 33.4467 11.7285 33.4467C13.9764 33.4467 16.1336 32.7927 18.2001 31.4847V37.5852C16.2249 38.8933 13.8513 39.5473 11.08 39.5473Z" fill="#5E17EB"/>
<path d="M43.8382 27.9947C43.8382 31.6296 42.8606 34.4635 40.906 36.497C38.9508 38.5305 36.2152 39.5473 32.6977 39.5473C29.3246 39.5473 26.6411 38.5079 24.6461 36.4283C22.6524 34.3495 21.6562 31.5382 21.6562 27.9947C21.6562 24.3728 22.6332 21.5589 24.5884 19.5528C26.5429 17.5454 29.2854 16.541 32.8159 16.541C34.9992 16.541 36.9276 17.0054 38.6005 17.9343C40.2747 18.8617 41.5663 20.1917 42.4752 21.9244C43.3834 23.6577 43.8382 25.6809 43.8382 27.9947ZM29.4414 27.9947C29.4414 29.9039 29.6955 31.3583 30.2053 32.3585C30.7164 33.3588 31.5738 33.8589 32.7774 33.8589C33.9659 33.8589 34.8055 33.3588 35.2946 32.3585C35.7851 31.3583 36.0311 29.9039 36.0311 27.9947C36.0311 26.0986 35.7824 24.6669 35.2864 23.6996C34.7897 22.7323 33.9398 22.2486 32.7362 22.2486C31.5601 22.2486 30.7164 22.7295 30.2053 23.6913C29.6955 24.6517 29.4414 26.0862 29.4414 27.9947Z" fill="#5E17EB"/>
<path d="M62.234 39.1543V27.0329C62.234 25.5565 62.021 24.4429 61.5965 23.6913C61.1712 22.9384 60.4877 22.5619 59.5465 22.5619C58.2508 22.5619 57.3158 23.0785 56.7408 24.1118C56.165 25.145 55.8779 26.9168 55.8779 29.4264V39.1543H48.2109V16.934H53.9955L54.9573 19.6792H55.408C56.062 18.6336 56.9668 17.8491 58.123 17.3269C59.2806 16.8034 60.6113 16.541 62.1159 16.541C64.5739 16.541 66.4859 17.2541 67.8509 18.679C69.2174 20.1045 69.901 22.1112 69.901 24.6998V39.1543H62.234Z" fill="#5E17EB"/>
<path d="M82.021 39.5463C80.4382 39.5463 79.0546 39.0956 77.8716 38.1942C76.6879 37.2915 75.7728 35.9642 75.1263 34.2124C74.4791 32.4592 74.1562 30.4119 74.1562 28.0706C74.1562 24.4638 74.8817 21.6403 76.3327 19.6013C77.7836 17.5609 79.7773 16.54 82.3151 16.54C83.5572 16.54 84.6454 16.7887 85.5797 17.2847C86.5154 17.7814 87.3694 18.6188 88.1409 19.7964H88.2975C88.0481 18.0562 87.9238 16.3167 87.9238 14.5779V8.63672H95.6512V39.1533H89.8666L88.2178 36.3476H87.9238C86.6027 38.48 84.6351 39.5463 82.021 39.5463ZM85.1593 33.4842C86.3883 33.4842 87.2539 33.0988 87.7561 32.3273C88.2597 31.5564 88.5318 30.3666 88.5723 28.7576V28.1503C88.5723 26.1882 88.2906 24.7922 87.7287 23.9623C87.166 23.1324 86.2832 22.7175 85.0796 22.7175C84.0738 22.7175 83.292 23.1922 82.7355 24.141C82.1804 25.0883 81.9029 26.4376 81.9029 28.1888C81.9029 29.9145 82.1839 31.2294 82.7465 32.1321C83.3085 33.0335 84.113 33.4842 85.1593 33.4842Z" fill="#5E17EB"/>
<path d="M116.773 39.1539L115.814 36.3895H115.361C114.721 37.4083 113.829 38.1894 112.684 38.7335C111.541 39.2755 110.197 39.5469 108.653 39.5469C106.209 39.5469 104.306 38.8379 102.945 37.42C101.586 36.0006 100.906 33.9959 100.906 31.4073V16.9336H108.576V29.0715C108.576 30.5245 108.782 31.6237 109.194 32.3691C109.606 33.1131 110.282 33.4848 111.222 33.4848C112.543 33.4848 113.485 32.9654 114.047 31.9267C114.609 30.888 114.891 29.1334 114.891 26.6615V16.9336H122.561V39.1539H116.773Z" fill="#5E17EB"/>
<path d="M135.526 39.154H127.859V15.8242H135.526V39.154Z" fill="#5E17EB"/>
<path d="M148.511 39.154H140.844V15.8242H148.511V39.154Z" fill="#5E17EB"/>
<path d="M164.714 33.4843C165.747 33.4843 166.982 33.2301 168.421 32.7203V38.3097C167.388 38.7549 166.403 39.0723 165.467 39.2606C164.533 39.4509 163.437 39.5463 162.183 39.5463C159.607 39.5463 157.75 38.9157 156.613 37.653C155.475 36.391 154.906 34.4529 154.906 31.8382V22.6791H152.219V19.5601L155.632 17.1474L157.613 12.4785H162.634V16.933H168.086V22.6791H162.634V31.3271C162.634 32.7657 163.327 33.4843 164.714 33.4843Z" fill="#5E17EB"/>
</svg>
