<svg width="164" height="45" viewBox="0 0 164 45" fill="none" xmlns="http://www.w3.org/2000/svg">
<path d="M40.8153 22.4703C40.8153 29.3824 38.3383 35.0774 34.1038 39.0138C34.055 39.0565 34.0184 39.1013 33.9697 39.1441C30.8202 42.02 26.7136 43.9313 21.9325 44.662L21.6094 44.3322L28.7354 3.26863L29.0036 2.51758C36.2983 6.08762 40.8153 13.2134 40.8153 22.4703Z" fill="#EE312E"/>
<path d="M29.0059 2.51953L0 24.0578V44.2629V44.9997H17.4666C19.0129 44.9997 20.5023 44.8817 21.9348 44.6619C21.9348 44.6639 29.0059 2.51953 29.0059 2.51953Z" fill="#D3222A"/>
<path d="M29.0059 2.51979L28.8048 2.81899L0.150364 24.1985L0 24.0581C0 24.0581 0 24.052 0 24.0459V0H17.3995C18.6004 0 19.7647 0.0692026 20.8924 0.205572H20.9351C23.7839 0.543444 26.4071 1.28635 28.754 2.3997C28.8475 2.44448 29.0059 2.51979 29.0059 2.51979Z" fill="#AF292E"/>
<path d="M77.7154 18.2988H73.8984V35.5425H77.7154V18.2988Z" fill="#1E1E1E"/>
<path d="M77.7154 11.8398H73.8984V16.1345H77.7154V11.8398Z" fill="#1E1E1E"/>
<path d="M85.1607 11.459H81.3438V35.5435H85.1607V11.459Z" fill="#1E1E1E"/>
<path d="M93.2389 18.2988H89.4219V35.5425H93.2389V18.2988Z" fill="#1E1E1E"/>
<path d="M93.2389 11.8398H89.4219V16.1345H93.2389V11.8398Z" fill="#1E1E1E"/>
<path d="M109.728 20.3808C109.181 19.701 108.54 19.1555 107.804 18.7443C106.813 18.1927 105.67 17.918 104.378 17.918C102.813 17.918 101.415 18.2843 100.186 19.015C98.9553 19.7478 97.9812 20.7492 97.2598 22.0213C96.5404 23.2934 96.1797 24.7466 96.1797 26.381C96.1797 27.9931 96.5384 29.4463 97.2598 30.7408C97.9792 32.0333 98.9655 33.053 100.217 33.7939C101.468 34.5368 102.876 34.9072 104.441 34.9072C105.713 34.9072 106.856 34.6324 107.867 34.0788C108.513 33.7267 109.069 33.2708 109.54 32.711V34.7138C109.54 35.6033 109.347 36.3686 108.961 37.0036C108.576 37.6407 108.048 38.1231 107.382 38.4508C106.714 38.7785 105.943 38.9433 105.067 38.9433C103.96 38.9433 103.027 38.6889 102.267 38.1801C101.505 37.6712 100.989 37.0138 100.718 36.2078L97.1823 37.6081C97.5369 38.6055 98.0994 39.4705 98.8718 40.2012C99.6421 40.9339 100.561 41.5059 101.625 41.9191C102.689 42.3322 103.846 42.5398 105.098 42.5398C106.703 42.5398 108.128 42.1999 109.369 41.5222C110.61 40.8423 111.584 39.9163 112.295 38.7378C113.005 37.5593 113.359 36.218 113.359 34.7138V18.2986H109.73V20.3808H109.728ZM108.947 28.9273C108.55 29.6702 108.004 30.2523 107.305 30.6777C106.606 31.1011 105.807 31.3148 104.91 31.3148C103.991 31.3148 103.174 31.097 102.454 30.6614C101.735 30.2279 101.173 29.6437 100.765 28.911C100.357 28.1783 100.156 27.3478 100.156 26.4136C100.156 25.4794 100.359 24.6428 100.765 23.8999C101.173 23.157 101.735 22.5688 102.454 22.1332C103.174 21.6997 103.993 21.4799 104.91 21.4799C105.786 21.4799 106.573 21.6977 107.272 22.1332C107.971 22.5688 108.523 23.157 108.931 23.8999C109.338 24.6428 109.54 25.4794 109.54 26.4136C109.54 27.3458 109.342 28.1844 108.947 28.9273Z" fill="#1E1E1E"/>
<path d="M130.107 20.3992C129.408 19.6135 128.552 19.0049 127.541 18.5694C126.528 18.1358 125.377 17.916 124.083 17.916C122.497 17.916 121.069 18.3027 119.795 19.0762C118.523 19.8517 117.517 20.9121 116.775 22.2575C116.035 23.6049 115.664 25.1375 115.664 26.8554C115.664 28.5529 116.029 30.0855 116.758 31.4533C117.488 32.821 118.511 33.9079 119.825 34.7139C121.14 35.5199 122.652 35.9229 124.362 35.9229C125.53 35.9229 126.599 35.7418 127.569 35.3815C128.54 35.0213 129.379 34.5185 130.088 33.8713C130.797 33.224 131.319 32.4974 131.653 31.6914L128.525 30.1323C128.128 30.8325 127.586 31.4003 126.899 31.8339C126.21 32.2694 125.377 32.4872 124.396 32.4872C123.437 32.4872 122.581 32.2593 121.831 31.8033C121.079 31.3474 120.506 30.6961 120.111 29.8474C119.856 29.2998 119.701 28.6953 119.644 28.0338H132.063C132.147 27.7794 132.2 27.4985 132.22 27.1912C132.24 26.8839 132.251 26.5928 132.251 26.316C132.251 25.1701 132.067 24.0934 131.702 23.0859C131.338 22.0804 130.806 21.1848 130.107 20.3992ZM120.078 23.7881C120.453 22.9291 120.991 22.2717 121.69 21.8158C122.389 21.3599 123.186 21.1319 124.085 21.1319C125.002 21.1319 125.794 21.366 126.463 21.8321C127.131 22.2982 127.62 22.9251 127.934 23.7087C128.095 24.1158 128.187 24.5493 128.209 25.0134H119.724C119.799 24.5717 119.915 24.1626 120.078 23.7881Z" fill="#1E1E1E"/>
<path d="M146.944 18.7443C145.974 18.1927 144.863 17.918 143.612 17.918C142.401 17.918 141.344 18.1948 140.437 18.7443C139.756 19.1575 139.218 19.7152 138.825 20.4174V18.2986H135.195V35.5422H139.012V25.3918C139.012 24.5858 139.163 23.8918 139.467 23.3076C139.768 22.7235 140.196 22.2737 140.751 21.9561C141.303 21.6386 141.935 21.4778 142.644 21.4778C143.333 21.4778 143.948 21.6366 144.49 21.9561C145.032 22.2737 145.454 22.7255 145.758 23.3076C146.059 23.8918 146.212 24.5858 146.212 25.3918V35.5422H150.029V24.4067C150.029 23.1346 149.758 22.0111 149.216 21.0341C148.67 20.0612 147.916 19.2959 146.944 18.7443Z" fill="#1E1E1E"/>
<path d="M162.403 32.2668C162.205 32.2872 162.022 32.2994 161.855 32.2994C161.209 32.2994 160.671 32.1935 160.243 31.9819C159.815 31.7702 159.503 31.4628 159.303 31.0598C159.105 30.6568 159.006 30.1582 159.006 29.5638V21.7684H162.886V18.2981H159.008V14.3535H155.191V15.6887C155.191 16.5151 154.967 17.1583 154.518 17.6142C154.07 18.0701 153.438 18.2981 152.625 18.2981H152.25V21.7663H155.191V29.7511C155.191 31.6603 155.702 33.1339 156.723 34.1739C157.744 35.214 159.185 35.733 161.041 35.733C161.333 35.733 161.661 35.7127 162.028 35.6699C162.393 35.6272 162.711 35.5845 162.982 35.5417V32.2017C162.794 32.2241 162.6 32.2465 162.403 32.2668Z" fill="#1E1E1E"/>
<path d="M64.7805 13.3358C62.977 12.3384 60.8535 11.8418 58.4141 11.8418H49.8672V35.5457H58.4141C60.8555 35.5457 62.977 35.0409 64.7805 34.0334C66.5841 33.0259 67.9821 31.6317 68.9725 29.8487C69.9629 28.0678 70.4581 26.01 70.4581 23.6754C70.4581 21.3429 69.9629 19.2851 68.9725 17.5022C67.9821 15.7212 66.5861 14.3331 64.7805 13.3358ZM65.4693 28.0515C64.8131 29.2931 63.89 30.2517 62.6998 30.9315C61.5117 31.6114 60.1036 31.9492 58.4753 31.9492H53.8391V15.4363H58.4753C60.1015 15.4363 61.5097 15.7701 62.6998 16.4377C63.8879 17.1053 64.8111 18.0558 65.4693 19.2851C66.1255 20.5165 66.4557 21.9678 66.4557 23.6449C66.4557 25.3404 66.1276 26.8099 65.4693 28.0515Z" fill="#1E1E1E"/>
</svg>
