<svg width="188" height="61" viewBox="0 0 188 61" fill="none" xmlns="http://www.w3.org/2000/svg">
<path d="M155.85 5.41049C156.16 4.10056 157.47 3.30771 158.78 3.61795C160.09 3.9282 160.883 5.23813 160.572 6.54807C160.262 7.858 153.195 27.3002 153.195 27.3002C153.195 27.3002 155.539 6.72043 155.85 5.41049Z" fill="white"/>
<path d="M143.265 9.92358C142.851 8.64812 143.575 7.26924 144.851 6.89005C146.126 6.47639 147.505 7.2003 147.884 8.47576C148.298 9.75122 151.366 27.78 151.366 27.78C151.366 27.78 143.644 11.199 143.265 9.92358Z" fill="white"/>
<path d="M134.478 20.6442C133.409 19.8513 133.168 18.3345 133.96 17.2314C134.753 16.1628 136.27 15.9215 137.339 16.7144C138.407 17.5072 149.611 28.7451 149.611 28.7451C149.611 28.7451 135.546 21.437 134.478 20.6442Z" fill="white"/>
<path d="M134.89 33.4043C133.545 33.4043 132.477 32.3012 132.477 30.9568C132.477 29.6124 133.58 28.5093 134.924 28.5438C136.268 28.5438 149.471 30.9913 149.471 30.9913C149.471 30.9913 136.234 33.4043 134.89 33.4043Z" fill="white"/>
<path d="M143.128 42.9831C142.163 43.9138 140.612 43.8449 139.715 42.8797C138.785 41.88 138.854 40.3632 139.819 39.4325C140.784 38.5017 150.333 32.8828 150.333 32.8828C150.333 32.8828 144.093 42.0868 143.128 42.9831Z" fill="white"/>
<path d="M154.709 42.9175C154.743 44.1929 153.709 45.2616 152.434 45.296C151.158 45.3305 150.09 44.2964 150.055 43.0209C150.021 41.7454 152.192 33.6445 152.192 33.6445C152.192 33.6445 154.709 41.642 154.709 42.9175Z" fill="white"/>
<path d="M181.5 16.0302C182.741 15.4787 184.189 16.0302 184.74 17.2712C185.292 18.5122 184.706 19.96 183.465 20.4771C182.224 21.0286 155.922 29.9913 155.922 29.9913C155.922 29.9913 180.259 16.5818 181.5 16.0302Z" fill="white"/>
<path d="M169.358 7.92581C170.289 6.85718 171.84 6.68482 172.874 7.58109C173.874 8.44289 173.943 10.0286 173.046 11.0972C172.116 12.1659 154.914 28.4021 154.914 28.4021C154.914 28.4021 168.427 8.99444 169.358 7.92581Z" fill="white"/>
<path d="M7.65725 50.4337H5.24421V37.748L3.96875 37.2654V35.6797H7.69172L7.65725 50.4337Z" fill="white"/>
<path d="M33.4365 50.4684H30.9545V41.5747C30.9545 40.1269 30.7132 39.0927 30.2306 38.4377C29.748 37.7828 28.9206 37.4725 27.7486 37.438C26.7834 37.438 25.9216 37.7138 25.2321 38.2998C24.6461 38.7824 24.2325 39.3685 23.9912 40.0924V50.3995H21.5092V41.5057C21.5092 40.0579 21.2679 39.0238 20.7853 38.3688C20.3027 37.7138 19.4753 37.4036 18.3033 37.3691C17.3381 37.3691 16.4763 37.6449 15.7868 38.2309C15.2008 38.7135 14.7872 39.2995 14.5458 40.0234V50.365H12.1328L12.1673 35.611H13.3738L14.1667 37.1278C15.3042 35.9213 16.6831 35.3008 18.3378 35.3008C19.3719 35.3008 20.3027 35.5076 21.1989 35.9213C22.0952 36.3349 22.7502 36.8865 23.1983 37.5759C24.4048 36.0592 25.9216 35.3353 27.7831 35.3353C31.575 35.3353 33.4709 37.2657 33.4709 41.1265L33.4365 50.4684Z" fill="white"/>
<path d="M51.2258 42.9862C51.2258 45.2613 50.6742 47.0883 49.6056 48.4327C48.3991 49.9495 46.641 50.7079 44.3314 50.7079C42.8836 50.7079 41.4702 50.2942 40.0224 49.4324V56.4647H37.6094L37.6438 35.7126H39.1261L39.7122 37.2638C40.0914 36.8157 40.6429 36.402 41.3668 36.0573C42.2631 35.6092 43.2283 35.4023 44.2625 35.4023C46.5031 35.4023 48.2267 36.0573 49.4332 37.3328C50.6398 38.6427 51.2258 40.5387 51.2258 42.9862ZM48.7438 42.9862C48.7438 39.2977 47.227 37.4362 44.1935 37.4362C43.2283 37.4362 42.2976 37.7464 41.4702 38.3669C40.7808 38.884 40.2982 39.4011 40.0569 40.0216V46.847C41.5047 48.088 42.9181 48.7085 44.2969 48.7085C47.2615 48.743 48.7438 46.8126 48.7438 42.9862Z" fill="white"/>
<path d="M63.6373 35.9891L63.0168 38.0229C62.3274 37.7126 61.6379 37.5748 60.914 37.5748C60.0178 37.5748 59.1904 37.8505 58.4665 38.4021C57.846 38.8847 57.4324 39.4362 57.2255 40.0912V50.5017H54.8125L54.847 35.7477H56.1224L56.5706 37.3335C56.9498 36.8853 57.5013 36.4717 58.2597 36.0925C59.156 35.6443 60.0178 35.4375 60.9485 35.4375C61.8103 35.472 62.741 35.6443 63.6373 35.9891Z" fill="white"/>
<path d="M78.496 43.091C78.496 45.504 77.9445 47.3655 76.8758 48.6754C75.7038 50.0888 73.9802 50.8127 71.6706 50.8127C69.3954 50.8127 67.6718 50.0888 66.4998 48.6409C65.4311 47.331 64.9141 45.4695 64.9141 43.0565C64.9141 40.7813 65.4311 38.9888 66.4653 37.7133C67.6373 36.1966 69.3609 35.4727 71.705 35.4727C73.9457 35.4727 75.6693 36.231 76.8758 37.7133C77.9445 39.0577 78.496 40.8503 78.496 43.091ZM76.014 43.091C76.014 39.3335 74.5662 37.472 71.705 37.472C68.8439 37.472 67.396 39.3335 67.396 43.091C67.396 45.0214 67.7063 46.4347 68.3613 47.331C69.0507 48.3307 70.1538 48.8478 71.705 48.8478C73.2907 48.8478 74.4283 48.3652 75.0833 47.331C75.6693 46.4003 75.9796 44.9869 76.014 43.091Z" fill="white"/>
<path d="M94.1412 35.8196L89.0394 50.5391H85.5922L80.5938 35.7852H83.1791L87.3502 48.6087L91.5903 35.7852L94.1412 35.8196Z" fill="white"/>
<path d="M100.45 50.5704H98.002L98.0365 37.8503L96.7266 37.3676V35.8164H100.45V50.5704Z" fill="white"/>
<path d="M117.377 50.572H114.895V41.6783C114.895 38.9205 113.758 37.5417 111.483 37.5417C110.448 37.5417 109.552 37.8174 108.725 38.4035C108.001 38.955 107.518 39.541 107.311 40.196V50.5376H104.898L104.933 35.7836H106.45L106.967 37.4038C107.38 36.8867 108.001 36.473 108.759 36.1283C109.656 35.7146 110.586 35.5078 111.517 35.5078C115.447 35.5078 117.412 37.4382 117.412 41.2991L117.377 50.572Z" fill="white"/>
<path d="M134.752 35.8518L134.717 50.1922C134.717 52.226 134.131 53.8117 132.925 55.0182C131.718 56.1903 130.064 56.7763 127.892 56.7763C126.168 56.7763 124.548 56.1903 123.066 55.0182L124.376 53.1568C125.582 54.0875 126.72 54.5701 127.858 54.5701C130.788 54.5701 132.27 53.0878 132.27 50.0543V48.8478C131.029 49.8819 129.581 50.3645 127.961 50.3645C125.996 50.3645 124.41 49.6406 123.135 48.2273C121.894 46.8139 121.273 45.0214 121.273 42.8497C121.273 40.5745 121.859 38.7475 123.066 37.4376C124.238 36.1276 125.962 35.4727 128.237 35.4727C129.822 35.4727 131.236 35.9208 132.511 36.8171L133.063 35.7829L134.752 35.8518ZM132.304 46.4347V39.4714C131.96 39.0922 131.443 38.7475 130.788 38.4028C129.857 37.9202 128.995 37.6789 128.133 37.6789C125.203 37.6789 123.721 39.4025 123.721 42.9186C123.721 44.4698 124.066 45.7453 124.755 46.676C125.513 47.7102 126.617 48.2273 128.099 48.2617C129.616 48.2617 131.029 47.6412 132.304 46.4347Z" fill="white"/>
</svg>
