<svg width="195" height="48" viewBox="0 0 195 48" fill="none" xmlns="http://www.w3.org/2000/svg">
<path d="M72.9073 13.2695H75.4431V27.6912C75.4431 28.268 75.4431 28.5564 75.7248 28.8449C76.0066 29.1333 76.2883 29.1333 76.8518 29.1333C77.1336 29.1333 77.1336 29.1333 77.4154 29.1333C77.6971 29.1333 77.9789 29.1333 77.9789 28.8449L78.2606 30.8639C77.9789 31.1523 77.4154 31.1523 76.8518 31.4408C76.2883 31.4408 75.7248 31.7292 75.4431 31.7292C74.5978 31.7292 73.7525 31.4408 73.189 30.8639C72.6255 30.287 72.3438 29.7102 72.3438 28.5564V13.2695H72.9073Z" fill="white"/>
<path d="M85.8637 31.4398C84.7367 31.4398 83.8914 31.1513 83.0461 30.8629C82.2009 30.5745 81.6374 29.9976 81.0739 29.4207C80.5103 28.8439 79.9468 27.9786 79.6651 27.4017C79.3833 26.5364 79.1016 25.6711 79.1016 24.8058C79.1016 23.9405 79.3833 23.0752 79.6651 22.2099C79.9468 21.3446 80.5103 20.7678 81.0739 20.1909C81.6374 19.614 82.2009 19.0372 83.0461 18.7487C83.8914 18.4603 84.7367 18.1719 85.8637 18.1719C86.709 18.1719 87.836 18.4603 88.6813 18.7487C89.2448 19.0372 90.0901 19.614 90.6536 20.1909C91.2171 20.7678 91.7806 21.6331 92.0624 22.2099C92.3441 23.0752 92.6259 23.9405 92.6259 24.8058C92.6259 25.6711 92.3441 26.5364 92.0624 27.4017C91.7806 28.267 91.2171 28.8439 90.6536 29.4207C90.0901 29.9976 89.5265 30.5745 88.6813 30.8629C87.836 31.4398 86.709 31.4398 85.8637 31.4398ZM82.2009 24.8058C82.2009 25.3827 82.2009 25.9595 82.4826 26.5364C82.7644 27.1133 83.0462 27.4017 83.3279 27.9786C83.6097 28.267 84.1732 28.5554 84.4549 28.8439C85.0184 29.1323 85.3002 29.1323 85.8637 29.1323C86.4272 29.1323 86.9907 29.1323 87.2725 28.8439C87.836 28.5554 88.1178 28.267 88.3995 27.9786C88.6813 27.6901 88.963 27.1133 89.2448 26.5364C89.5265 25.9595 89.5265 25.3827 89.5265 24.8058C89.5265 24.229 89.5265 23.6521 89.2448 23.0752C88.963 22.4984 88.6813 22.2099 88.3995 21.6331C88.1178 21.3446 87.5542 21.0562 87.2725 20.7678C86.709 20.4793 86.4272 20.4793 85.8637 20.4793C85.3002 20.4793 84.7367 20.4793 84.4549 20.7678C83.8914 21.0562 83.6097 21.3446 83.3279 21.6331C83.0462 21.9215 82.4826 22.4984 82.4826 23.0752C82.2009 23.6521 82.2009 24.229 82.2009 24.8058Z" fill="white"/>
<path d="M100.512 31.4398C99.3851 31.4398 98.5399 31.1513 97.6946 30.8629C96.8493 30.5745 96.2858 29.9976 95.7223 29.4207C95.1588 28.8439 94.5953 27.9786 94.3135 27.4017C94.0318 26.5364 93.75 25.6711 93.75 24.8058C93.75 23.9405 94.0318 23.0752 94.3135 22.2099C94.5953 21.3446 95.1588 20.7678 95.7223 20.1909C96.2858 19.614 96.8493 19.0372 97.6946 18.7487C98.5399 18.4603 99.3851 18.1719 100.512 18.1719C101.357 18.1719 102.484 18.4603 103.33 18.7487C104.175 19.0372 104.739 19.614 105.302 20.1909C105.866 20.7678 106.429 21.6331 106.711 22.2099C106.711 23.0752 106.993 23.9405 106.993 24.8058C106.993 25.6711 106.711 26.5364 106.429 27.4017C106.147 28.267 105.584 28.8439 105.02 29.4207C104.457 29.9976 103.893 30.5745 103.048 30.8629C102.203 31.4398 101.357 31.4398 100.512 31.4398ZM96.5676 24.8058C96.5676 25.3827 96.5676 25.9595 96.8493 26.5364C97.1311 27.1133 97.4128 27.4017 97.6946 27.9786C97.9764 28.267 98.5399 28.5554 98.8216 28.8439C99.3851 29.1323 99.6669 29.1323 100.23 29.1323C100.794 29.1323 101.357 29.1323 101.639 28.8439C102.203 28.5554 102.484 28.267 102.766 27.9786C103.048 27.6901 103.33 27.1133 103.611 26.5364C104.175 25.9595 104.175 25.3827 104.175 24.8058C104.175 24.229 104.175 23.6521 103.893 23.0752C103.611 22.4984 103.33 22.2099 103.048 21.6331C102.766 21.3446 102.203 21.0562 101.921 20.7678C101.357 20.4793 101.076 20.4793 100.512 20.4793C99.9486 20.4793 99.3851 20.4793 99.1034 20.7678C98.8216 21.0562 98.2581 21.3446 97.9763 21.6331C97.6946 21.9215 97.4128 22.4984 97.1311 23.0752C96.8493 23.6521 96.5676 24.229 96.5676 24.8058Z" fill="white"/>
<path d="M116.576 31.4443C115.449 31.4443 114.603 31.1559 113.758 30.579C112.913 30.0021 112.349 29.4253 111.786 28.56V36.3477H109.25V18.4648H111.504V20.7723C112.068 19.907 112.631 19.3301 113.476 19.0417C114.322 18.4648 115.167 18.4648 116.012 18.4648C116.857 18.4648 117.703 18.7533 118.548 19.0417C119.393 19.3301 119.957 19.907 120.52 20.4839C121.084 21.0607 121.366 21.926 121.647 22.5029C121.929 23.0798 122.211 24.2335 122.211 25.0988C122.211 25.9641 122.211 26.8294 121.929 27.6947C121.647 28.56 121.084 28.8484 120.52 29.7137C119.957 30.2906 119.393 30.8674 118.83 31.1559C118.266 31.4443 117.421 31.4443 116.576 31.4443ZM115.73 29.1368C116.294 29.1368 116.857 29.1368 117.139 28.8484C117.703 28.56 117.984 28.2715 118.266 27.9831C118.548 27.6947 118.83 27.1178 119.111 26.5409C119.393 25.9641 119.393 25.3872 119.393 24.8104C119.393 24.2335 119.393 23.6566 119.111 23.0798C118.83 22.5029 118.548 22.2145 118.266 21.6376C117.984 21.0607 117.421 21.0607 117.139 20.7723C116.857 20.4839 116.012 20.4839 115.449 20.4839C115.167 20.4839 114.885 20.4839 114.322 20.7723C113.758 21.0607 113.476 21.0607 113.195 21.3492C112.913 21.6376 112.631 21.926 112.349 22.2145C112.068 22.5029 112.068 22.7913 111.786 23.0798V26.5409C112.068 26.8294 112.068 27.4062 112.349 27.6947C112.631 27.9831 112.913 28.2715 113.195 28.56C113.476 28.8484 113.758 29.1368 114.322 29.1368C114.885 29.1368 115.449 29.1368 115.73 29.1368Z" fill="white"/>
<path d="M129.26 31.4398C128.133 31.4398 127.288 31.1513 126.161 30.8629C125.034 30.5745 124.189 29.9976 123.625 29.4207L124.752 27.6901C125.597 28.267 126.161 28.5554 127.006 28.8439C127.851 29.1323 128.415 29.4207 129.26 29.4207C130.105 29.4207 130.669 29.1323 131.232 28.8439C131.796 28.5554 131.796 27.9786 131.796 27.4017C131.796 26.8248 131.514 26.5364 130.951 26.248C130.387 26.248 129.542 25.9595 128.415 25.6711C127.57 25.3827 127.006 25.3827 126.443 25.0942C125.879 24.8058 125.316 24.8058 125.034 24.5174C124.752 24.229 124.47 23.9405 124.189 23.6521C123.907 23.3637 123.907 22.7868 123.907 22.4984C123.907 21.9215 123.907 21.3446 124.189 20.7678C124.47 20.1909 124.752 19.9025 125.316 19.3256C125.879 19.0372 126.161 18.7487 127.006 18.4603C127.57 18.1719 128.133 18.1719 128.978 18.1719C129.824 18.1719 130.951 18.4603 131.514 18.7487C132.359 19.0372 133.205 19.614 133.768 19.9025L132.641 21.6331C131.514 20.7678 130.105 20.1909 128.978 20.1909C128.415 20.1909 127.851 20.4793 127.288 20.7678C126.724 20.7678 126.724 21.3446 126.724 21.9215C126.724 22.2099 126.724 22.4984 127.006 22.4984C127.006 22.7868 127.288 22.7868 127.57 23.0752C127.851 23.0752 128.133 23.3637 128.415 23.3637C128.697 23.3637 129.26 23.6521 129.824 23.6521C130.669 23.9405 131.514 23.9405 132.078 24.229C132.641 24.5174 133.205 24.8058 133.486 25.0942C133.768 25.3827 134.332 25.6711 134.332 26.248C134.614 26.5364 134.613 27.1133 134.613 27.6901C134.613 28.8439 134.05 29.9976 133.205 30.5745C132.078 31.1513 130.669 31.4398 129.26 31.4398Z" fill="white"/>
<path d="M143.631 30.5735C143.35 30.8619 142.786 30.8619 142.223 31.1503C141.659 31.4388 141.096 31.4388 140.25 31.4388C139.969 31.4388 139.405 31.4388 139.123 31.1503C138.842 31.1503 138.56 30.8619 138.278 30.5735C137.996 30.285 137.714 29.9966 137.714 29.7082C137.433 29.4197 137.433 28.8429 137.433 28.266V20.4783H135.742V18.4593H137.433V14.1328H139.969V18.4593H142.786V20.4783H139.969V27.6891C139.969 28.266 140.25 28.5544 140.532 28.5544C140.814 28.8429 141.096 28.8429 141.377 28.8429C141.659 28.8429 142.223 28.8429 142.504 28.5544C142.786 28.5544 143.068 28.266 143.35 28.266L143.631 30.5735Z" fill="white"/>
<path d="M149.547 31.4443C148.138 31.4443 147.293 30.8674 146.447 30.0021C145.884 29.1368 145.32 27.6947 145.32 25.9641V18.4648H147.856V25.9641C147.856 28.2715 148.701 29.4253 150.392 29.4253C151.237 29.4253 151.801 29.1368 152.646 28.8484C153.209 28.2715 153.773 27.6947 154.337 26.8294V18.4648H156.872V28.2715C156.872 28.56 156.872 28.8484 157.154 28.8484C157.154 28.8484 157.436 29.1368 157.718 29.1368V31.4443C157.436 31.4443 157.154 31.4443 157.154 31.4443C156.872 31.4443 156.872 31.4443 156.591 31.4443C156.027 31.4443 155.745 31.4443 155.464 31.1559C155.182 30.8674 154.9 30.579 154.9 30.0021V28.8484C154.337 29.7137 153.491 30.579 152.646 30.8674C151.519 31.4443 150.392 31.4443 149.547 31.4443Z" fill="white"/>
<path d="M165.605 31.4408C164.76 31.4408 163.914 31.1523 163.351 30.8639C162.506 30.5755 161.942 29.9986 161.379 29.4217C160.533 28.8449 160.252 28.268 159.97 27.4027C159.688 26.5374 159.406 25.6721 159.406 24.8068C159.406 23.9415 159.406 23.0762 159.97 22.2109C160.252 21.3456 160.533 20.7688 161.097 20.1919C161.66 19.615 162.224 19.0382 162.787 18.7497C163.351 18.4613 164.196 18.1729 165.041 18.1729C166.168 18.1729 167.014 18.4613 167.859 19.0382C168.704 19.615 169.268 20.1919 169.549 21.0572V13.2695H172.085V28.268C172.085 28.5564 172.085 28.8449 172.367 28.8449C172.367 28.8449 172.649 29.1333 172.931 29.1333V31.4408C172.649 31.4408 172.367 31.4408 172.367 31.4408C172.085 31.4408 172.085 31.4408 171.804 31.4408C171.24 31.4408 170.958 31.4408 170.395 31.1523C170.113 30.8639 169.831 30.5755 169.831 29.9986V29.1333C169.268 29.9986 168.704 30.5755 167.859 31.1523C167.295 31.4408 166.45 31.4408 165.605 31.4408ZM166.168 29.1333C166.45 29.1333 167.014 29.1333 167.295 28.8449C167.577 28.8449 168.141 28.5564 168.422 28.268C168.704 27.9796 168.986 27.6912 169.268 27.4027C169.549 27.1143 169.549 26.8259 169.831 26.249V23.3647C169.549 23.0762 169.549 22.4994 169.268 22.2109C168.986 21.9225 168.704 21.6341 168.422 21.3456C168.141 21.0572 167.859 20.7688 167.295 20.7688C167.014 20.7688 166.45 20.4803 166.168 20.4803C165.605 20.4803 165.041 20.4803 164.76 20.7688C164.478 21.0572 163.633 21.3456 163.351 21.9225C163.069 22.2109 162.787 22.7878 162.506 23.3647C162.224 23.9415 162.224 24.5184 162.224 25.0953C162.224 25.6721 162.224 26.249 162.506 26.8259C162.787 27.4027 163.069 27.6912 163.351 28.268C163.633 28.5564 164.196 28.8449 164.478 29.1333C165.041 29.1333 165.605 29.1333 166.168 29.1333Z" fill="white"/>
<path d="M175.75 16.1539V13.2695H178.286V16.1539H175.75ZM175.75 31.4408V18.4613H178.286V31.4408H175.75Z" fill="white"/>
<path d="M187.301 31.4398C186.174 31.4398 185.329 31.1513 184.484 30.8629C183.638 30.5745 183.075 29.9976 182.511 29.4207C181.948 28.8439 181.384 27.9786 181.103 27.4017C180.821 26.5364 180.539 25.6711 180.539 24.8058C180.539 23.9405 180.821 23.0752 181.103 22.2099C181.384 21.3446 181.948 20.7678 182.511 20.1909C183.075 19.614 183.638 19.0372 184.484 18.7487C185.329 18.4603 186.174 18.1719 187.301 18.1719C188.146 18.1719 189.274 18.4603 190.119 18.7487C190.682 19.0372 191.528 19.614 192.091 20.1909C192.655 20.7678 193.218 21.6331 193.5 22.2099C193.782 23.0752 194.063 23.9405 194.063 24.8058C194.063 25.6711 193.782 26.5364 193.5 27.4017C193.218 28.267 192.655 28.8439 192.091 29.4207C191.528 29.9976 190.964 30.5745 190.119 30.8629C189.274 31.4398 188.428 31.4398 187.301 31.4398ZM183.638 24.8058C183.638 25.3827 183.638 25.9595 183.92 26.5364C184.202 27.1133 184.484 27.4017 184.765 27.9786C185.047 28.5554 185.329 28.5554 185.892 28.8439C186.456 29.1323 186.738 29.1323 187.301 29.1323C187.865 29.1323 188.428 29.1323 188.71 28.8439C189.274 28.5554 189.555 28.267 189.837 27.9786C190.119 27.6901 190.401 27.1133 190.682 26.5364C190.964 25.9595 190.964 25.3827 190.964 24.8058C190.964 24.229 190.964 23.6521 190.682 23.0752C190.401 22.4984 190.119 22.2099 189.837 21.6331C189.555 21.3446 188.992 21.0562 188.71 20.7678C188.146 20.4793 187.865 20.4793 187.301 20.4793C186.738 20.4793 186.174 20.4793 185.892 20.7678C185.611 21.0562 185.047 21.3446 184.765 21.6331C184.484 21.9215 184.202 22.4984 183.92 23.0752C183.638 23.6521 183.638 24.229 183.638 24.8058Z" fill="white"/>
<path d="M28.3831 8.94027C28.3831 7.78654 27.2561 6.63281 26.1291 6.63281C25.002 6.63281 23.875 7.78654 23.875 8.94027C23.875 10.094 25.002 11.2477 26.1291 11.2477C27.2561 11.2477 28.1013 10.094 28.3831 8.94027Z" fill="#F2F2F7"/>
<path d="M48.9552 0H22.7518C22.4701 0 22.1883 0 21.9066 0.288432L0.211317 21.0556C-0.0704391 21.6324 -0.0704391 22.2093 0.211317 22.7862L12.6086 36.054C13.1721 36.6309 13.7356 36.6309 14.2991 36.054L17.3985 32.8813C17.962 32.3044 17.962 31.7276 17.3985 31.1507L10.0728 23.0746C9.79104 22.4977 9.79104 21.9209 10.0728 21.344L21.9066 10.0951C21.9066 9.8067 21.6248 9.22983 21.6248 8.9414C21.6248 6.63394 23.5971 4.61492 25.8512 4.90335C28.1052 4.90335 30.0775 6.92238 29.7957 9.22983C29.7957 11.5373 27.8235 13.5563 25.5694 13.2679C25.2876 12.9795 24.7241 12.9795 24.1606 12.691C24.1606 12.691 24.1606 12.9795 23.8789 12.9795L14.5809 21.6324C14.0174 21.9209 14.0174 22.7862 14.5809 23.0746L19.6525 28.8432C20.216 29.4201 20.7795 29.4201 21.3431 28.8432L49.8005 2.01903C50.6457 1.44216 50.0822 0 48.9552 0Z" fill="#F2F2F7"/>
<path d="M32.0469 38.0731C32.0469 39.2268 33.1739 40.3805 34.3009 40.3805C35.428 40.3805 36.555 39.2268 36.555 38.0731C36.555 36.9194 35.428 35.7656 34.3009 35.7656C33.1739 35.7656 32.0469 36.9194 32.0469 38.0731Z" fill="#F2F2F7"/>
<path d="M11.4788 47.014H37.6822C37.9639 47.014 38.2457 47.014 38.5274 46.7256L60.2227 25.9585C60.7862 25.3816 60.7862 24.8047 60.2227 24.2279L47.8254 10.96C47.2619 10.3831 46.6984 10.3831 46.1349 10.96L43.0355 14.1327C42.472 14.7096 42.472 15.2865 43.0355 15.8633L50.3612 24.2279C50.643 24.8047 50.643 25.3816 50.3612 25.9585L38.5274 37.2073C38.5274 37.4958 38.8092 38.0726 38.8092 38.3611C38.8092 40.6685 36.8369 42.6876 34.5828 42.3991C32.3288 42.3991 30.3565 40.3801 30.6383 38.0726C30.92 35.7652 32.6105 33.7462 34.8646 34.0346C35.4281 34.0346 35.9916 34.323 36.5551 34.323C36.5551 34.323 36.5551 34.0346 36.8369 34.0346L46.1349 25.3816C46.6984 24.8047 46.6984 24.2279 46.1349 23.651L41.0632 17.8824C40.4997 17.3055 39.9362 17.3055 39.3727 17.8824L10.6335 44.995C9.78827 45.5719 10.3518 47.014 11.4788 47.014Z" fill="#F2F2F7"/>
</svg>
