<svg width="201" height="51" viewBox="0 0 201 51" fill="none" xmlns="http://www.w3.org/2000/svg">
<path d="M198.425 8.89901C197.077 7.28146 195.1 6.38281 192.404 6.38281C189.708 6.38281 187.731 7.1916 186.383 8.89901C185.035 10.5166 184.406 12.4935 184.406 14.7401C184.406 16.9867 185.035 18.9637 186.383 20.6711C187.731 22.2886 189.708 23.0974 192.404 23.0974C195.1 23.0974 197.077 22.2886 198.425 20.6711C199.773 19.0536 200.402 17.0766 200.402 14.7401C200.402 12.4037 199.773 10.5166 198.425 8.89901ZM195.1 18.4245C194.471 19.2333 193.572 19.6826 192.314 19.6826C191.056 19.6826 190.157 19.2333 189.528 18.4245C188.899 17.6157 188.54 16.3577 188.54 14.83C188.54 13.3023 188.899 12.0442 189.528 11.2354C190.157 10.4267 191.056 9.97735 192.314 9.97735C193.572 9.97735 194.471 10.4267 195.1 11.2354C195.729 12.0442 196.089 13.3023 196.089 14.83C196.089 16.3577 195.729 17.6157 195.1 18.4245Z" fill="white"/>
<path d="M164.542 7.5471C163.194 6.82819 161.666 6.55859 159.959 6.55859C157.263 6.55859 155.465 7.27749 154.297 8.62544C153.578 9.52408 153.219 10.6025 153.129 12.0403H157.083C157.173 11.4112 157.353 10.9619 157.712 10.6025C158.161 10.1531 158.79 9.88353 159.779 9.88353C160.767 9.88353 161.307 9.97341 161.756 10.243C162.205 10.5126 162.475 10.9619 162.475 11.591C162.475 12.22 162.205 12.4896 161.576 12.7592C161.217 12.9389 160.678 13.0288 159.959 13.1186L158.521 13.2984C156.903 13.4781 155.735 13.8375 154.926 14.2869C153.399 15.1855 152.68 16.5334 152.68 18.5104C152.68 20.4874 153.129 21.1165 154.117 21.9253C155.016 22.734 156.274 23.0935 157.622 23.1833C166.609 23.5428 166.519 18.4206 166.609 17.4321V11.5011C166.609 9.61395 165.979 8.35585 164.632 7.63694L164.542 7.5471ZM162.475 16.4436C162.475 17.7915 162.025 18.78 161.307 19.3192C160.588 19.8584 159.689 20.128 158.79 20.128C157.892 20.128 157.712 19.9483 157.353 19.6787C156.993 19.4091 156.724 18.8699 156.724 18.151C156.724 17.4321 157.083 16.803 157.712 16.4436C158.071 16.2639 158.701 15.9943 159.599 15.9044L160.498 15.7247C160.947 15.7247 161.307 15.5449 161.576 15.4551C161.846 15.3652 162.115 15.1855 162.385 15.0956V16.6233L162.475 16.4436Z" fill="white"/>
<path d="M144.146 10.0671C145.135 10.0671 145.944 10.4266 146.393 11.0556C146.752 11.505 146.932 12.0441 147.022 12.6732H151.425C151.156 10.4266 150.437 8.89893 149.089 8.0003C147.741 7.10166 146.033 6.65234 143.967 6.65234C141.9 6.65234 139.653 7.37125 138.215 8.89893C136.867 10.4266 136.148 12.4935 136.148 15.1894C136.148 17.8853 136.777 19.5028 138.036 21.0305C139.294 22.5582 141.271 23.2771 143.877 23.2771C146.483 23.2771 148.55 22.3785 149.898 20.5812C150.706 19.5028 151.246 18.3346 151.335 17.0765H146.932C146.842 17.8853 146.573 18.6042 146.123 19.0535C145.674 19.5927 144.955 19.8623 143.967 19.8623C142.978 19.8623 141.54 19.2332 141.091 17.8853C140.821 17.1664 140.642 16.2677 140.642 15.0995C140.642 13.9313 140.821 12.9428 141.091 12.2239C141.63 10.8759 142.619 10.157 144.056 10.157L144.146 10.0671Z" fill="white"/>
<path d="M134.981 6.55859C125.904 6.55859 126.444 14.6463 126.444 14.6463V22.8239H130.577V15.1855C130.577 13.9274 130.757 13.0288 131.027 12.3997C131.566 11.3214 132.734 10.7822 134.352 10.7822C135.969 10.7822 134.621 10.7822 134.801 10.7822C134.981 10.7822 135.25 10.7822 135.52 10.7822V6.55859C135.34 6.55859 135.25 6.55859 135.16 6.55859C135.16 6.55859 135.07 6.55859 134.981 6.55859Z" fill="white"/>
<path d="M119.881 18.5104C119.702 18.78 119.522 18.9598 119.342 19.1395C118.803 19.5888 117.994 19.7685 117.006 19.7685C116.017 19.7685 115.478 19.6787 114.849 19.2294C113.86 18.6003 113.231 17.5219 113.142 15.9943H124.554C124.554 14.6463 124.554 13.5679 124.374 12.849C124.195 11.5909 123.745 10.5126 123.116 9.61395C122.397 8.53559 121.499 7.81667 120.42 7.27749C119.342 6.82817 118.084 6.55859 116.736 6.55859C114.4 6.55859 112.602 7.2775 111.165 8.71531C109.727 10.1531 109.008 12.22 109.008 14.9159C109.008 17.6118 109.817 19.9482 111.434 21.2063C113.052 22.4644 114.849 23.0935 116.916 23.0935C118.983 23.0935 121.409 22.3746 122.847 20.8469C123.566 20.0381 124.105 19.2293 124.285 18.5104H119.881ZM114.31 10.872C114.849 10.243 115.748 9.9734 116.736 9.9734C117.725 9.9734 118.533 10.243 119.162 10.7822C119.791 11.3213 120.151 12.1301 120.241 13.2984H113.142C113.321 12.3099 113.681 11.5011 114.22 10.872H114.31Z" fill="white"/>
<path d="M107.302 22.8239H103.528V13.2984C103.528 12.3997 103.258 10.3329 100.742 10.3329C98.2256 10.3329 97.8662 11.5011 97.8662 13.2984V22.8239H94.0919V13.2984C94.0919 12.3997 93.8223 10.3329 91.3061 10.3329C88.79 10.3329 88.4305 11.5011 88.4305 13.2984V22.8239H84.6562V13.3883C84.6562 9.43426 87.2623 6.46875 91.3061 6.46875C95.35 6.46875 94.9007 7.27752 95.979 8.62547C97.0574 7.27752 98.7648 6.46875 100.652 6.46875C104.786 6.46875 107.212 9.34439 107.212 13.3883V22.8239H107.302Z" fill="white"/>
<path d="M183.152 1.618C183.152 1.618 179.018 1.16866 179.018 4.49361V8.89695C178.569 8.17804 177.94 7.54897 177.221 7.18952C176.502 6.7402 175.603 6.56049 174.705 6.56049C172.638 6.56049 171.02 7.36927 169.762 8.89695C168.504 10.4246 167.875 12.6712 167.875 15.2772C167.875 17.8833 168.504 19.5008 169.762 20.9386C171.02 22.3765 173.447 23.0954 175.603 23.0954C183.242 23.0954 183.152 16.6252 183.152 16.6252V1.618ZM178.209 18.4225C177.58 19.3211 176.682 19.6806 175.603 19.6806C174.525 19.6806 173.536 19.2312 172.997 18.4225C172.458 17.5238 172.099 16.2657 172.099 14.8279C172.099 13.3901 172.368 12.4016 172.907 11.4131C173.447 10.5145 174.345 10.0652 175.513 10.0652C176.682 10.0652 176.951 10.3347 177.58 10.7841C178.569 11.5928 179.018 13.1205 179.018 15.0077C179.018 16.8948 178.748 17.5238 178.119 18.3326L178.209 18.4225Z" fill="white"/>
<path d="M135.873 42.5026C135.694 42.7722 135.514 42.9519 135.334 43.1316C134.795 43.581 133.896 43.7607 132.998 43.7607C132.099 43.7607 131.47 43.6708 130.841 43.2215C129.853 42.5925 129.313 41.5141 129.224 39.9864H140.546C140.546 38.6385 140.546 37.65 140.367 36.9311C140.187 35.673 139.738 34.6845 139.109 33.696C138.39 32.6176 137.491 31.8987 136.413 31.3595C135.334 30.9102 134.076 30.6406 132.728 30.6406C130.482 30.6406 128.595 31.3595 127.157 32.7973C125.719 34.2352 125 36.302 125 38.9979C125 41.6939 125.809 43.9404 127.336 45.1985C128.954 46.4566 130.751 47.0857 132.818 47.0857C134.885 47.0857 137.311 46.3668 138.659 44.8391C139.378 44.0303 139.917 43.2215 140.097 42.5026H135.784H135.873ZM130.302 34.8642C130.841 34.2352 131.65 33.9656 132.728 33.9656C133.807 33.9656 134.526 34.2352 135.155 34.7744C135.784 35.3135 136.143 36.1223 136.233 37.2007H129.224C129.403 36.2122 129.763 35.4034 130.302 34.7744V34.8642Z" fill="white"/>
<path d="M107.478 30.6417C106.49 30.6417 105.681 30.8214 104.962 31.2708C104.243 31.7201 103.614 32.2593 103.165 32.9782V25.5195C103.165 25.5195 99.0312 25.0702 99.0312 28.485V40.5267C99.0312 40.5267 99.0312 47.0867 106.58 47.0867C114.128 47.0867 111.253 46.4577 112.421 44.93C113.679 43.4922 114.308 41.5152 114.308 39.2686C114.308 37.022 113.679 34.5058 112.421 32.9782C111.163 31.4505 109.545 30.6417 107.478 30.6417ZM109.186 42.5037C108.647 43.4023 107.748 43.7618 106.58 43.7618C105.412 43.7618 104.513 43.3125 103.974 42.5037C103.345 41.6051 103.075 40.5267 103.075 39.1787C103.075 37.8308 103.524 35.8538 104.513 35.045C105.142 34.5058 105.771 34.3261 106.58 34.3261C107.748 34.3261 108.647 34.7754 109.186 35.6741C109.725 36.5727 109.995 37.7409 109.995 38.999C109.995 40.2571 109.725 41.6051 109.096 42.5037H109.186Z" fill="white"/>
<path d="M124.285 30.6406C124.285 30.6406 124.195 30.6406 124.106 30.6406C115.029 30.6406 115.569 38.7283 115.569 38.7283V46.8161H119.702V39.2675C119.702 38.0094 119.882 37.1108 120.152 36.4818C120.691 35.4034 121.859 34.8642 123.477 34.8642C125.094 34.8642 123.746 34.8642 123.926 34.8642C124.106 34.8642 124.375 34.8642 124.645 34.8642V30.6406C124.465 30.6406 124.375 30.6406 124.285 30.6406Z" fill="white"/>
<path d="M84.7422 28.5729V46.7253H88.6063V25.6074C88.6063 25.6074 84.7422 25.4276 84.7422 28.5729Z" fill="white"/>
<path d="M95.9775 25.6094H91.8438V29.7431H95.9775V25.6094Z" fill="white"/>
<path d="M95.9775 31.0898H91.8438V46.7261H95.9775V31.0898Z" fill="white"/>
<path d="M73.329 23.6364C73.2391 10.4264 56.7042 -0.177476 36.4849 0.00225134C16.2657 0.181978 -0.0894949 11.0555 0.00036855 24.2654C0.00036855 24.6248 0.00036855 25.5235 0.00036855 25.7032C0.090232 39.7219 14.5583 50.9549 36.8444 50.7751C59.3103 50.5954 73.4188 39.0929 73.329 25.0742V23.6364ZM36.8444 46.4617C17.344 46.6414 1.52805 36.6666 1.43818 24.1756C1.43818 23.6364 1.43818 23.187 1.43818 22.6479L1.70778 21.1202C1.70778 20.9404 1.70777 20.7607 1.79764 20.6709C2.60641 20.9404 3.14559 21.0303 3.50505 21.1202C12.4914 23.187 15.9961 25.2539 17.0744 26.0627C17.7933 25.4336 18.692 25.0742 19.5906 25.0742C20.669 25.0742 21.6575 25.5235 22.3764 26.3323C23.5446 25.6134 24.8926 25.4336 26.2405 25.9728C27.1391 26.2424 27.8581 26.8715 28.3074 27.6802C29.206 27.4106 30.2844 27.4106 31.3627 27.9498C33.3397 28.8484 33.6992 30.6457 33.6093 31.9038C36.0356 31.9038 37.9228 33.8808 37.9228 36.3071C37.9228 36.8463 37.8329 37.4753 37.5633 38.0145C38.1924 38.374 39.3606 38.8233 40.3491 38.7334C41.3376 38.6436 41.6072 38.2841 41.697 38.1942L39.0011 35.2288C38.5518 34.7794 38.3721 34.3301 38.7315 34.0605C38.8214 33.9707 39.0011 33.8808 39.1809 33.8808C39.4504 33.8808 39.72 34.1504 39.9896 34.2402C41.4274 35.4983 43.2247 37.2956 43.2247 37.2956C43.2247 37.3855 43.4044 37.4753 43.7639 37.5652C43.8538 37.5652 44.0335 37.5652 44.2132 37.5652C44.4828 37.5652 45.2017 37.5652 45.651 37.1159C45.7409 37.1159 45.8308 36.9361 45.9206 36.8463H46.0105C46.4598 36.1274 46.0105 35.4984 46.0105 35.4085L42.6855 31.7241C42.6855 31.7241 42.5957 31.6342 42.4159 31.4545C42.0565 31.0052 42.2362 30.6457 42.4159 30.5558C42.5058 30.466 42.6855 30.3761 42.8653 30.3761C43.1349 30.3761 43.4044 30.5559 43.674 30.7356C44.5727 31.4545 45.7409 32.6227 46.9091 33.7909L47.628 34.5099C47.628 34.5099 48.1672 34.8693 48.7962 34.8693C49.2456 34.8693 49.7847 34.6896 50.2341 34.42C50.953 33.9707 51.2226 33.4315 51.2226 32.7126C51.2226 32.0835 50.6834 31.6342 50.6834 31.6342L46.1902 27.0512C45.7409 26.6917 45.5612 26.1525 45.8307 25.883C45.9206 25.7032 46.1003 25.7032 46.2801 25.7032C46.5497 25.7032 46.8193 25.8829 47.0888 26.1525C47.8976 26.8714 49.605 28.3991 52.2111 30.7356C52.3908 30.9153 52.4807 30.9153 52.4807 31.0052C52.4807 31.0052 52.93 31.3646 53.6489 31.3646C54.0982 31.3646 54.5475 31.1849 54.9968 30.9153C55.4462 30.6457 55.8056 30.1964 55.8056 29.6572C55.8056 28.7586 55.1766 28.2194 55.1766 28.2194C54.0083 27.141 43.674 18.1547 41.2477 16.3574C39.8998 15.2791 39.091 15.0095 38.2822 14.9196C38.2822 14.9196 38.1025 14.9196 38.0126 14.9196C37.6532 14.9196 37.2937 14.9196 36.9343 15.0993C35.6762 15.4588 34.0586 16.5372 32.9803 17.4358C31.5425 18.604 30.1046 19.6824 28.7567 20.0418C28.3074 20.1317 27.8581 20.2215 27.4087 20.2215C26.1506 20.2215 24.8027 19.8621 23.9939 19.3229C23.5446 19.0533 23.275 18.6939 23.0953 18.3344C22.7358 17.4358 23.275 16.627 23.5446 16.3574L26.6898 13.0325C26.2405 13.1223 25.7912 13.3021 25.3419 13.3919C24.1736 13.6615 23.0953 14.021 21.9271 14.021C21.5676 14.021 21.1183 14.021 20.7588 14.021H20.3994C18.7818 13.9311 13.5698 12.5832 9.07658 10.696L10.3347 9.70752C16.715 5.03462 26.0608 2.06912 36.4849 1.97926C47.2686 1.97926 56.884 4.8549 63.3541 9.70752L64.6122 10.696C64.6122 10.696 64.792 10.8757 64.8818 10.8757L64.4325 11.0555C60.838 12.673 57.4231 13.4818 54.0982 13.4818C50.8631 13.4818 47.7179 12.673 44.6625 11.2352C44.3031 11.0555 41.1578 9.61766 37.9228 9.61766C37.9228 9.61766 37.743 9.61766 37.6532 9.61766C32.531 9.70752 30.2844 11.9541 27.9479 14.2906L24.8926 17.6155C24.8926 17.6155 24.8926 17.7054 24.8027 17.7952C25.1621 18.1547 26.0608 18.5141 27.0493 18.5141C27.4986 18.5141 27.8581 18.5142 28.3074 18.3344C29.206 18.1547 30.554 17.0763 31.7222 16.0878C33.0701 14.9196 34.508 13.8413 35.9458 13.3919C36.5748 13.2122 37.2039 13.1223 37.743 13.1223C38.3721 13.1223 38.8214 13.2122 39.1809 13.3919C39.9896 13.6615 40.7984 14.1108 42.0565 15.0993C44.1233 16.627 51.4023 23.0073 55.6259 26.6917C57.9623 25.6134 63.9832 23.187 71.2621 21.5695C71.2621 21.5695 71.2621 21.6594 71.2621 21.7492L71.4418 23.2769C71.4418 23.6364 71.4418 23.9958 71.4418 24.4451C71.5317 36.9362 55.8056 47.0907 36.3951 47.2705L36.8444 46.4617Z" fill="white"/>
<path d="M33.613 33.435C33.2535 33.435 32.8042 33.6147 32.4447 33.7046C32.265 33.7046 32.1752 33.7945 31.9954 33.7945H31.8157L31.7258 33.6148C31.7258 33.5249 31.7258 33.2553 31.7258 32.8958C31.7258 32.8958 32.1752 31.6377 31.7258 30.5594C31.5461 30.1101 31.1867 29.6608 30.5576 29.3912C30.1083 29.2114 29.7488 29.1216 29.2995 29.1216C28.4908 29.1216 27.8617 29.5709 27.682 29.8405C27.682 29.8405 27.5023 30.0202 27.4124 30.0202C27.3225 30.0202 27.2327 30.0202 27.1428 29.8405C27.1428 29.8405 27.1428 29.7506 27.1428 29.6607C27.1428 29.481 27.1428 29.2114 26.9631 28.9419C26.7833 28.4027 26.334 27.8635 25.5253 27.6838C25.1658 27.5939 24.8962 27.504 24.5368 27.504C22.8293 27.504 21.9307 28.852 21.9307 28.9419L21.5713 29.481V28.852C21.5713 28.7621 21.5713 28.5824 21.5713 28.4925C21.3017 27.5939 20.403 26.9648 19.5044 26.9648C18.2463 26.9648 17.2578 27.9533 17.2578 29.2114C17.2578 29.481 17.2578 29.7506 17.4375 30.0202C17.797 30.829 18.6058 31.3682 19.5044 31.3682C20.0436 31.3682 20.4929 31.0087 21.0321 30.7391C21.2118 30.7391 21.3017 30.7391 21.3915 30.7391C21.3915 30.7391 21.3915 30.829 21.3915 30.9189C21.3915 30.9189 21.3915 31.0087 21.3915 31.0986C21.3915 31.3682 21.3017 32.0871 21.4814 32.7161C21.751 33.3452 22.2003 34.0641 23.2787 34.4235C23.5483 34.5134 23.8178 34.6032 24.0874 34.6032C24.5368 34.6032 24.9861 34.4235 25.4354 34.1539C25.5253 34.1539 25.6151 34.0641 25.705 34.0641H25.8847C25.8847 34.0641 25.8847 34.1539 25.8847 34.2438C25.8847 34.2438 25.8847 34.4235 25.8847 34.5134C25.8847 34.6931 25.8847 34.9627 25.8847 35.2323C26.0644 35.6816 26.4239 36.2208 27.4124 36.6701C27.7718 36.8498 28.0414 36.8498 28.311 36.8498C28.9401 36.8498 29.3894 36.4904 29.7488 36.2208C29.8387 36.1309 30.0184 36.0411 30.1083 36.0411C30.288 36.0411 30.3779 36.1309 30.3779 36.3107C30.3779 36.4005 30.3779 36.5803 30.3779 36.6701C30.3779 37.0296 30.4677 37.389 30.5576 37.6586C31.0069 38.6471 31.9954 39.2762 33.1637 39.2762C34.7812 39.2762 36.0393 38.0181 36.0393 36.4005C36.0393 36.0411 36.0393 35.6816 35.8596 35.3222C35.4102 34.3337 34.4217 33.6148 33.2535 33.6148L33.613 33.435Z" fill="white"/>
</svg>
