<svg width="161" height="41" viewBox="0 0 161 41" fill="none" xmlns="http://www.w3.org/2000/svg">
<path d="M59.0647 19.1285C58.9924 8.51761 45.8348 0 29.7131 0C29.5685 0 29.4239 0 29.3516 0C23.8572 0.0721831 18.652 1.08275 14.0974 2.88733C5.92815 6.13557 0.361473 11.9102 0 18.5511C0 18.7676 0 18.912 0 19.1285C0 19.2007 0 19.2729 0 19.3451V19.4173C0 19.4894 0 19.4894 0 19.5616C0 19.706 0 19.8504 0 20.0669C0 20.2835 0 20.4278 0 20.5C0 20.5722 0 20.5722 0 20.6444V20.7887C0 20.9331 0 21.0775 0 21.2218C0 21.3662 0 21.5106 0 21.6549C0.289178 26.9243 3.18096 31.6884 8.16929 35.2254C13.5191 39.0511 20.8208 41 29.2793 41C29.4239 41 29.5685 41 29.7131 41C38.3884 40.9278 45.8347 38.7623 51.2568 34.8644C56.3898 31.1109 59.2092 25.9137 59.137 20.2835L59.0647 19.1285Z" fill="#2D3277"/>
<path d="M26.6025 27.4312C26.8194 27.3591 27.1808 27.2147 27.47 27.2147C28.6267 27.2147 29.6388 28.1531 29.6388 29.308C29.6388 30.4629 28.699 31.4735 27.5423 31.4735C26.3856 31.4735 25.4457 30.6073 25.4457 29.4524C25.4457 28.9471 25.1566 28.8749 25.012 28.8749C24.8674 28.8749 24.7228 28.9471 24.5782 29.0914C24.289 29.308 23.9999 29.5245 23.5661 29.5967C23.3492 29.5967 23.1323 29.5245 22.9154 29.4524C21.7587 29.0193 21.6864 28.0809 21.7587 27.72C21.7587 27.6478 21.831 27.4312 21.6864 27.2869C21.6141 27.2147 21.4695 27.1425 21.4695 27.1425C21.325 27.1425 21.2527 27.1425 21.1081 27.2869C20.8189 27.5034 20.3851 27.7921 20.0237 27.7921C19.8068 27.7921 19.6622 27.7921 19.4453 27.72C17.7102 27.0703 17.8548 25.5545 17.9271 25.1936C17.9271 25.1214 17.9994 24.9048 17.7825 24.7605C17.5656 24.6161 17.4211 24.8326 17.2765 24.9048C16.9873 25.1936 16.6981 25.2657 16.2643 25.2657C15.3245 25.1936 14.6016 24.4717 14.6016 23.6055C14.6016 23.1724 14.7462 22.7393 15.1076 22.4506C15.3968 22.1619 15.8306 21.9453 16.2643 21.9453C17.2042 21.9453 17.7102 22.3062 17.9271 23.1002V23.1724C17.9271 23.3168 17.9994 23.5333 18.144 23.5333C18.3609 23.6055 18.4332 23.389 18.5055 23.3168L18.5778 23.2446L18.6501 23.1724C19.0115 22.7393 19.3007 22.3784 20.4574 22.3784C20.6743 22.3784 20.9635 22.3784 21.1804 22.5228C21.831 22.7393 22.1925 23.3168 22.2648 24.183C22.2648 24.4717 22.4817 24.6161 22.6263 24.6161C22.7709 24.6161 22.9154 24.4717 22.9877 24.4717C23.2769 24.183 23.7107 23.8221 24.2167 23.8221C24.5059 23.8221 24.7951 23.8943 25.1566 24.0386C26.6748 24.6883 26.0241 26.7094 26.0241 26.7094C25.9518 26.926 25.8072 27.359 26.0964 27.5756H26.1687H26.3133C26.3133 27.5034 26.3856 27.5034 26.6025 27.4312Z" fill="white"/>
<path d="M57.4777 16.891C51.6219 18.2624 47.1396 20.1392 45.4046 20.9332C42.5851 18.5512 36.1508 12.9931 34.4158 11.6938C33.4037 10.8998 32.6807 10.5388 32.0301 10.3223C31.7409 10.2501 31.3794 10.1057 30.8733 10.1779C30.4396 10.1779 29.9335 10.2501 29.4274 10.4667C28.2707 10.8276 27.114 11.766 26.0296 12.6322L25.9573 12.7043C24.9452 13.4984 23.9331 14.2924 23.2101 14.5089C22.8486 14.5811 22.5595 14.6533 22.198 14.6533C21.4027 14.6533 20.6798 14.4367 20.3906 14.148C20.3906 14.148 20.3906 14.0758 20.4629 14.0036L22.9209 11.3329C24.8006 9.38391 26.608 7.57933 30.7288 7.50715C30.801 7.50715 30.8733 7.50715 30.9456 7.50715C33.5482 7.43497 36.0786 8.5899 36.3677 8.73427C38.8257 9.8892 41.4283 10.4667 43.9587 10.4667C46.5613 10.4667 49.2362 9.81701 52.1279 8.51771C54.8751 10.8276 56.8271 13.7149 57.4777 16.891Z" fill="white"/>
<path d="M29.3501 1.37109C29.4947 1.37109 29.567 1.37109 29.7116 1.37109C33.7601 1.37109 37.664 1.94856 41.2064 2.95912C41.2787 2.95912 41.351 3.0313 41.4233 3.0313C41.5679 3.10349 41.7848 3.10349 41.9294 3.17567C45.2549 4.18623 48.1467 5.70208 50.5324 7.43447C48.1467 8.44504 45.9056 8.95032 43.7367 8.95032C43.6644 8.95032 43.6644 8.95032 43.5921 8.95032C41.2787 8.95032 38.9653 8.37285 36.7242 7.36229C36.5796 7.29011 33.7601 5.99081 30.7237 5.99081H30.6514H30.4345C26.8921 6.13518 24.8678 7.36229 23.5665 8.44504C22.2652 8.51722 21.1808 8.80595 20.1687 9.09469C19.3012 9.31124 18.5782 9.52778 17.8553 9.59997C17.6384 9.59997 17.2046 9.59997 17.06 9.59997H16.9877C16.1925 9.59997 12.0717 8.5894 8.60156 7.36229C13.9514 3.60877 21.47 1.44328 29.3501 1.37109Z" fill="#FFD100"/>
<path d="M7.30304 8.375C11.0624 9.89084 15.4 10.9014 16.7013 10.9736H16.9905C17.2797 10.9736 17.5689 10.9736 17.9303 11.0458C18.8702 11.0458 19.81 10.757 20.6775 10.5405C21.039 10.4683 21.4005 10.3239 21.7619 10.2518C21.7619 10.2518 21.7619 10.2518 21.6897 10.3239L19.2316 13.0669C19.0148 13.2835 18.5087 13.9331 18.8702 14.6549C19.0148 14.9437 19.2316 15.2324 19.5931 15.4489C20.2438 15.882 21.3282 16.1708 22.3403 16.0986C22.7018 16.0986 23.0633 16.0264 23.4247 15.9542C24.5091 15.7377 25.5936 14.7993 26.8226 13.8609C27.7624 13.1391 28.9914 12.2007 30.0035 11.912C30.2927 11.8398 30.5819 11.7676 30.8711 11.7676C30.9434 11.7676 31.0157 11.7676 31.0879 11.7676C31.7386 11.8398 32.317 12.0563 33.4737 12.9225C35.4256 14.3662 43.8118 21.5123 44.7516 22.3785C44.7516 22.3785 45.2577 22.8116 45.2577 23.5334C45.2577 23.9665 45.0408 24.3275 44.607 24.544C44.2456 24.7606 43.8841 24.9049 43.5226 24.9049C42.9443 24.9049 42.5828 24.6162 42.5828 24.6162C42.5828 24.6162 42.5105 24.544 42.3659 24.3996C41.5707 23.6778 39.2572 21.5845 38.2451 20.7905C38.0282 20.6461 37.8113 20.4296 37.5945 20.5018C37.4499 20.5018 37.3053 20.5739 37.233 20.7183C37.0161 21.007 37.1607 21.368 37.5222 21.6567L41.2092 25.2658C41.2092 25.2658 41.643 25.6268 41.643 26.132C41.643 26.7095 41.4261 27.1426 40.8477 27.5035C40.4862 27.7923 40.0525 27.9366 39.691 27.9366C39.1849 27.9366 38.8958 27.7201 38.8235 27.6479L38.2451 27.0704C37.3053 26.132 36.2932 25.1937 35.5702 24.6162C35.3533 24.4718 35.1364 24.3275 34.9196 24.3275C34.775 24.3275 34.6304 24.3996 34.5581 24.4718C34.4858 24.6162 34.3412 24.8327 34.6304 25.1937C34.7027 25.338 34.8473 25.4102 34.8473 25.4102L37.5222 28.3697C37.5945 28.5141 37.9559 28.9472 37.5945 29.3803L37.5222 29.5246C37.4499 29.5968 37.3776 29.669 37.3053 29.7412C36.8715 30.1021 36.3655 30.1021 36.1486 30.1021C36.004 30.1021 35.9317 30.1021 35.7871 30.1021C35.4979 30.0299 35.4256 29.9577 35.3533 29.9577L35.281 29.8856C34.1966 28.7306 33.3291 28.0088 32.8953 27.6479C32.7507 27.5035 32.5338 27.3591 32.2447 27.3591C32.1001 27.3591 31.9555 27.4313 31.8832 27.5035C31.6663 27.7201 31.7386 28.1532 32.1724 28.4419L34.1966 30.6796C34.1243 30.7518 33.9074 30.9683 33.1845 31.1127C33.1122 31.1127 32.9676 31.1127 32.8953 31.1127C32.1724 31.1127 31.3771 30.8239 30.9434 30.5352C31.0879 30.1021 31.2325 29.669 31.2325 29.1637C31.2325 28.2253 30.8711 27.3591 30.1481 26.6373C29.4975 25.9877 28.6299 25.6268 27.6901 25.6268C27.6901 24.6884 27.4732 23.1725 25.8104 22.5229C25.3044 22.3063 24.7983 22.2342 24.3646 22.2342C24.0031 22.2342 23.7139 22.3063 23.4247 22.3785C23.0633 21.7289 22.4849 21.2958 21.7619 21.007C21.3282 20.8627 20.8944 20.7905 20.4606 20.7905C19.81 20.7905 19.1593 21.007 18.581 21.368C18.0026 20.7183 17.2074 20.3574 16.3399 20.3574C15.6169 20.3574 14.894 20.6461 14.3156 21.1514C13.4481 20.5739 10.5563 18.8415 3.32683 17.3257C2.96536 17.2535 2.31471 17.037 1.66406 16.8926C2.24242 13.8609 4.19437 10.9014 7.30304 8.375Z" fill="white"/>
<path d="M57.6886 20.3554C57.6886 20.6441 57.6163 20.8606 57.6163 21.0772C56.9657 25.1916 54.2185 29.0173 49.5916 31.9768C44.2418 35.4416 37.157 37.3906 29.6383 37.4628C29.4937 37.4628 29.4214 37.4628 29.2769 37.4628C13.8781 37.4628 1.29886 29.5226 1.22656 19.7057C1.22656 19.417 1.22657 19.0561 1.29886 18.6951C1.58804 18.7673 2.60016 18.9839 2.88934 19.0561C9.97421 20.5719 12.6491 22.1599 13.2998 22.6652C13.1552 23.0261 13.1552 23.3149 13.1552 23.6758C13.1552 25.336 14.5288 26.7075 16.1915 26.7075C16.3361 26.7075 16.4807 26.7075 16.6253 26.7075C16.9145 27.8624 17.7097 28.7286 18.8664 29.1617C19.2279 29.3061 19.5894 29.3782 19.9509 29.3782C20.0954 29.3782 20.3123 29.3782 20.5292 29.3061C20.7461 29.8113 21.3245 30.461 22.3366 30.8941C22.7703 31.0385 23.1318 31.1106 23.5656 31.1106C23.8548 31.1106 24.0716 31.0385 24.3608 30.9663C24.9392 32.1934 26.1682 32.9874 27.5418 32.9874C28.4816 32.9874 29.3492 32.6265 29.9998 31.9768C30.6505 32.2656 31.7349 32.7709 32.8193 32.7709C32.9639 32.7709 33.1085 32.7709 33.2531 32.7709C34.4821 32.6265 35.0604 32.1212 35.2773 31.7603L35.3496 31.6881C35.5665 31.7603 35.8557 31.7603 36.1448 31.7603C36.7955 31.7603 37.4461 31.5437 38.0968 31.0385C38.6751 30.6054 39.1089 30.0279 39.2535 29.4504C39.3981 29.4504 39.5427 29.4504 39.7596 29.4504C40.4825 29.4504 41.1332 29.2339 41.7838 28.8008C42.8682 28.0789 43.1574 27.1406 43.2297 26.4187C43.3743 26.4187 43.5189 26.4187 43.6635 26.4187C44.3141 26.4187 44.9648 26.2022 45.5431 25.8413C46.3384 25.336 46.7721 24.542 46.8444 23.6758C46.9167 23.1705 46.7721 22.593 46.483 22.1599C48.7964 21.1494 53.0618 19.6335 57.7609 18.5508C57.7609 18.8395 57.8332 19.2004 57.8332 19.4892C57.7609 19.7057 57.7609 19.9944 57.6886 20.3554Z" fill="#FFD100"/>
<path d="M159.403 7.14612C158.319 5.84683 156.728 5.125 154.559 5.125C152.39 5.125 150.8 5.77464 149.715 7.14612C148.631 8.44542 148.125 10.0334 148.125 11.838C148.125 13.7148 148.631 15.2306 149.715 16.6021C150.8 17.9014 152.39 18.5511 154.559 18.5511C156.728 18.5511 158.319 17.9014 159.403 16.6021C160.487 15.3028 160.993 13.7148 160.993 11.838C160.993 10.0334 160.415 8.44542 159.403 7.14612ZM156.728 14.7975C156.222 15.4472 155.499 15.8081 154.487 15.8081C153.547 15.8081 152.752 15.4472 152.246 14.7975C151.74 14.1479 151.451 13.1373 151.451 11.9102C151.451 10.6831 151.74 9.67254 152.246 9.02289C152.752 8.37324 153.475 8.01232 154.487 8.01232C155.427 8.01232 156.222 8.37324 156.728 9.02289C157.234 9.67254 157.523 10.6831 157.523 11.9102C157.523 13.1373 157.234 14.0757 156.728 14.7975Z" fill="#2D3277"/>
<path d="M132.152 5.99323C131.068 5.41577 129.839 5.19922 128.465 5.19922C126.296 5.19922 124.85 5.77669 123.911 6.85943C123.332 7.58126 123.043 8.44746 122.971 9.60239H126.152C126.224 9.0971 126.369 8.73619 126.658 8.44746C127.019 8.08654 127.525 7.86999 128.321 7.86999C129.044 7.86999 129.55 7.94218 129.911 8.15872C130.273 8.37527 130.489 8.73619 130.489 9.24147C130.489 9.67457 130.273 9.9633 129.767 10.1799C129.477 10.3242 129.044 10.3964 128.465 10.4686L127.309 10.613C126.007 10.7573 125.067 11.046 124.417 11.407C123.188 12.1288 122.609 13.2115 122.609 14.7996C122.609 16.0267 122.971 16.8929 123.766 17.5425C124.489 18.1922 125.501 18.4809 126.586 18.5531C133.815 18.8418 133.743 14.7274 133.815 13.9334V9.16929C133.815 7.58126 133.237 6.5707 132.152 5.99323ZM130.489 13.2115C130.489 14.2943 130.128 15.0883 129.55 15.5214C128.971 15.9545 128.248 16.171 127.525 16.171C127.092 16.171 126.658 16.0267 126.369 15.8101C126.08 15.5936 125.863 15.1605 125.863 14.583C125.863 13.9334 126.152 13.5003 126.658 13.2115C126.947 13.0672 127.453 12.8506 128.176 12.7784L128.899 12.6341C129.26 12.5619 129.55 12.4897 129.767 12.4175C129.983 12.3453 130.2 12.201 130.417 12.1288V13.2115H130.489Z" fill="#2D3277"/>
<path d="M115.739 8.01249C116.534 8.01249 117.185 8.30122 117.546 8.8065C117.835 9.16742 117.98 9.60052 118.052 10.1058H121.595C121.378 8.30122 120.8 7.07411 119.715 6.35228C118.631 5.63045 117.257 5.26953 115.594 5.26953C113.642 5.26953 112.124 5.847 110.967 7.07411C109.883 8.30122 109.305 9.96143 109.305 12.1269C109.305 14.0037 109.811 15.5917 110.823 16.8188C111.835 18.0459 113.425 18.6234 115.522 18.6234C117.691 18.6234 119.281 17.9016 120.366 16.4579C121.016 15.5917 121.45 14.6533 121.522 13.6428H117.98C117.908 14.2924 117.691 14.8699 117.329 15.2308C116.968 15.6639 116.39 15.8804 115.594 15.8804C114.438 15.8804 113.642 15.3752 113.281 14.2924C113.064 13.715 112.919 12.9931 112.919 12.0547C112.919 11.1164 113.064 10.3224 113.281 9.74489C113.715 8.58996 114.582 8.01249 115.739 8.01249Z" fill="#2D3277"/>
<path d="M108.365 5.26953C101.063 5.26953 101.497 11.766 101.497 11.766V18.3347H104.823V12.1991C104.823 11.1885 104.967 10.4667 105.184 9.96143C105.618 9.09524 106.558 8.66214 107.859 8.66214C107.931 8.66214 108.076 8.66214 108.22 8.66214C108.365 8.66214 108.582 8.66214 108.799 8.73432V5.34171C108.654 5.34171 108.582 5.34171 108.51 5.34171C108.51 5.26953 108.437 5.26953 108.365 5.26953Z" fill="#2D3277"/>
<path d="M96.2242 14.8699C96.0796 15.0864 95.935 15.2308 95.7904 15.3752C95.3567 15.7361 94.706 15.8805 93.9108 15.8805C93.1878 15.8805 92.6818 15.8083 92.1757 15.4473C91.3805 14.9421 90.8744 14.0759 90.8021 12.8488H99.9835C99.9835 11.766 99.9835 10.8998 99.8389 10.3223C99.6943 9.31178 99.3329 8.44559 98.8268 7.72376C98.2485 6.85756 97.5255 6.2801 96.658 5.847C95.7904 5.48608 94.7783 5.26953 93.6939 5.26953C91.8142 5.26953 90.3683 5.847 89.2116 7.00193C88.0549 8.15686 87.4766 9.81707 87.4766 11.9826C87.4766 14.2924 88.1272 16.0248 89.4285 17.0354C90.7298 18.0459 92.1757 18.5512 93.8385 18.5512C95.8627 18.5512 97.4532 17.9738 98.6099 16.7466C99.1883 16.097 99.622 15.4474 99.7666 14.8699H96.2242ZM91.7419 8.66214C92.1757 8.15686 92.8987 7.94031 93.6939 7.94031C94.4891 7.94031 95.1398 8.15685 95.6459 8.58995C96.1519 9.02305 96.4411 9.6727 96.5134 10.6111H90.8021C90.9467 9.81707 91.3082 9.16742 91.7419 8.66214Z" fill="#2D3277"/>
<path d="M86.0991 18.2644H83.0627V10.6851C83.0627 9.9633 82.8458 8.30309 80.8216 8.30309C79.5203 8.30309 78.5081 9.24147 78.5081 10.6851V18.3365H75.5441V10.6851C75.5441 9.9633 75.3272 8.30309 73.3029 8.30309C71.9293 8.30309 70.9895 9.24147 70.9895 10.6851V18.3365H67.9531V10.7573C67.9531 7.58126 70.0497 5.19922 73.3029 5.19922C74.8934 5.19922 76.1947 5.84887 77.0622 6.93161C77.9298 5.84887 79.3034 5.19922 80.8216 5.19922C84.1471 5.19922 86.0991 7.50908 86.0991 10.7573V18.2644Z" fill="#2D3277"/>
<path d="M147.118 1.22728C147.118 1.22728 143.793 0.866358 143.793 3.53713V7.07411C143.431 6.49664 142.925 5.99136 142.347 5.70263C141.768 5.34171 141.045 5.19735 140.323 5.19735C138.66 5.19735 137.358 5.84699 136.346 7.07411C135.334 8.30122 134.828 10.1058 134.828 12.1991C134.828 14.0759 135.334 15.5917 136.346 16.7466C137.358 17.9016 139.31 18.479 141.045 18.479C147.191 18.479 147.118 13.2819 147.118 13.2819V1.22728ZM143.142 14.7977C142.636 15.5195 141.913 15.8083 141.045 15.8083C140.106 15.8083 139.383 15.4473 138.949 14.7977C138.515 14.0759 138.226 13.0653 138.226 11.9104C138.226 10.8276 138.443 9.96143 138.877 9.16742C139.31 8.44559 140.033 8.08467 140.973 8.08467C141.624 8.08467 142.13 8.30122 142.636 8.66214C143.431 9.31179 143.793 10.5389 143.793 12.0547C143.865 13.2097 143.648 14.0759 143.142 14.7977Z" fill="#2D3277"/>
<path d="M109.091 34.1414C108.947 34.358 108.802 34.5024 108.658 34.6467C108.224 35.0076 107.501 35.152 106.778 35.152C106.055 35.152 105.549 35.0798 105.043 34.7189C104.248 34.2136 103.814 33.3474 103.742 32.1203H112.851C112.851 31.0376 112.851 30.2436 112.706 29.6661C112.562 28.6555 112.2 27.8615 111.694 27.0675C111.116 26.2013 110.393 25.6238 109.525 25.1907C108.658 24.8298 107.645 24.6133 106.561 24.6133C104.754 24.6133 103.236 25.1907 102.079 26.3457C100.922 27.5006 100.344 29.1608 100.344 31.3263C100.344 33.6362 100.994 35.2964 102.223 36.3069C103.525 37.3175 104.971 37.8228 106.633 37.8228C108.658 37.8228 110.248 37.2453 111.333 36.0182C111.911 35.3686 112.345 34.7189 112.489 34.1414H109.091ZM104.681 28.0059C105.115 27.5006 105.766 27.2841 106.633 27.2841C107.429 27.2841 108.079 27.5006 108.585 27.9337C109.091 28.3668 109.381 29.0164 109.453 29.8826H103.742C103.886 29.0886 104.175 28.439 104.681 28.0059Z" fill="#2D3277"/>
<path d="M86.241 24.6145C85.4458 24.6145 84.7952 24.7588 84.2168 25.1198C83.6384 25.4807 83.1324 25.9138 82.7709 26.4912V20.5C82.7709 20.5 79.4454 20.1391 79.4454 22.8821C79.4454 25.1919 79.4454 32.5546 79.4454 32.5546C79.4454 32.5546 79.3731 37.824 85.5181 37.824C87.2532 37.824 89.2774 37.3187 90.2172 36.0916C91.2294 34.9367 91.7354 33.3486 91.7354 31.5441C91.7354 29.3786 91.2294 27.7184 90.2172 26.4912C89.2051 25.2641 87.9038 24.6145 86.241 24.6145ZM87.6146 34.0705C87.1809 34.7923 86.4579 35.081 85.5181 35.081C84.5783 35.081 83.8553 34.7201 83.4216 34.0705C82.9155 33.3486 82.6986 32.4824 82.6986 31.3997C82.6986 29.8838 83.0601 28.7289 83.8553 28.0793C84.3614 27.6462 84.8674 27.5018 85.5181 27.5018C86.4579 27.5018 87.1809 27.8627 87.6146 28.5845C88.0484 29.3064 88.2653 30.2448 88.2653 31.2553C88.3376 32.4824 88.0484 33.4208 87.6146 34.0705Z" fill="#2D3277"/>
<path d="M99.7597 24.6133C99.6874 24.6133 99.6874 24.6133 99.6151 24.6133C92.3133 24.6133 92.7471 31.1098 92.7471 31.1098V37.6062H96.0726V31.5429C96.0726 30.5323 96.2172 29.8105 96.4341 29.3052C96.8679 28.439 97.8077 28.0059 99.109 28.0059C99.1813 28.0059 99.3259 28.0059 99.4705 28.0059C99.6151 28.0059 99.8319 28.0059 100.049 28.0781V24.6855C99.9042 24.6133 99.8319 24.6133 99.7597 24.6133Z" fill="#2D3277"/>
<path d="M67.9531 22.9539C67.9531 25.4803 67.9531 37.5349 67.9531 37.5349H71.0618V20.5718C71.1341 20.5718 67.9531 20.4275 67.9531 22.9539Z" fill="#2D3277"/>
<path d="M76.9896 20.5H73.6641V23.8204H76.9896V20.5Z" fill="#2D3277"/>
<path d="M76.9896 24.9766H73.6641V37.5364H76.9896V24.9766Z" fill="#2D3277"/>
</svg>
