<svg width="211" height="64" viewBox="0 0 211 64" fill="none" xmlns="http://www.w3.org/2000/svg">
<path d="M22.7268 4.54509C19.1692 5.53331 15.8093 7.11443 12.8447 9.28848C9.68245 11.6602 7.31075 14.6248 5.33433 17.787C3.35793 21.1469 2.17209 24.7044 1.77681 28.4597C1.38153 32.0173 1.57917 35.7724 2.56737 39.33C3.55558 42.8875 5.13671 46.2473 7.31075 49.2118C9.68245 52.1767 12.4494 54.7459 15.8093 56.7223C17.7857 57.908 19.9598 58.6988 22.3315 59.4893C24.5055 60.0821 26.6795 60.4775 28.8536 60.4775C29.0511 60.4775 29.0511 60.4775 29.2489 60.4775L60.081 60.675C60.6737 60.675 61.2667 60.2799 61.4642 59.8845C61.8596 59.2915 61.8596 58.6988 61.4642 58.3034L55.7327 46.0497C55.5351 45.4567 54.9421 45.0616 54.1516 45.0616L29.2489 44.4686C29.2489 44.4686 29.2489 44.4686 29.0511 44.4686C27.0749 44.271 25.296 43.6781 23.7149 42.8875C20.948 41.3062 18.7739 38.5394 17.9834 35.377C17.1928 32.2149 17.5881 28.8549 19.1692 25.8903C22.5291 19.9611 30.2371 17.9847 36.1662 21.3446C38.7357 22.9257 40.7121 25.2973 41.7003 28.0643C42.6884 30.8314 42.4908 33.9935 41.3049 36.9581C41.1073 37.3535 41.1073 37.9465 41.3049 38.3416C41.5027 38.737 41.8978 39.1322 42.2932 39.33L53.954 44.271C54.3494 44.4686 54.9421 44.4686 55.3375 44.271C55.7327 44.0732 56.128 43.6781 56.3256 43.2827C59.0926 36.9581 59.2902 29.6454 57.1162 23.1233C54.9421 16.6012 50.3964 11.0673 44.2697 7.50973C40.9097 5.53331 37.3522 4.34747 33.597 3.95218C32.4111 3.75453 31.2252 3.75453 30.0395 3.75453C27.6679 3.55691 25.0984 3.95218 22.7268 4.54509Z" fill="white"/>
<path d="M89.2304 40.7131L91.9974 43.8755L89.2304 46.2472L86.4634 43.085C84.6847 44.0731 82.5107 44.8636 80.1388 44.8636C73.4191 44.8636 67.6875 39.3296 67.6875 32.4123C67.6875 25.4948 73.2215 19.9609 80.1388 19.9609C87.0563 19.9609 92.5901 25.4948 92.5901 32.4123C92.3925 35.5745 91.2068 38.5391 89.2304 40.7131ZM83.6964 40.1204L80.7318 36.7604L83.4988 34.3888L86.4634 37.7486C87.6493 36.365 88.242 34.3888 88.242 32.4123C88.242 27.4713 84.4869 23.9137 79.7437 23.9137C75.0002 23.9137 71.245 27.4713 71.245 32.4123C71.245 37.3534 75.0002 40.9109 79.7437 40.9109C81.3247 40.9109 82.5107 40.7131 83.6964 40.1204Z" fill="white"/>
<path d="M108.604 44.2716L99.117 33.006V44.2716H95.1641V20.5547H99.117V31.2273L108.208 20.5547H112.952L103.267 32.0178L113.347 44.2716H108.604Z" fill="white"/>
<path d="M112.156 37.1533H116.109C116.109 39.7227 117.888 41.1062 120.852 41.1062C123.422 41.1062 125.003 39.9203 125.003 38.1416C125.003 36.1652 122.829 35.3746 120.457 34.3865C116.9 33.2006 112.749 31.8171 112.749 26.876C112.749 22.5279 116.504 20.1562 120.259 20.1562C124.41 20.1562 128.165 22.5279 128.165 27.6666H124.212C124.212 25.2949 122.631 24.109 120.259 24.109C118.085 24.109 116.702 25.2949 116.702 26.876C116.702 29.0501 118.678 29.8406 121.05 30.8289C124.608 32.2125 128.956 33.3981 128.956 38.3392C128.956 42.6873 125.201 45.0589 120.852 45.0589C116.109 44.8613 112.156 42.2919 112.156 37.1533Z" fill="white"/>
<path d="M139.431 30.8299H136.269V44.2693H132.514V30.8299H129.352V27.2723H132.514V21.7383H136.269V27.2723H139.431V30.8299Z" fill="white"/>
<path d="M155.045 27.2734V44.2704H151.29V42.2942C150.302 44.0728 148.523 44.6658 146.349 44.6658C143.187 44.6658 140.617 42.2942 140.617 38.1437V27.2734H144.372V37.9461C144.372 40.1201 145.756 41.3058 147.535 41.3058C149.511 41.3058 151.29 40.1201 151.29 37.1553V27.2734H155.045Z" fill="white"/>
<path d="M175.605 20.5547V44.4691H171.85V41.8999C170.466 43.6786 168.49 44.8645 165.92 44.8645C161.375 44.8645 157.422 40.9116 157.422 35.9708C157.422 31.0297 161.177 27.0768 165.92 27.0768C168.687 27.0768 170.664 28.0651 171.85 30.0414V20.7523H175.605V20.5547ZM172.047 35.773C172.047 32.6108 169.676 30.2392 166.711 30.2392C163.549 30.2392 161.375 32.6108 161.375 35.773C161.375 38.9354 163.746 41.307 166.711 41.307C169.676 41.307 172.047 38.9354 172.047 35.773Z" fill="white"/>
<path d="M179.156 20.5547H182.911V24.7052H179.156V20.5547ZM179.156 27.2744H182.911V44.2716H179.156V27.2744Z" fill="white"/>
<path d="M185.289 35.7729C185.289 30.6343 189.242 26.8789 194.381 26.8789C199.322 26.8789 203.472 30.8318 203.472 35.7729C203.472 40.7139 199.519 44.6667 194.381 44.6667C189.242 44.8642 185.289 40.9115 185.289 35.7729ZM199.519 35.7729C199.519 32.6105 197.148 30.4365 194.183 30.4365C191.218 30.4365 188.847 32.8083 188.847 35.7729C188.847 38.9351 191.218 41.1091 194.183 41.1091C197.148 41.1091 199.519 38.9351 199.519 35.7729Z" fill="white"/>
<path d="M203.477 29.8431C203.477 29.448 203.477 29.2502 203.674 29.0526C203.674 28.855 203.872 28.6572 204.07 28.4596C204.267 28.2621 204.465 28.2621 204.662 28.0645C204.86 27.8667 205.058 28.0645 205.255 28.0645C205.453 28.0645 205.651 28.0645 205.848 28.0645C206.046 28.0645 206.244 28.2621 206.441 28.4596C206.639 28.6572 206.837 28.855 206.837 29.0526C206.837 29.2502 207.034 29.448 207.034 29.8431C207.034 30.2385 207.034 30.4361 206.837 30.6337C206.837 30.8313 206.639 31.0291 206.441 31.2266C206.244 31.4242 206.046 31.4242 205.848 31.622C205.651 31.622 205.453 31.8196 205.255 31.8196C205.058 31.8196 204.86 31.8196 204.662 31.622C204.465 31.622 204.267 31.4242 204.07 31.2266C203.872 31.0291 203.674 30.8313 203.674 30.6337C203.477 30.4361 203.477 30.0407 203.477 29.8431ZM206.441 29.8431C206.441 29.6456 206.441 29.448 206.244 29.2502C206.244 29.0526 206.046 28.855 205.848 28.855C205.651 28.6572 205.651 28.6572 205.453 28.6572C205.255 28.6572 205.058 28.6572 205.058 28.6572H204.662C204.465 28.6572 204.267 28.855 204.267 28.855C204.07 29.0526 204.07 29.0526 203.872 29.2502C203.872 29.448 203.674 29.6456 203.674 29.8431C203.674 30.0407 203.674 30.2385 203.872 30.4361C203.872 30.6337 204.07 30.8313 204.267 30.8313C204.465 31.0291 204.465 31.0291 204.662 31.0291C204.86 31.0291 205.058 31.0291 205.058 31.0291H205.453C205.651 31.0291 205.848 30.8313 205.848 30.8313C206.046 30.6337 206.046 30.6337 206.244 30.4361C206.441 30.2385 206.441 30.0407 206.441 29.8431ZM205.058 30.0407V30.6337H204.662V28.855H204.86C204.86 28.855 205.058 28.855 205.255 28.855C205.651 28.855 205.848 28.855 206.046 29.0526C206.244 29.0526 206.244 29.2502 206.244 29.448C206.244 29.6456 206.244 29.8431 205.848 30.0407C205.848 30.0407 206.046 30.2385 206.046 30.4361C206.046 30.6337 206.244 30.6337 206.244 30.8313H205.848C205.848 30.6337 205.651 30.6337 205.651 30.4361C205.651 30.4361 205.651 30.2385 205.453 30.2385L205.058 30.0407ZM205.058 29.8431C205.255 29.8431 205.453 29.8431 205.453 29.8431C205.453 29.8431 205.453 29.8431 205.453 29.6456C205.453 29.6456 205.453 29.448 205.255 29.448H205.058V29.8431Z" fill="white"/>
</svg>
