<svg width="101" height="188" viewBox="0 0 101 188" fill="none" xmlns="http://www.w3.org/2000/svg">
<g clip-path="url(#clip0_1_18)">
<path d="M99.4019 3.1962C98.5193 3.1962 97.8038 2.48071 97.8038 1.5981C97.8038 0.715494 98.5193 0 99.4019 0C100.285 0 101 0.715494 101 1.5981C101 2.48071 100.285 3.1962 99.4019 3.1962Z" fill="white"/>
<path d="M88.5348 3.1962C87.6522 3.1962 86.9367 2.48071 86.9367 1.5981C86.9367 0.715494 87.6522 0 88.5348 0C89.4174 0 90.1329 0.715494 90.1329 1.5981C90.1329 2.48071 89.4174 3.1962 88.5348 3.1962Z" fill="white"/>
<path d="M88.5348 3.1962C87.6522 3.1962 86.9367 2.48071 86.9367 1.5981C86.9367 0.715494 87.6522 0 88.5348 0C89.4174 0 90.1329 0.715494 90.1329 1.5981C90.1329 2.48071 89.4174 3.1962 88.5348 3.1962Z" fill="white"/>
<path d="M88.5348 3.1962C87.6522 3.1962 86.9367 2.48071 86.9367 1.5981C86.9367 0.715494 87.6522 0 88.5348 0C89.4174 0 90.1329 0.715494 90.1329 1.5981C90.1329 2.48071 89.4174 3.1962 88.5348 3.1962Z" fill="white"/>
<path d="M88.5348 3.1962C87.6522 3.1962 86.9367 2.48071 86.9367 1.5981C86.9367 0.715494 87.6522 0 88.5348 0C89.4174 0 90.1329 0.715494 90.1329 1.5981C90.1329 2.48071 89.4174 3.1962 88.5348 3.1962Z" fill="white"/>
<path d="M88.5348 3.1962C87.6522 3.1962 86.9367 2.48071 86.9367 1.5981C86.9367 0.715494 87.6522 0 88.5348 0C89.4174 0 90.1329 0.715494 90.1329 1.5981C90.1329 2.48071 89.4174 3.1962 88.5348 3.1962Z" fill="white"/>
<path d="M88.5348 3.1962C87.6522 3.1962 86.9367 2.48071 86.9367 1.5981C86.9367 0.715494 87.6522 0 88.5348 0C89.4174 0 90.1329 0.715494 90.1329 1.5981C90.1329 2.48071 89.4174 3.1962 88.5348 3.1962Z" fill="white"/>
<path d="M88.5348 3.1962C87.6522 3.1962 86.9367 2.48071 86.9367 1.5981C86.9367 0.715494 87.6522 0 88.5348 0C89.4174 0 90.1329 0.715494 90.1329 1.5981C90.1329 2.48071 89.4174 3.1962 88.5348 3.1962Z" fill="white"/>
<path d="M88.5348 3.1962C87.6522 3.1962 86.9367 2.48071 86.9367 1.5981C86.9367 0.715494 87.6522 0 88.5348 0C89.4174 0 90.1329 0.715494 90.1329 1.5981C90.1329 2.48071 89.4174 3.1962 88.5348 3.1962Z" fill="white"/>
<path d="M88.5348 3.1962C87.6522 3.1962 86.9367 2.48071 86.9367 1.5981C86.9367 0.715494 87.6522 0 88.5348 0C89.4174 0 90.1329 0.715494 90.1329 1.5981C90.1329 2.48071 89.4174 3.1962 88.5348 3.1962Z" fill="white"/>
<path d="M88.5348 3.1962C87.6522 3.1962 86.9367 2.48071 86.9367 1.5981C86.9367 0.715494 87.6522 0 88.5348 0C89.4174 0 90.1329 0.715494 90.1329 1.5981C90.1329 2.48071 89.4174 3.1962 88.5348 3.1962Z" fill="white"/>
<path d="M88.5348 3.1962C87.6522 3.1962 86.9367 2.48071 86.9367 1.5981C86.9367 0.715494 87.6522 0 88.5348 0C89.4174 0 90.1329 0.715494 90.1329 1.5981C90.1329 2.48071 89.4174 3.1962 88.5348 3.1962Z" fill="white"/>
<path d="M88.5348 3.1962C87.6522 3.1962 86.9367 2.48071 86.9367 1.5981C86.9367 0.715494 87.6522 0 88.5348 0C89.4174 0 90.1329 0.715494 90.1329 1.5981C90.1329 2.48071 89.4174 3.1962 88.5348 3.1962Z" fill="white"/>
<path d="M88.5348 3.1962C87.6522 3.1962 86.9367 2.48071 86.9367 1.5981C86.9367 0.715494 87.6522 0 88.5348 0C89.4174 0 90.1329 0.715494 90.1329 1.5981C90.1329 2.48071 89.4174 3.1962 88.5348 3.1962Z" fill="white"/>
<path d="M88.5348 3.1962C87.6522 3.1962 86.9367 2.48071 86.9367 1.5981C86.9367 0.715494 87.6522 0 88.5348 0C89.4174 0 90.1329 0.715494 90.1329 1.5981C90.1329 2.48071 89.4174 3.1962 88.5348 3.1962Z" fill="white"/>
<path d="M88.5348 3.1962C87.6522 3.1962 86.9367 2.48071 86.9367 1.5981C86.9367 0.715494 87.6522 0 88.5348 0C89.4174 0 90.1329 0.715494 90.1329 1.5981C90.1329 2.48071 89.4174 3.1962 88.5348 3.1962Z" fill="white"/>
<path d="M99.4019 14.0634C98.5193 14.0634 97.8038 13.3479 97.8038 12.4653C97.8038 11.5827 98.5193 10.8672 99.4019 10.8672C100.285 10.8672 101 11.5827 101 12.4653C101 13.3479 100.285 14.0634 99.4019 14.0634Z" fill="white"/>
<path d="M88.5348 14.0634C87.6522 14.0634 86.9367 13.3479 86.9367 12.4653C86.9367 11.5827 87.6522 10.8672 88.5348 10.8672C89.4174 10.8672 90.1329 11.5827 90.1329 12.4653C90.1329 13.3479 89.4174 14.0634 88.5348 14.0634Z" fill="white"/>
<path d="M88.5348 14.0634C87.6522 14.0634 86.9367 13.3479 86.9367 12.4653C86.9367 11.5827 87.6522 10.8672 88.5348 10.8672C89.4174 10.8672 90.1329 11.5827 90.1329 12.4653C90.1329 13.3479 89.4174 14.0634 88.5348 14.0634Z" fill="white"/>
<path d="M88.5348 14.0634C87.6522 14.0634 86.9367 13.3479 86.9367 12.4653C86.9367 11.5827 87.6522 10.8672 88.5348 10.8672C89.4174 10.8672 90.1329 11.5827 90.1329 12.4653C90.1329 13.3479 89.4174 14.0634 88.5348 14.0634Z" fill="white"/>
<path d="M88.5348 14.0634C87.6522 14.0634 86.9367 13.3479 86.9367 12.4653C86.9367 11.5827 87.6522 10.8672 88.5348 10.8672C89.4174 10.8672 90.1329 11.5827 90.1329 12.4653C90.1329 13.3479 89.4174 14.0634 88.5348 14.0634Z" fill="white"/>
<path d="M88.5348 14.0634C87.6522 14.0634 86.9367 13.3479 86.9367 12.4653C86.9367 11.5827 87.6522 10.8672 88.5348 10.8672C89.4174 10.8672 90.1329 11.5827 90.1329 12.4653C90.1329 13.3479 89.4174 14.0634 88.5348 14.0634Z" fill="white"/>
<path d="M88.5348 14.0634C87.6522 14.0634 86.9367 13.3479 86.9367 12.4653C86.9367 11.5827 87.6522 10.8672 88.5348 10.8672C89.4174 10.8672 90.1329 11.5827 90.1329 12.4653C90.1329 13.3479 89.4174 14.0634 88.5348 14.0634Z" fill="white"/>
<path d="M88.5348 14.0634C87.6522 14.0634 86.9367 13.3479 86.9367 12.4653C86.9367 11.5827 87.6522 10.8672 88.5348 10.8672C89.4174 10.8672 90.1329 11.5827 90.1329 12.4653C90.1329 13.3479 89.4174 14.0634 88.5348 14.0634Z" fill="white"/>
<path d="M88.5348 14.0634C87.6522 14.0634 86.9367 13.3479 86.9367 12.4653C86.9367 11.5827 87.6522 10.8672 88.5348 10.8672C89.4174 10.8672 90.1329 11.5827 90.1329 12.4653C90.1329 13.3479 89.4174 14.0634 88.5348 14.0634Z" fill="white"/>
<path d="M88.5348 14.0634C87.6522 14.0634 86.9367 13.3479 86.9367 12.4653C86.9367 11.5827 87.6522 10.8672 88.5348 10.8672C89.4174 10.8672 90.1329 11.5827 90.1329 12.4653C90.1329 13.3479 89.4174 14.0634 88.5348 14.0634Z" fill="white"/>
<path d="M88.5348 14.0634C87.6522 14.0634 86.9367 13.3479 86.9367 12.4653C86.9367 11.5827 87.6522 10.8672 88.5348 10.8672C89.4174 10.8672 90.1329 11.5827 90.1329 12.4653C90.1329 13.3479 89.4174 14.0634 88.5348 14.0634Z" fill="white"/>
<path d="M88.5348 14.0634C87.6522 14.0634 86.9367 13.3479 86.9367 12.4653C86.9367 11.5827 87.6522 10.8672 88.5348 10.8672C89.4174 10.8672 90.1329 11.5827 90.1329 12.4653C90.1329 13.3479 89.4174 14.0634 88.5348 14.0634Z" fill="white"/>
<path d="M88.5348 14.0634C87.6522 14.0634 86.9367 13.3479 86.9367 12.4653C86.9367 11.5827 87.6522 10.8672 88.5348 10.8672C89.4174 10.8672 90.1329 11.5827 90.1329 12.4653C90.1329 13.3479 89.4174 14.0634 88.5348 14.0634Z" fill="white"/>
<path d="M88.5348 14.0634C87.6522 14.0634 86.9367 13.3479 86.9367 12.4653C86.9367 11.5827 87.6522 10.8672 88.5348 10.8672C89.4174 10.8672 90.1329 11.5827 90.1329 12.4653C90.1329 13.3479 89.4174 14.0634 88.5348 14.0634Z" fill="white"/>
<path d="M88.5348 14.0634C87.6522 14.0634 86.9367 13.3479 86.9367 12.4653C86.9367 11.5827 87.6522 10.8672 88.5348 10.8672C89.4174 10.8672 90.1329 11.5827 90.1329 12.4653C90.1329 13.3479 89.4174 14.0634 88.5348 14.0634Z" fill="white"/>
<path d="M88.5348 14.0634C87.6522 14.0634 86.9367 13.3479 86.9367 12.4653C86.9367 11.5827 87.6522 10.8672 88.5348 10.8672C89.4174 10.8672 90.1329 11.5827 90.1329 12.4653C90.1329 13.3479 89.4174 14.0634 88.5348 14.0634Z" fill="white"/>
<path d="M99.4019 24.9306C98.5193 24.9306 97.8038 24.2151 97.8038 23.3325C97.8038 22.4499 98.5193 21.7344 99.4019 21.7344C100.285 21.7344 101 22.4499 101 23.3325C101 24.2151 100.285 24.9306 99.4019 24.9306Z" fill="white"/>
<path d="M88.5348 24.9306C87.6522 24.9306 86.9367 24.2151 86.9367 23.3325C86.9367 22.4499 87.6522 21.7344 88.5348 21.7344C89.4174 21.7344 90.1329 22.4499 90.1329 23.3325C90.1329 24.2151 89.4174 24.9306 88.5348 24.9306Z" fill="white"/>
<path d="M88.5348 24.9306C87.6522 24.9306 86.9367 24.2151 86.9367 23.3325C86.9367 22.4499 87.6522 21.7344 88.5348 21.7344C89.4174 21.7344 90.1329 22.4499 90.1329 23.3325C90.1329 24.2151 89.4174 24.9306 88.5348 24.9306Z" fill="white"/>
<path d="M88.5348 24.9306C87.6522 24.9306 86.9367 24.2151 86.9367 23.3325C86.9367 22.4499 87.6522 21.7344 88.5348 21.7344C89.4174 21.7344 90.1329 22.4499 90.1329 23.3325C90.1329 24.2151 89.4174 24.9306 88.5348 24.9306Z" fill="white"/>
<path d="M88.5348 24.9306C87.6522 24.9306 86.9367 24.2151 86.9367 23.3325C86.9367 22.4499 87.6522 21.7344 88.5348 21.7344C89.4174 21.7344 90.1329 22.4499 90.1329 23.3325C90.1329 24.2151 89.4174 24.9306 88.5348 24.9306Z" fill="white"/>
<path d="M88.5348 24.9306C87.6522 24.9306 86.9367 24.2151 86.9367 23.3325C86.9367 22.4499 87.6522 21.7344 88.5348 21.7344C89.4174 21.7344 90.1329 22.4499 90.1329 23.3325C90.1329 24.2151 89.4174 24.9306 88.5348 24.9306Z" fill="white"/>
<path d="M88.5348 24.9306C87.6522 24.9306 86.9367 24.2151 86.9367 23.3325C86.9367 22.4499 87.6522 21.7344 88.5348 21.7344C89.4174 21.7344 90.1329 22.4499 90.1329 23.3325C90.1329 24.2151 89.4174 24.9306 88.5348 24.9306Z" fill="white"/>
<path d="M88.5348 24.9306C87.6522 24.9306 86.9367 24.2151 86.9367 23.3325C86.9367 22.4499 87.6522 21.7344 88.5348 21.7344C89.4174 21.7344 90.1329 22.4499 90.1329 23.3325C90.1329 24.2151 89.4174 24.9306 88.5348 24.9306Z" fill="white"/>
<path d="M88.5348 24.9306C87.6522 24.9306 86.9367 24.2151 86.9367 23.3325C86.9367 22.4499 87.6522 21.7344 88.5348 21.7344C89.4174 21.7344 90.1329 22.4499 90.1329 23.3325C90.1329 24.2151 89.4174 24.9306 88.5348 24.9306Z" fill="white"/>
<path d="M88.5348 24.9306C87.6522 24.9306 86.9367 24.2151 86.9367 23.3325C86.9367 22.4499 87.6522 21.7344 88.5348 21.7344C89.4174 21.7344 90.1329 22.4499 90.1329 23.3325C90.1329 24.2151 89.4174 24.9306 88.5348 24.9306Z" fill="white"/>
<path d="M88.5348 24.9306C87.6522 24.9306 86.9367 24.2151 86.9367 23.3325C86.9367 22.4499 87.6522 21.7344 88.5348 21.7344C89.4174 21.7344 90.1329 22.4499 90.1329 23.3325C90.1329 24.2151 89.4174 24.9306 88.5348 24.9306Z" fill="white"/>
<path d="M88.5348 24.9306C87.6522 24.9306 86.9367 24.2151 86.9367 23.3325C86.9367 22.4499 87.6522 21.7344 88.5348 21.7344C89.4174 21.7344 90.1329 22.4499 90.1329 23.3325C90.1329 24.2151 89.4174 24.9306 88.5348 24.9306Z" fill="white"/>
<path d="M88.5348 24.9306C87.6522 24.9306 86.9367 24.2151 86.9367 23.3325C86.9367 22.4499 87.6522 21.7344 88.5348 21.7344C89.4174 21.7344 90.1329 22.4499 90.1329 23.3325C90.1329 24.2151 89.4174 24.9306 88.5348 24.9306Z" fill="white"/>
<path d="M88.5348 24.9306C87.6522 24.9306 86.9367 24.2151 86.9367 23.3325C86.9367 22.4499 87.6522 21.7344 88.5348 21.7344C89.4174 21.7344 90.1329 22.4499 90.1329 23.3325C90.1329 24.2151 89.4174 24.9306 88.5348 24.9306Z" fill="white"/>
<path d="M88.5348 24.9306C87.6522 24.9306 86.9367 24.2151 86.9367 23.3325C86.9367 22.4499 87.6522 21.7344 88.5348 21.7344C89.4174 21.7344 90.1329 22.4499 90.1329 23.3325C90.1329 24.2151 89.4174 24.9306 88.5348 24.9306Z" fill="white"/>
<path d="M88.5348 24.9306C87.6522 24.9306 86.9367 24.2151 86.9367 23.3325C86.9367 22.4499 87.6522 21.7344 88.5348 21.7344C89.4174 21.7344 90.1329 22.4499 90.1329 23.3325C90.1329 24.2151 89.4174 24.9306 88.5348 24.9306Z" fill="white"/>
<path d="M99.4019 35.7978C98.5193 35.7978 97.8038 35.0823 97.8038 34.1997C97.8038 33.3171 98.5193 32.6016 99.4019 32.6016C100.285 32.6016 101 33.3171 101 34.1997C101 35.0823 100.285 35.7978 99.4019 35.7978Z" fill="white"/>
<path d="M88.5347 35.7978C87.6521 35.7978 86.9366 35.0823 86.9366 34.1997C86.9366 33.3171 87.6521 32.6016 88.5347 32.6016C89.4173 32.6016 90.1328 33.3171 90.1328 34.1997C90.1328 35.0823 89.4173 35.7978 88.5347 35.7978Z" fill="white"/>
<path d="M88.5347 35.7978C87.6521 35.7978 86.9366 35.0823 86.9366 34.1997C86.9366 33.3171 87.6521 32.6016 88.5347 32.6016C89.4173 32.6016 90.1328 33.3171 90.1328 34.1997C90.1328 35.0823 89.4173 35.7978 88.5347 35.7978Z" fill="white"/>
<path d="M88.5347 35.7978C87.6521 35.7978 86.9366 35.0823 86.9366 34.1997C86.9366 33.3171 87.6521 32.6016 88.5347 32.6016C89.4173 32.6016 90.1328 33.3171 90.1328 34.1997C90.1328 35.0823 89.4173 35.7978 88.5347 35.7978Z" fill="white"/>
<path d="M88.5347 35.7978C87.6521 35.7978 86.9366 35.0823 86.9366 34.1997C86.9366 33.3171 87.6521 32.6016 88.5347 32.6016C89.4173 32.6016 90.1328 33.3171 90.1328 34.1997C90.1328 35.0823 89.4173 35.7978 88.5347 35.7978Z" fill="white"/>
<path d="M88.5347 35.7978C87.6521 35.7978 86.9366 35.0823 86.9366 34.1997C86.9366 33.3171 87.6521 32.6016 88.5347 32.6016C89.4173 32.6016 90.1328 33.3171 90.1328 34.1997C90.1328 35.0823 89.4173 35.7978 88.5347 35.7978Z" fill="white"/>
<path d="M88.5347 35.7978C87.6521 35.7978 86.9366 35.0823 86.9366 34.1997C86.9366 33.3171 87.6521 32.6016 88.5347 32.6016C89.4173 32.6016 90.1328 33.3171 90.1328 34.1997C90.1328 35.0823 89.4173 35.7978 88.5347 35.7978Z" fill="white"/>
<path d="M88.5347 35.7978C87.6521 35.7978 86.9366 35.0823 86.9366 34.1997C86.9366 33.3171 87.6521 32.6016 88.5347 32.6016C89.4173 32.6016 90.1328 33.3171 90.1328 34.1997C90.1328 35.0823 89.4173 35.7978 88.5347 35.7978Z" fill="white"/>
<path d="M88.5347 35.7978C87.6521 35.7978 86.9366 35.0823 86.9366 34.1997C86.9366 33.3171 87.6521 32.6016 88.5347 32.6016C89.4173 32.6016 90.1328 33.3171 90.1328 34.1997C90.1328 35.0823 89.4173 35.7978 88.5347 35.7978Z" fill="white"/>
<path d="M88.5347 35.7978C87.6521 35.7978 86.9366 35.0823 86.9366 34.1997C86.9366 33.3171 87.6521 32.6016 88.5347 32.6016C89.4173 32.6016 90.1328 33.3171 90.1328 34.1997C90.1328 35.0823 89.4173 35.7978 88.5347 35.7978Z" fill="white"/>
<path d="M88.5347 35.7978C87.6521 35.7978 86.9366 35.0823 86.9366 34.1997C86.9366 33.3171 87.6521 32.6016 88.5347 32.6016C89.4173 32.6016 90.1328 33.3171 90.1328 34.1997C90.1328 35.0823 89.4173 35.7978 88.5347 35.7978Z" fill="white"/>
<path d="M88.5347 35.7978C87.6521 35.7978 86.9366 35.0823 86.9366 34.1997C86.9366 33.3171 87.6521 32.6016 88.5347 32.6016C89.4173 32.6016 90.1328 33.3171 90.1328 34.1997C90.1328 35.0823 89.4173 35.7978 88.5347 35.7978Z" fill="white"/>
<path d="M88.5347 35.7978C87.6521 35.7978 86.9366 35.0823 86.9366 34.1997C86.9366 33.3171 87.6521 32.6016 88.5347 32.6016C89.4173 32.6016 90.1328 33.3171 90.1328 34.1997C90.1328 35.0823 89.4173 35.7978 88.5347 35.7978Z" fill="white"/>
<path d="M88.5347 35.7978C87.6521 35.7978 86.9366 35.0823 86.9366 34.1997C86.9366 33.3171 87.6521 32.6016 88.5347 32.6016C89.4173 32.6016 90.1328 33.3171 90.1328 34.1997C90.1328 35.0823 89.4173 35.7978 88.5347 35.7978Z" fill="white"/>
<path d="M88.5347 35.7978C87.6521 35.7978 86.9366 35.0823 86.9366 34.1997C86.9366 33.3171 87.6521 32.6016 88.5347 32.6016C89.4173 32.6016 90.1328 33.3171 90.1328 34.1997C90.1328 35.0823 89.4173 35.7978 88.5347 35.7978Z" fill="white"/>
<path d="M88.5347 35.7978C87.6521 35.7978 86.9366 35.0823 86.9366 34.1997C86.9366 33.3171 87.6521 32.6016 88.5347 32.6016C89.4173 32.6016 90.1328 33.3171 90.1328 34.1997C90.1328 35.0823 89.4173 35.7978 88.5347 35.7978Z" fill="white"/>
<path d="M99.4019 46.665C98.5193 46.665 97.8038 45.9495 97.8038 45.0669C97.8038 44.1843 98.5193 43.4688 99.4019 43.4688C100.285 43.4688 101 44.1843 101 45.0669C101 45.9495 100.285 46.665 99.4019 46.665Z" fill="white"/>
<path d="M88.5347 46.665C87.6521 46.665 86.9366 45.9495 86.9366 45.0669C86.9366 44.1843 87.6521 43.4688 88.5347 43.4688C89.4173 43.4688 90.1328 44.1843 90.1328 45.0669C90.1328 45.9495 89.4173 46.665 88.5347 46.665Z" fill="white"/>
<path d="M88.5347 46.665C87.6521 46.665 86.9366 45.9495 86.9366 45.0669C86.9366 44.1843 87.6521 43.4688 88.5347 43.4688C89.4173 43.4688 90.1328 44.1843 90.1328 45.0669C90.1328 45.9495 89.4173 46.665 88.5347 46.665Z" fill="white"/>
<path d="M88.5347 46.665C87.6521 46.665 86.9366 45.9495 86.9366 45.0669C86.9366 44.1843 87.6521 43.4688 88.5347 43.4688C89.4173 43.4688 90.1328 44.1843 90.1328 45.0669C90.1328 45.9495 89.4173 46.665 88.5347 46.665Z" fill="white"/>
<path d="M88.5347 46.665C87.6521 46.665 86.9366 45.9495 86.9366 45.0669C86.9366 44.1843 87.6521 43.4688 88.5347 43.4688C89.4173 43.4688 90.1328 44.1843 90.1328 45.0669C90.1328 45.9495 89.4173 46.665 88.5347 46.665Z" fill="white"/>
<path d="M88.5347 46.665C87.6521 46.665 86.9366 45.9495 86.9366 45.0669C86.9366 44.1843 87.6521 43.4688 88.5347 43.4688C89.4173 43.4688 90.1328 44.1843 90.1328 45.0669C90.1328 45.9495 89.4173 46.665 88.5347 46.665Z" fill="white"/>
<path d="M88.5347 46.665C87.6521 46.665 86.9366 45.9495 86.9366 45.0669C86.9366 44.1843 87.6521 43.4688 88.5347 43.4688C89.4173 43.4688 90.1328 44.1843 90.1328 45.0669C90.1328 45.9495 89.4173 46.665 88.5347 46.665Z" fill="white"/>
<path d="M88.5347 46.665C87.6521 46.665 86.9366 45.9495 86.9366 45.0669C86.9366 44.1843 87.6521 43.4688 88.5347 43.4688C89.4173 43.4688 90.1328 44.1843 90.1328 45.0669C90.1328 45.9495 89.4173 46.665 88.5347 46.665Z" fill="white"/>
<path d="M88.5347 46.665C87.6521 46.665 86.9366 45.9495 86.9366 45.0669C86.9366 44.1843 87.6521 43.4688 88.5347 43.4688C89.4173 43.4688 90.1328 44.1843 90.1328 45.0669C90.1328 45.9495 89.4173 46.665 88.5347 46.665Z" fill="white"/>
<path d="M88.5347 46.665C87.6521 46.665 86.9366 45.9495 86.9366 45.0669C86.9366 44.1843 87.6521 43.4688 88.5347 43.4688C89.4173 43.4688 90.1328 44.1843 90.1328 45.0669C90.1328 45.9495 89.4173 46.665 88.5347 46.665Z" fill="white"/>
<path d="M88.5347 46.665C87.6521 46.665 86.9366 45.9495 86.9366 45.0669C86.9366 44.1843 87.6521 43.4688 88.5347 43.4688C89.4173 43.4688 90.1328 44.1843 90.1328 45.0669C90.1328 45.9495 89.4173 46.665 88.5347 46.665Z" fill="white"/>
<path d="M88.5347 46.665C87.6521 46.665 86.9366 45.9495 86.9366 45.0669C86.9366 44.1843 87.6521 43.4688 88.5347 43.4688C89.4173 43.4688 90.1328 44.1843 90.1328 45.0669C90.1328 45.9495 89.4173 46.665 88.5347 46.665Z" fill="white"/>
<path d="M88.5347 46.665C87.6521 46.665 86.9366 45.9495 86.9366 45.0669C86.9366 44.1843 87.6521 43.4688 88.5347 43.4688C89.4173 43.4688 90.1328 44.1843 90.1328 45.0669C90.1328 45.9495 89.4173 46.665 88.5347 46.665Z" fill="white"/>
<path d="M88.5347 46.665C87.6521 46.665 86.9366 45.9495 86.9366 45.0669C86.9366 44.1843 87.6521 43.4688 88.5347 43.4688C89.4173 43.4688 90.1328 44.1843 90.1328 45.0669C90.1328 45.9495 89.4173 46.665 88.5347 46.665Z" fill="white"/>
<path d="M88.5347 46.665C87.6521 46.665 86.9366 45.9495 86.9366 45.0669C86.9366 44.1843 87.6521 43.4688 88.5347 43.4688C89.4173 43.4688 90.1328 44.1843 90.1328 45.0669C90.1328 45.9495 89.4173 46.665 88.5347 46.665Z" fill="white"/>
<path d="M88.5347 46.665C87.6521 46.665 86.9366 45.9495 86.9366 45.0669C86.9366 44.1843 87.6521 43.4688 88.5347 43.4688C89.4173 43.4688 90.1328 44.1843 90.1328 45.0669C90.1328 45.9495 89.4173 46.665 88.5347 46.665Z" fill="white"/>
<path d="M99.4019 57.5312C98.5193 57.5312 97.8038 56.8157 97.8038 55.9331C97.8038 55.0505 98.5193 54.335 99.4019 54.335C100.285 54.335 101 55.0505 101 55.9331C101 56.8157 100.285 57.5312 99.4019 57.5312Z" fill="white"/>
<path d="M88.5347 57.5312C87.6521 57.5312 86.9366 56.8157 86.9366 55.9331C86.9366 55.0505 87.6521 54.335 88.5347 54.335C89.4173 54.335 90.1328 55.0505 90.1328 55.9331C90.1328 56.8157 89.4173 57.5312 88.5347 57.5312Z" fill="white"/>
<path d="M88.5347 57.5312C87.6521 57.5312 86.9366 56.8157 86.9366 55.9331C86.9366 55.0505 87.6521 54.335 88.5347 54.335C89.4173 54.335 90.1328 55.0505 90.1328 55.9331C90.1328 56.8157 89.4173 57.5312 88.5347 57.5312Z" fill="white"/>
<path d="M88.5347 57.5312C87.6521 57.5312 86.9366 56.8157 86.9366 55.9331C86.9366 55.0505 87.6521 54.335 88.5347 54.335C89.4173 54.335 90.1328 55.0505 90.1328 55.9331C90.1328 56.8157 89.4173 57.5312 88.5347 57.5312Z" fill="white"/>
<path d="M88.5347 57.5312C87.6521 57.5312 86.9366 56.8157 86.9366 55.9331C86.9366 55.0505 87.6521 54.335 88.5347 54.335C89.4173 54.335 90.1328 55.0505 90.1328 55.9331C90.1328 56.8157 89.4173 57.5312 88.5347 57.5312Z" fill="white"/>
<path d="M88.5347 57.5312C87.6521 57.5312 86.9366 56.8157 86.9366 55.9331C86.9366 55.0505 87.6521 54.335 88.5347 54.335C89.4173 54.335 90.1328 55.0505 90.1328 55.9331C90.1328 56.8157 89.4173 57.5312 88.5347 57.5312Z" fill="white"/>
<path d="M88.5347 57.5312C87.6521 57.5312 86.9366 56.8157 86.9366 55.9331C86.9366 55.0505 87.6521 54.335 88.5347 54.335C89.4173 54.335 90.1328 55.0505 90.1328 55.9331C90.1328 56.8157 89.4173 57.5312 88.5347 57.5312Z" fill="white"/>
<path d="M88.5347 57.5312C87.6521 57.5312 86.9366 56.8157 86.9366 55.9331C86.9366 55.0505 87.6521 54.335 88.5347 54.335C89.4173 54.335 90.1328 55.0505 90.1328 55.9331C90.1328 56.8157 89.4173 57.5312 88.5347 57.5312Z" fill="white"/>
<path d="M88.5347 57.5312C87.6521 57.5312 86.9366 56.8157 86.9366 55.9331C86.9366 55.0505 87.6521 54.335 88.5347 54.335C89.4173 54.335 90.1328 55.0505 90.1328 55.9331C90.1328 56.8157 89.4173 57.5312 88.5347 57.5312Z" fill="white"/>
<path d="M88.5347 57.5312C87.6521 57.5312 86.9366 56.8157 86.9366 55.9331C86.9366 55.0505 87.6521 54.335 88.5347 54.335C89.4173 54.335 90.1328 55.0505 90.1328 55.9331C90.1328 56.8157 89.4173 57.5312 88.5347 57.5312Z" fill="white"/>
<path d="M88.5347 57.5312C87.6521 57.5312 86.9366 56.8157 86.9366 55.9331C86.9366 55.0505 87.6521 54.335 88.5347 54.335C89.4173 54.335 90.1328 55.0505 90.1328 55.9331C90.1328 56.8157 89.4173 57.5312 88.5347 57.5312Z" fill="white"/>
<path d="M88.5347 57.5312C87.6521 57.5312 86.9366 56.8157 86.9366 55.9331C86.9366 55.0505 87.6521 54.335 88.5347 54.335C89.4173 54.335 90.1328 55.0505 90.1328 55.9331C90.1328 56.8157 89.4173 57.5312 88.5347 57.5312Z" fill="white"/>
<path d="M88.5347 57.5312C87.6521 57.5312 86.9366 56.8157 86.9366 55.9331C86.9366 55.0505 87.6521 54.335 88.5347 54.335C89.4173 54.335 90.1328 55.0505 90.1328 55.9331C90.1328 56.8157 89.4173 57.5312 88.5347 57.5312Z" fill="white"/>
<path d="M88.5347 57.5312C87.6521 57.5312 86.9366 56.8157 86.9366 55.9331C86.9366 55.0505 87.6521 54.335 88.5347 54.335C89.4173 54.335 90.1328 55.0505 90.1328 55.9331C90.1328 56.8157 89.4173 57.5312 88.5347 57.5312Z" fill="white"/>
<path d="M88.5347 57.5312C87.6521 57.5312 86.9366 56.8157 86.9366 55.9331C86.9366 55.0505 87.6521 54.335 88.5347 54.335C89.4173 54.335 90.1328 55.0505 90.1328 55.9331C90.1328 56.8157 89.4173 57.5312 88.5347 57.5312Z" fill="white"/>
<path d="M88.5347 57.5312C87.6521 57.5312 86.9366 56.8157 86.9366 55.9331C86.9366 55.0505 87.6521 54.335 88.5347 54.335C89.4173 54.335 90.1328 55.0505 90.1328 55.9331C90.1328 56.8157 89.4173 57.5312 88.5347 57.5312Z" fill="white"/>
<path d="M99.4019 68.3983C98.5193 68.3983 97.8038 67.6828 97.8038 66.8002C97.8038 65.9176 98.5193 65.2021 99.4019 65.2021C100.285 65.2021 101 65.9176 101 66.8002C101 67.6828 100.285 68.3983 99.4019 68.3983Z" fill="white"/>
<path d="M88.5347 68.3983C87.6521 68.3983 86.9366 67.6828 86.9366 66.8002C86.9366 65.9176 87.6521 65.2021 88.5347 65.2021C89.4173 65.2021 90.1328 65.9176 90.1328 66.8002C90.1328 67.6828 89.4173 68.3983 88.5347 68.3983Z" fill="white"/>
<path d="M88.5347 68.3983C87.6521 68.3983 86.9366 67.6828 86.9366 66.8002C86.9366 65.9176 87.6521 65.2021 88.5347 65.2021C89.4173 65.2021 90.1328 65.9176 90.1328 66.8002C90.1328 67.6828 89.4173 68.3983 88.5347 68.3983Z" fill="white"/>
<path d="M88.5347 68.3983C87.6521 68.3983 86.9366 67.6828 86.9366 66.8002C86.9366 65.9176 87.6521 65.2021 88.5347 65.2021C89.4173 65.2021 90.1328 65.9176 90.1328 66.8002C90.1328 67.6828 89.4173 68.3983 88.5347 68.3983Z" fill="white"/>
<path d="M88.5347 68.3983C87.6521 68.3983 86.9366 67.6828 86.9366 66.8002C86.9366 65.9176 87.6521 65.2021 88.5347 65.2021C89.4173 65.2021 90.1328 65.9176 90.1328 66.8002C90.1328 67.6828 89.4173 68.3983 88.5347 68.3983Z" fill="white"/>
<path d="M88.5347 68.3983C87.6521 68.3983 86.9366 67.6828 86.9366 66.8002C86.9366 65.9176 87.6521 65.2021 88.5347 65.2021C89.4173 65.2021 90.1328 65.9176 90.1328 66.8002C90.1328 67.6828 89.4173 68.3983 88.5347 68.3983Z" fill="white"/>
<path d="M88.5347 68.3983C87.6521 68.3983 86.9366 67.6828 86.9366 66.8002C86.9366 65.9176 87.6521 65.2021 88.5347 65.2021C89.4173 65.2021 90.1328 65.9176 90.1328 66.8002C90.1328 67.6828 89.4173 68.3983 88.5347 68.3983Z" fill="white"/>
<path d="M88.5347 68.3983C87.6521 68.3983 86.9366 67.6828 86.9366 66.8002C86.9366 65.9176 87.6521 65.2021 88.5347 65.2021C89.4173 65.2021 90.1328 65.9176 90.1328 66.8002C90.1328 67.6828 89.4173 68.3983 88.5347 68.3983Z" fill="white"/>
<path d="M88.5347 68.3983C87.6521 68.3983 86.9366 67.6828 86.9366 66.8002C86.9366 65.9176 87.6521 65.2021 88.5347 65.2021C89.4173 65.2021 90.1328 65.9176 90.1328 66.8002C90.1328 67.6828 89.4173 68.3983 88.5347 68.3983Z" fill="white"/>
<path d="M88.5347 68.3983C87.6521 68.3983 86.9366 67.6828 86.9366 66.8002C86.9366 65.9176 87.6521 65.2021 88.5347 65.2021C89.4173 65.2021 90.1328 65.9176 90.1328 66.8002C90.1328 67.6828 89.4173 68.3983 88.5347 68.3983Z" fill="white"/>
<path d="M88.5347 68.3983C87.6521 68.3983 86.9366 67.6828 86.9366 66.8002C86.9366 65.9176 87.6521 65.2021 88.5347 65.2021C89.4173 65.2021 90.1328 65.9176 90.1328 66.8002C90.1328 67.6828 89.4173 68.3983 88.5347 68.3983Z" fill="white"/>
<path d="M88.5347 68.3983C87.6521 68.3983 86.9366 67.6828 86.9366 66.8002C86.9366 65.9176 87.6521 65.2021 88.5347 65.2021C89.4173 65.2021 90.1328 65.9176 90.1328 66.8002C90.1328 67.6828 89.4173 68.3983 88.5347 68.3983Z" fill="white"/>
<path d="M88.5347 68.3983C87.6521 68.3983 86.9366 67.6828 86.9366 66.8002C86.9366 65.9176 87.6521 65.2021 88.5347 65.2021C89.4173 65.2021 90.1328 65.9176 90.1328 66.8002C90.1328 67.6828 89.4173 68.3983 88.5347 68.3983Z" fill="white"/>
<path d="M88.5347 68.3983C87.6521 68.3983 86.9366 67.6828 86.9366 66.8002C86.9366 65.9176 87.6521 65.2021 88.5347 65.2021C89.4173 65.2021 90.1328 65.9176 90.1328 66.8002C90.1328 67.6828 89.4173 68.3983 88.5347 68.3983Z" fill="white"/>
<path d="M88.5347 68.3983C87.6521 68.3983 86.9366 67.6828 86.9366 66.8002C86.9366 65.9176 87.6521 65.2021 88.5347 65.2021C89.4173 65.2021 90.1328 65.9176 90.1328 66.8002C90.1328 67.6828 89.4173 68.3983 88.5347 68.3983Z" fill="white"/>
<path d="M88.5347 68.3983C87.6521 68.3983 86.9366 67.6828 86.9366 66.8002C86.9366 65.9176 87.6521 65.2021 88.5347 65.2021C89.4173 65.2021 90.1328 65.9176 90.1328 66.8002C90.1328 67.6828 89.4173 68.3983 88.5347 68.3983Z" fill="white"/>
<path d="M99.4019 79.2655C98.5193 79.2655 97.8038 78.55 97.8038 77.6674C97.8038 76.7848 98.5193 76.0693 99.4019 76.0693C100.285 76.0693 101 76.7848 101 77.6674C101 78.55 100.285 79.2655 99.4019 79.2655Z" fill="white"/>
<path d="M88.5347 79.2655C87.6521 79.2655 86.9366 78.55 86.9366 77.6674C86.9366 76.7848 87.6521 76.0693 88.5347 76.0693C89.4173 76.0693 90.1328 76.7848 90.1328 77.6674C90.1328 78.55 89.4173 79.2655 88.5347 79.2655Z" fill="white"/>
<path d="M88.5347 79.2655C87.6521 79.2655 86.9366 78.55 86.9366 77.6674C86.9366 76.7848 87.6521 76.0693 88.5347 76.0693C89.4173 76.0693 90.1328 76.7848 90.1328 77.6674C90.1328 78.55 89.4173 79.2655 88.5347 79.2655Z" fill="white"/>
<path d="M88.5347 79.2655C87.6521 79.2655 86.9366 78.55 86.9366 77.6674C86.9366 76.7848 87.6521 76.0693 88.5347 76.0693C89.4173 76.0693 90.1328 76.7848 90.1328 77.6674C90.1328 78.55 89.4173 79.2655 88.5347 79.2655Z" fill="white"/>
<path d="M88.5347 79.2655C87.6521 79.2655 86.9366 78.55 86.9366 77.6674C86.9366 76.7848 87.6521 76.0693 88.5347 76.0693C89.4173 76.0693 90.1328 76.7848 90.1328 77.6674C90.1328 78.55 89.4173 79.2655 88.5347 79.2655Z" fill="white"/>
<path d="M88.5347 79.2655C87.6521 79.2655 86.9366 78.55 86.9366 77.6674C86.9366 76.7848 87.6521 76.0693 88.5347 76.0693C89.4173 76.0693 90.1328 76.7848 90.1328 77.6674C90.1328 78.55 89.4173 79.2655 88.5347 79.2655Z" fill="white"/>
<path d="M88.5347 79.2655C87.6521 79.2655 86.9366 78.55 86.9366 77.6674C86.9366 76.7848 87.6521 76.0693 88.5347 76.0693C89.4173 76.0693 90.1328 76.7848 90.1328 77.6674C90.1328 78.55 89.4173 79.2655 88.5347 79.2655Z" fill="white"/>
<path d="M88.5347 79.2655C87.6521 79.2655 86.9366 78.55 86.9366 77.6674C86.9366 76.7848 87.6521 76.0693 88.5347 76.0693C89.4173 76.0693 90.1328 76.7848 90.1328 77.6674C90.1328 78.55 89.4173 79.2655 88.5347 79.2655Z" fill="white"/>
<path d="M88.5347 79.2655C87.6521 79.2655 86.9366 78.55 86.9366 77.6674C86.9366 76.7848 87.6521 76.0693 88.5347 76.0693C89.4173 76.0693 90.1328 76.7848 90.1328 77.6674C90.1328 78.55 89.4173 79.2655 88.5347 79.2655Z" fill="white"/>
<path d="M88.5347 79.2655C87.6521 79.2655 86.9366 78.55 86.9366 77.6674C86.9366 76.7848 87.6521 76.0693 88.5347 76.0693C89.4173 76.0693 90.1328 76.7848 90.1328 77.6674C90.1328 78.55 89.4173 79.2655 88.5347 79.2655Z" fill="white"/>
<path d="M88.5347 79.2655C87.6521 79.2655 86.9366 78.55 86.9366 77.6674C86.9366 76.7848 87.6521 76.0693 88.5347 76.0693C89.4173 76.0693 90.1328 76.7848 90.1328 77.6674C90.1328 78.55 89.4173 79.2655 88.5347 79.2655Z" fill="white"/>
<path d="M88.5347 79.2655C87.6521 79.2655 86.9366 78.55 86.9366 77.6674C86.9366 76.7848 87.6521 76.0693 88.5347 76.0693C89.4173 76.0693 90.1328 76.7848 90.1328 77.6674C90.1328 78.55 89.4173 79.2655 88.5347 79.2655Z" fill="white"/>
<path d="M88.5347 79.2655C87.6521 79.2655 86.9366 78.55 86.9366 77.6674C86.9366 76.7848 87.6521 76.0693 88.5347 76.0693C89.4173 76.0693 90.1328 76.7848 90.1328 77.6674C90.1328 78.55 89.4173 79.2655 88.5347 79.2655Z" fill="white"/>
<path d="M88.5347 79.2655C87.6521 79.2655 86.9366 78.55 86.9366 77.6674C86.9366 76.7848 87.6521 76.0693 88.5347 76.0693C89.4173 76.0693 90.1328 76.7848 90.1328 77.6674C90.1328 78.55 89.4173 79.2655 88.5347 79.2655Z" fill="white"/>
<path d="M88.5347 79.2655C87.6521 79.2655 86.9366 78.55 86.9366 77.6674C86.9366 76.7848 87.6521 76.0693 88.5347 76.0693C89.4173 76.0693 90.1328 76.7848 90.1328 77.6674C90.1328 78.55 89.4173 79.2655 88.5347 79.2655Z" fill="white"/>
<path d="M88.5347 79.2655C87.6521 79.2655 86.9366 78.55 86.9366 77.6674C86.9366 76.7848 87.6521 76.0693 88.5347 76.0693C89.4173 76.0693 90.1328 76.7848 90.1328 77.6674C90.1328 78.55 89.4173 79.2655 88.5347 79.2655Z" fill="white"/>
<path d="M99.4019 90.162C98.5193 90.162 97.8038 89.4465 97.8038 88.5639C97.8038 87.6813 98.5193 86.9658 99.4019 86.9658C100.285 86.9658 101 87.6813 101 88.5639C101 89.4465 100.285 90.162 99.4019 90.162Z" fill="white"/>
<path d="M88.5348 90.162C87.6522 90.162 86.9367 89.4465 86.9367 88.5639C86.9367 87.6813 87.6522 86.9658 88.5348 86.9658C89.4174 86.9658 90.1329 87.6813 90.1329 88.5639C90.1329 89.4465 89.4174 90.162 88.5348 90.162Z" fill="white"/>
<path d="M88.5348 90.162C87.6522 90.162 86.9367 89.4465 86.9367 88.5639C86.9367 87.6813 87.6522 86.9658 88.5348 86.9658C89.4174 86.9658 90.1329 87.6813 90.1329 88.5639C90.1329 89.4465 89.4174 90.162 88.5348 90.162Z" fill="white"/>
<path d="M88.5348 90.162C87.6522 90.162 86.9367 89.4465 86.9367 88.5639C86.9367 87.6813 87.6522 86.9658 88.5348 86.9658C89.4174 86.9658 90.1329 87.6813 90.1329 88.5639C90.1329 89.4465 89.4174 90.162 88.5348 90.162Z" fill="white"/>
<path d="M88.5348 90.162C87.6522 90.162 86.9367 89.4465 86.9367 88.5639C86.9367 87.6813 87.6522 86.9658 88.5348 86.9658C89.4174 86.9658 90.1329 87.6813 90.1329 88.5639C90.1329 89.4465 89.4174 90.162 88.5348 90.162Z" fill="white"/>
<path d="M88.5348 90.162C87.6522 90.162 86.9367 89.4465 86.9367 88.5639C86.9367 87.6813 87.6522 86.9658 88.5348 86.9658C89.4174 86.9658 90.1329 87.6813 90.1329 88.5639C90.1329 89.4465 89.4174 90.162 88.5348 90.162Z" fill="white"/>
<path d="M88.5348 90.162C87.6522 90.162 86.9367 89.4465 86.9367 88.5639C86.9367 87.6813 87.6522 86.9658 88.5348 86.9658C89.4174 86.9658 90.1329 87.6813 90.1329 88.5639C90.1329 89.4465 89.4174 90.162 88.5348 90.162Z" fill="white"/>
<path d="M88.5348 90.162C87.6522 90.162 86.9367 89.4465 86.9367 88.5639C86.9367 87.6813 87.6522 86.9658 88.5348 86.9658C89.4174 86.9658 90.1329 87.6813 90.1329 88.5639C90.1329 89.4465 89.4174 90.162 88.5348 90.162Z" fill="white"/>
<path d="M88.5348 90.162C87.6522 90.162 86.9367 89.4465 86.9367 88.5639C86.9367 87.6813 87.6522 86.9658 88.5348 86.9658C89.4174 86.9658 90.1329 87.6813 90.1329 88.5639C90.1329 89.4465 89.4174 90.162 88.5348 90.162Z" fill="white"/>
<path d="M88.5348 90.162C87.6522 90.162 86.9367 89.4465 86.9367 88.5639C86.9367 87.6813 87.6522 86.9658 88.5348 86.9658C89.4174 86.9658 90.1329 87.6813 90.1329 88.5639C90.1329 89.4465 89.4174 90.162 88.5348 90.162Z" fill="white"/>
<path d="M88.5348 90.162C87.6522 90.162 86.9367 89.4465 86.9367 88.5639C86.9367 87.6813 87.6522 86.9658 88.5348 86.9658C89.4174 86.9658 90.1329 87.6813 90.1329 88.5639C90.1329 89.4465 89.4174 90.162 88.5348 90.162Z" fill="white"/>
<path d="M88.5348 90.162C87.6522 90.162 86.9367 89.4465 86.9367 88.5639C86.9367 87.6813 87.6522 86.9658 88.5348 86.9658C89.4174 86.9658 90.1329 87.6813 90.1329 88.5639C90.1329 89.4465 89.4174 90.162 88.5348 90.162Z" fill="white"/>
<path d="M88.5348 90.162C87.6522 90.162 86.9367 89.4465 86.9367 88.5639C86.9367 87.6813 87.6522 86.9658 88.5348 86.9658C89.4174 86.9658 90.1329 87.6813 90.1329 88.5639C90.1329 89.4465 89.4174 90.162 88.5348 90.162Z" fill="white"/>
<path d="M88.5348 90.162C87.6522 90.162 86.9367 89.4465 86.9367 88.5639C86.9367 87.6813 87.6522 86.9658 88.5348 86.9658C89.4174 86.9658 90.1329 87.6813 90.1329 88.5639C90.1329 89.4465 89.4174 90.162 88.5348 90.162Z" fill="white"/>
<path d="M88.5348 90.162C87.6522 90.162 86.9367 89.4465 86.9367 88.5639C86.9367 87.6813 87.6522 86.9658 88.5348 86.9658C89.4174 86.9658 90.1329 87.6813 90.1329 88.5639C90.1329 89.4465 89.4174 90.162 88.5348 90.162Z" fill="white"/>
<path d="M88.5348 90.162C87.6522 90.162 86.9367 89.4465 86.9367 88.5639C86.9367 87.6813 87.6522 86.9658 88.5348 86.9658C89.4174 86.9658 90.1329 87.6813 90.1329 88.5639C90.1329 89.4465 89.4174 90.162 88.5348 90.162Z" fill="white"/>
<path d="M99.4019 101.029C98.5193 101.029 97.8038 100.314 97.8038 99.4311C97.8038 98.5485 98.5193 97.833 99.4019 97.833C100.285 97.833 101 98.5485 101 99.4311C101 100.314 100.285 101.029 99.4019 101.029Z" fill="white"/>
<path d="M88.5348 101.029C87.6522 101.029 86.9367 100.314 86.9367 99.4311C86.9367 98.5485 87.6522 97.833 88.5348 97.833C89.4174 97.833 90.1329 98.5485 90.1329 99.4311C90.1329 100.314 89.4174 101.029 88.5348 101.029Z" fill="white"/>
<path d="M88.5348 101.029C87.6522 101.029 86.9367 100.314 86.9367 99.4311C86.9367 98.5485 87.6522 97.833 88.5348 97.833C89.4174 97.833 90.1329 98.5485 90.1329 99.4311C90.1329 100.314 89.4174 101.029 88.5348 101.029Z" fill="white"/>
<path d="M88.5348 101.029C87.6522 101.029 86.9367 100.314 86.9367 99.4311C86.9367 98.5485 87.6522 97.833 88.5348 97.833C89.4174 97.833 90.1329 98.5485 90.1329 99.4311C90.1329 100.314 89.4174 101.029 88.5348 101.029Z" fill="white"/>
<path d="M88.5348 101.029C87.6522 101.029 86.9367 100.314 86.9367 99.4311C86.9367 98.5485 87.6522 97.833 88.5348 97.833C89.4174 97.833 90.1329 98.5485 90.1329 99.4311C90.1329 100.314 89.4174 101.029 88.5348 101.029Z" fill="white"/>
<path d="M88.5348 101.029C87.6522 101.029 86.9367 100.314 86.9367 99.4311C86.9367 98.5485 87.6522 97.833 88.5348 97.833C89.4174 97.833 90.1329 98.5485 90.1329 99.4311C90.1329 100.314 89.4174 101.029 88.5348 101.029Z" fill="white"/>
<path d="M88.5348 101.029C87.6522 101.029 86.9367 100.314 86.9367 99.4311C86.9367 98.5485 87.6522 97.833 88.5348 97.833C89.4174 97.833 90.1329 98.5485 90.1329 99.4311C90.1329 100.314 89.4174 101.029 88.5348 101.029Z" fill="white"/>
<path d="M88.5348 101.029C87.6522 101.029 86.9367 100.314 86.9367 99.4311C86.9367 98.5485 87.6522 97.833 88.5348 97.833C89.4174 97.833 90.1329 98.5485 90.1329 99.4311C90.1329 100.314 89.4174 101.029 88.5348 101.029Z" fill="white"/>
<path d="M88.5348 101.029C87.6522 101.029 86.9367 100.314 86.9367 99.4311C86.9367 98.5485 87.6522 97.833 88.5348 97.833C89.4174 97.833 90.1329 98.5485 90.1329 99.4311C90.1329 100.314 89.4174 101.029 88.5348 101.029Z" fill="white"/>
<path d="M88.5348 101.029C87.6522 101.029 86.9367 100.314 86.9367 99.4311C86.9367 98.5485 87.6522 97.833 88.5348 97.833C89.4174 97.833 90.1329 98.5485 90.1329 99.4311C90.1329 100.314 89.4174 101.029 88.5348 101.029Z" fill="white"/>
<path d="M88.5348 101.029C87.6522 101.029 86.9367 100.314 86.9367 99.4311C86.9367 98.5485 87.6522 97.833 88.5348 97.833C89.4174 97.833 90.1329 98.5485 90.1329 99.4311C90.1329 100.314 89.4174 101.029 88.5348 101.029Z" fill="white"/>
<path d="M88.5348 101.029C87.6522 101.029 86.9367 100.314 86.9367 99.4311C86.9367 98.5485 87.6522 97.833 88.5348 97.833C89.4174 97.833 90.1329 98.5485 90.1329 99.4311C90.1329 100.314 89.4174 101.029 88.5348 101.029Z" fill="white"/>
<path d="M88.5348 101.029C87.6522 101.029 86.9367 100.314 86.9367 99.4311C86.9367 98.5485 87.6522 97.833 88.5348 97.833C89.4174 97.833 90.1329 98.5485 90.1329 99.4311C90.1329 100.314 89.4174 101.029 88.5348 101.029Z" fill="white"/>
<path d="M88.5348 101.029C87.6522 101.029 86.9367 100.314 86.9367 99.4311C86.9367 98.5485 87.6522 97.833 88.5348 97.833C89.4174 97.833 90.1329 98.5485 90.1329 99.4311C90.1329 100.314 89.4174 101.029 88.5348 101.029Z" fill="white"/>
<path d="M88.5348 101.029C87.6522 101.029 86.9367 100.314 86.9367 99.4311C86.9367 98.5485 87.6522 97.833 88.5348 97.833C89.4174 97.833 90.1329 98.5485 90.1329 99.4311C90.1329 100.314 89.4174 101.029 88.5348 101.029Z" fill="white"/>
<path d="M88.5348 101.029C87.6522 101.029 86.9367 100.314 86.9367 99.4311C86.9367 98.5485 87.6522 97.833 88.5348 97.833C89.4174 97.833 90.1329 98.5485 90.1329 99.4311C90.1329 100.314 89.4174 101.029 88.5348 101.029Z" fill="white"/>
<path d="M99.4019 111.896C98.5193 111.896 97.8038 111.181 97.8038 110.298C97.8038 109.415 98.5193 108.7 99.4019 108.7C100.285 108.7 101 109.415 101 110.298C101 111.181 100.285 111.896 99.4019 111.896Z" fill="white"/>
<path d="M88.5348 111.896C87.6522 111.896 86.9367 111.181 86.9367 110.298C86.9367 109.415 87.6522 108.7 88.5348 108.7C89.4174 108.7 90.1329 109.415 90.1329 110.298C90.1329 111.181 89.4174 111.896 88.5348 111.896Z" fill="white"/>
<path d="M88.5348 111.896C87.6522 111.896 86.9367 111.181 86.9367 110.298C86.9367 109.415 87.6522 108.7 88.5348 108.7C89.4174 108.7 90.1329 109.415 90.1329 110.298C90.1329 111.181 89.4174 111.896 88.5348 111.896Z" fill="white"/>
<path d="M88.5348 111.896C87.6522 111.896 86.9367 111.181 86.9367 110.298C86.9367 109.415 87.6522 108.7 88.5348 108.7C89.4174 108.7 90.1329 109.415 90.1329 110.298C90.1329 111.181 89.4174 111.896 88.5348 111.896Z" fill="white"/>
<path d="M88.5348 111.896C87.6522 111.896 86.9367 111.181 86.9367 110.298C86.9367 109.415 87.6522 108.7 88.5348 108.7C89.4174 108.7 90.1329 109.415 90.1329 110.298C90.1329 111.181 89.4174 111.896 88.5348 111.896Z" fill="white"/>
<path d="M88.5348 111.896C87.6522 111.896 86.9367 111.181 86.9367 110.298C86.9367 109.415 87.6522 108.7 88.5348 108.7C89.4174 108.7 90.1329 109.415 90.1329 110.298C90.1329 111.181 89.4174 111.896 88.5348 111.896Z" fill="white"/>
<path d="M88.5348 111.896C87.6522 111.896 86.9367 111.181 86.9367 110.298C86.9367 109.415 87.6522 108.7 88.5348 108.7C89.4174 108.7 90.1329 109.415 90.1329 110.298C90.1329 111.181 89.4174 111.896 88.5348 111.896Z" fill="white"/>
<path d="M88.5348 111.896C87.6522 111.896 86.9367 111.181 86.9367 110.298C86.9367 109.415 87.6522 108.7 88.5348 108.7C89.4174 108.7 90.1329 109.415 90.1329 110.298C90.1329 111.181 89.4174 111.896 88.5348 111.896Z" fill="white"/>
<path d="M88.5348 111.896C87.6522 111.896 86.9367 111.181 86.9367 110.298C86.9367 109.415 87.6522 108.7 88.5348 108.7C89.4174 108.7 90.1329 109.415 90.1329 110.298C90.1329 111.181 89.4174 111.896 88.5348 111.896Z" fill="white"/>
<path d="M88.5348 111.896C87.6522 111.896 86.9367 111.181 86.9367 110.298C86.9367 109.415 87.6522 108.7 88.5348 108.7C89.4174 108.7 90.1329 109.415 90.1329 110.298C90.1329 111.181 89.4174 111.896 88.5348 111.896Z" fill="white"/>
<path d="M88.5348 111.896C87.6522 111.896 86.9367 111.181 86.9367 110.298C86.9367 109.415 87.6522 108.7 88.5348 108.7C89.4174 108.7 90.1329 109.415 90.1329 110.298C90.1329 111.181 89.4174 111.896 88.5348 111.896Z" fill="white"/>
<path d="M88.5348 111.896C87.6522 111.896 86.9367 111.181 86.9367 110.298C86.9367 109.415 87.6522 108.7 88.5348 108.7C89.4174 108.7 90.1329 109.415 90.1329 110.298C90.1329 111.181 89.4174 111.896 88.5348 111.896Z" fill="white"/>
<path d="M88.5348 111.896C87.6522 111.896 86.9367 111.181 86.9367 110.298C86.9367 109.415 87.6522 108.7 88.5348 108.7C89.4174 108.7 90.1329 109.415 90.1329 110.298C90.1329 111.181 89.4174 111.896 88.5348 111.896Z" fill="white"/>
<path d="M88.5348 111.896C87.6522 111.896 86.9367 111.181 86.9367 110.298C86.9367 109.415 87.6522 108.7 88.5348 108.7C89.4174 108.7 90.1329 109.415 90.1329 110.298C90.1329 111.181 89.4174 111.896 88.5348 111.896Z" fill="white"/>
<path d="M88.5348 111.896C87.6522 111.896 86.9367 111.181 86.9367 110.298C86.9367 109.415 87.6522 108.7 88.5348 108.7C89.4174 108.7 90.1329 109.415 90.1329 110.298C90.1329 111.181 89.4174 111.896 88.5348 111.896Z" fill="white"/>
<path d="M88.5348 111.896C87.6522 111.896 86.9367 111.181 86.9367 110.298C86.9367 109.415 87.6522 108.7 88.5348 108.7C89.4174 108.7 90.1329 109.415 90.1329 110.298C90.1329 111.181 89.4174 111.896 88.5348 111.896Z" fill="white"/>
<path d="M99.4019 122.763C98.5193 122.763 97.8038 122.048 97.8038 121.165C97.8038 120.282 98.5193 119.567 99.4019 119.567C100.285 119.567 101 120.282 101 121.165C101 122.048 100.285 122.763 99.4019 122.763Z" fill="white"/>
<path d="M88.5347 122.763C87.6521 122.763 86.9366 122.048 86.9366 121.165C86.9366 120.282 87.6521 119.567 88.5347 119.567C89.4173 119.567 90.1328 120.282 90.1328 121.165C90.1328 122.048 89.4173 122.763 88.5347 122.763Z" fill="white"/>
<path d="M88.5347 122.763C87.6521 122.763 86.9366 122.048 86.9366 121.165C86.9366 120.282 87.6521 119.567 88.5347 119.567C89.4173 119.567 90.1328 120.282 90.1328 121.165C90.1328 122.048 89.4173 122.763 88.5347 122.763Z" fill="white"/>
<path d="M88.5347 122.763C87.6521 122.763 86.9366 122.048 86.9366 121.165C86.9366 120.282 87.6521 119.567 88.5347 119.567C89.4173 119.567 90.1328 120.282 90.1328 121.165C90.1328 122.048 89.4173 122.763 88.5347 122.763Z" fill="white"/>
<path d="M88.5347 122.763C87.6521 122.763 86.9366 122.048 86.9366 121.165C86.9366 120.282 87.6521 119.567 88.5347 119.567C89.4173 119.567 90.1328 120.282 90.1328 121.165C90.1328 122.048 89.4173 122.763 88.5347 122.763Z" fill="white"/>
<path d="M88.5347 122.763C87.6521 122.763 86.9366 122.048 86.9366 121.165C86.9366 120.282 87.6521 119.567 88.5347 119.567C89.4173 119.567 90.1328 120.282 90.1328 121.165C90.1328 122.048 89.4173 122.763 88.5347 122.763Z" fill="white"/>
<path d="M88.5347 122.763C87.6521 122.763 86.9366 122.048 86.9366 121.165C86.9366 120.282 87.6521 119.567 88.5347 119.567C89.4173 119.567 90.1328 120.282 90.1328 121.165C90.1328 122.048 89.4173 122.763 88.5347 122.763Z" fill="white"/>
<path d="M88.5347 122.763C87.6521 122.763 86.9366 122.048 86.9366 121.165C86.9366 120.282 87.6521 119.567 88.5347 119.567C89.4173 119.567 90.1328 120.282 90.1328 121.165C90.1328 122.048 89.4173 122.763 88.5347 122.763Z" fill="white"/>
<path d="M88.5347 122.763C87.6521 122.763 86.9366 122.048 86.9366 121.165C86.9366 120.282 87.6521 119.567 88.5347 119.567C89.4173 119.567 90.1328 120.282 90.1328 121.165C90.1328 122.048 89.4173 122.763 88.5347 122.763Z" fill="white"/>
<path d="M88.5347 122.763C87.6521 122.763 86.9366 122.048 86.9366 121.165C86.9366 120.282 87.6521 119.567 88.5347 119.567C89.4173 119.567 90.1328 120.282 90.1328 121.165C90.1328 122.048 89.4173 122.763 88.5347 122.763Z" fill="white"/>
<path d="M88.5347 122.763C87.6521 122.763 86.9366 122.048 86.9366 121.165C86.9366 120.282 87.6521 119.567 88.5347 119.567C89.4173 119.567 90.1328 120.282 90.1328 121.165C90.1328 122.048 89.4173 122.763 88.5347 122.763Z" fill="white"/>
<path d="M88.5347 122.763C87.6521 122.763 86.9366 122.048 86.9366 121.165C86.9366 120.282 87.6521 119.567 88.5347 119.567C89.4173 119.567 90.1328 120.282 90.1328 121.165C90.1328 122.048 89.4173 122.763 88.5347 122.763Z" fill="white"/>
<path d="M88.5347 122.763C87.6521 122.763 86.9366 122.048 86.9366 121.165C86.9366 120.282 87.6521 119.567 88.5347 119.567C89.4173 119.567 90.1328 120.282 90.1328 121.165C90.1328 122.048 89.4173 122.763 88.5347 122.763Z" fill="white"/>
<path d="M88.5347 122.763C87.6521 122.763 86.9366 122.048 86.9366 121.165C86.9366 120.282 87.6521 119.567 88.5347 119.567C89.4173 119.567 90.1328 120.282 90.1328 121.165C90.1328 122.048 89.4173 122.763 88.5347 122.763Z" fill="white"/>
<path d="M88.5347 122.763C87.6521 122.763 86.9366 122.048 86.9366 121.165C86.9366 120.282 87.6521 119.567 88.5347 119.567C89.4173 119.567 90.1328 120.282 90.1328 121.165C90.1328 122.048 89.4173 122.763 88.5347 122.763Z" fill="white"/>
<path d="M88.5347 122.763C87.6521 122.763 86.9366 122.048 86.9366 121.165C86.9366 120.282 87.6521 119.567 88.5347 119.567C89.4173 119.567 90.1328 120.282 90.1328 121.165C90.1328 122.048 89.4173 122.763 88.5347 122.763Z" fill="white"/>
<path d="M99.4019 133.631C98.5193 133.631 97.8038 132.916 97.8038 132.033C97.8038 131.15 98.5193 130.435 99.4019 130.435C100.285 130.435 101 131.15 101 132.033C101 132.916 100.285 133.631 99.4019 133.631Z" fill="white"/>
<path d="M88.5347 133.631C87.6521 133.631 86.9366 132.916 86.9366 132.033C86.9366 131.15 87.6521 130.435 88.5347 130.435C89.4173 130.435 90.1328 131.15 90.1328 132.033C90.1328 132.916 89.4173 133.631 88.5347 133.631Z" fill="white"/>
<path d="M88.5347 133.631C87.6521 133.631 86.9366 132.916 86.9366 132.033C86.9366 131.15 87.6521 130.435 88.5347 130.435C89.4173 130.435 90.1328 131.15 90.1328 132.033C90.1328 132.916 89.4173 133.631 88.5347 133.631Z" fill="white"/>
<path d="M88.5347 133.631C87.6521 133.631 86.9366 132.916 86.9366 132.033C86.9366 131.15 87.6521 130.435 88.5347 130.435C89.4173 130.435 90.1328 131.15 90.1328 132.033C90.1328 132.916 89.4173 133.631 88.5347 133.631Z" fill="white"/>
<path d="M88.5347 133.631C87.6521 133.631 86.9366 132.916 86.9366 132.033C86.9366 131.15 87.6521 130.435 88.5347 130.435C89.4173 130.435 90.1328 131.15 90.1328 132.033C90.1328 132.916 89.4173 133.631 88.5347 133.631Z" fill="white"/>
<path d="M88.5347 133.631C87.6521 133.631 86.9366 132.916 86.9366 132.033C86.9366 131.15 87.6521 130.435 88.5347 130.435C89.4173 130.435 90.1328 131.15 90.1328 132.033C90.1328 132.916 89.4173 133.631 88.5347 133.631Z" fill="white"/>
<path d="M88.5347 133.631C87.6521 133.631 86.9366 132.916 86.9366 132.033C86.9366 131.15 87.6521 130.435 88.5347 130.435C89.4173 130.435 90.1328 131.15 90.1328 132.033C90.1328 132.916 89.4173 133.631 88.5347 133.631Z" fill="white"/>
<path d="M88.5347 133.631C87.6521 133.631 86.9366 132.916 86.9366 132.033C86.9366 131.15 87.6521 130.435 88.5347 130.435C89.4173 130.435 90.1328 131.15 90.1328 132.033C90.1328 132.916 89.4173 133.631 88.5347 133.631Z" fill="white"/>
<path d="M88.5347 133.631C87.6521 133.631 86.9366 132.916 86.9366 132.033C86.9366 131.15 87.6521 130.435 88.5347 130.435C89.4173 130.435 90.1328 131.15 90.1328 132.033C90.1328 132.916 89.4173 133.631 88.5347 133.631Z" fill="white"/>
<path d="M88.5347 133.631C87.6521 133.631 86.9366 132.916 86.9366 132.033C86.9366 131.15 87.6521 130.435 88.5347 130.435C89.4173 130.435 90.1328 131.15 90.1328 132.033C90.1328 132.916 89.4173 133.631 88.5347 133.631Z" fill="white"/>
<path d="M88.5347 133.631C87.6521 133.631 86.9366 132.916 86.9366 132.033C86.9366 131.15 87.6521 130.435 88.5347 130.435C89.4173 130.435 90.1328 131.15 90.1328 132.033C90.1328 132.916 89.4173 133.631 88.5347 133.631Z" fill="white"/>
<path d="M88.5347 133.631C87.6521 133.631 86.9366 132.916 86.9366 132.033C86.9366 131.15 87.6521 130.435 88.5347 130.435C89.4173 130.435 90.1328 131.15 90.1328 132.033C90.1328 132.916 89.4173 133.631 88.5347 133.631Z" fill="white"/>
<path d="M88.5347 133.631C87.6521 133.631 86.9366 132.916 86.9366 132.033C86.9366 131.15 87.6521 130.435 88.5347 130.435C89.4173 130.435 90.1328 131.15 90.1328 132.033C90.1328 132.916 89.4173 133.631 88.5347 133.631Z" fill="white"/>
<path d="M88.5347 133.631C87.6521 133.631 86.9366 132.916 86.9366 132.033C86.9366 131.15 87.6521 130.435 88.5347 130.435C89.4173 130.435 90.1328 131.15 90.1328 132.033C90.1328 132.916 89.4173 133.631 88.5347 133.631Z" fill="white"/>
<path d="M88.5347 133.631C87.6521 133.631 86.9366 132.916 86.9366 132.033C86.9366 131.15 87.6521 130.435 88.5347 130.435C89.4173 130.435 90.1328 131.15 90.1328 132.033C90.1328 132.916 89.4173 133.631 88.5347 133.631Z" fill="white"/>
<path d="M88.5347 133.631C87.6521 133.631 86.9366 132.916 86.9366 132.033C86.9366 131.15 87.6521 130.435 88.5347 130.435C89.4173 130.435 90.1328 131.15 90.1328 132.033C90.1328 132.916 89.4173 133.631 88.5347 133.631Z" fill="white"/>
<path d="M99.4019 144.497C98.5193 144.497 97.8038 143.782 97.8038 142.899C97.8038 142.016 98.5193 141.301 99.4019 141.301C100.285 141.301 101 142.016 101 142.899C101 143.782 100.285 144.497 99.4019 144.497Z" fill="white"/>
<path d="M88.5347 144.497C87.6521 144.497 86.9366 143.782 86.9366 142.899C86.9366 142.016 87.6521 141.301 88.5347 141.301C89.4173 141.301 90.1328 142.016 90.1328 142.899C90.1328 143.782 89.4173 144.497 88.5347 144.497Z" fill="white"/>
<path d="M88.5347 144.497C87.6521 144.497 86.9366 143.782 86.9366 142.899C86.9366 142.016 87.6521 141.301 88.5347 141.301C89.4173 141.301 90.1328 142.016 90.1328 142.899C90.1328 143.782 89.4173 144.497 88.5347 144.497Z" fill="white"/>
<path d="M88.5347 144.497C87.6521 144.497 86.9366 143.782 86.9366 142.899C86.9366 142.016 87.6521 141.301 88.5347 141.301C89.4173 141.301 90.1328 142.016 90.1328 142.899C90.1328 143.782 89.4173 144.497 88.5347 144.497Z" fill="white"/>
<path d="M88.5347 144.497C87.6521 144.497 86.9366 143.782 86.9366 142.899C86.9366 142.016 87.6521 141.301 88.5347 141.301C89.4173 141.301 90.1328 142.016 90.1328 142.899C90.1328 143.782 89.4173 144.497 88.5347 144.497Z" fill="white"/>
<path d="M88.5347 144.497C87.6521 144.497 86.9366 143.782 86.9366 142.899C86.9366 142.016 87.6521 141.301 88.5347 141.301C89.4173 141.301 90.1328 142.016 90.1328 142.899C90.1328 143.782 89.4173 144.497 88.5347 144.497Z" fill="white"/>
<path d="M88.5347 144.497C87.6521 144.497 86.9366 143.782 86.9366 142.899C86.9366 142.016 87.6521 141.301 88.5347 141.301C89.4173 141.301 90.1328 142.016 90.1328 142.899C90.1328 143.782 89.4173 144.497 88.5347 144.497Z" fill="white"/>
<path d="M88.5347 144.497C87.6521 144.497 86.9366 143.782 86.9366 142.899C86.9366 142.016 87.6521 141.301 88.5347 141.301C89.4173 141.301 90.1328 142.016 90.1328 142.899C90.1328 143.782 89.4173 144.497 88.5347 144.497Z" fill="white"/>
<path d="M88.5347 144.497C87.6521 144.497 86.9366 143.782 86.9366 142.899C86.9366 142.016 87.6521 141.301 88.5347 141.301C89.4173 141.301 90.1328 142.016 90.1328 142.899C90.1328 143.782 89.4173 144.497 88.5347 144.497Z" fill="white"/>
<path d="M88.5347 144.497C87.6521 144.497 86.9366 143.782 86.9366 142.899C86.9366 142.016 87.6521 141.301 88.5347 141.301C89.4173 141.301 90.1328 142.016 90.1328 142.899C90.1328 143.782 89.4173 144.497 88.5347 144.497Z" fill="white"/>
<path d="M88.5347 144.497C87.6521 144.497 86.9366 143.782 86.9366 142.899C86.9366 142.016 87.6521 141.301 88.5347 141.301C89.4173 141.301 90.1328 142.016 90.1328 142.899C90.1328 143.782 89.4173 144.497 88.5347 144.497Z" fill="white"/>
<path d="M88.5347 144.497C87.6521 144.497 86.9366 143.782 86.9366 142.899C86.9366 142.016 87.6521 141.301 88.5347 141.301C89.4173 141.301 90.1328 142.016 90.1328 142.899C90.1328 143.782 89.4173 144.497 88.5347 144.497Z" fill="white"/>
<path d="M88.5347 144.497C87.6521 144.497 86.9366 143.782 86.9366 142.899C86.9366 142.016 87.6521 141.301 88.5347 141.301C89.4173 141.301 90.1328 142.016 90.1328 142.899C90.1328 143.782 89.4173 144.497 88.5347 144.497Z" fill="white"/>
<path d="M88.5347 144.497C87.6521 144.497 86.9366 143.782 86.9366 142.899C86.9366 142.016 87.6521 141.301 88.5347 141.301C89.4173 141.301 90.1328 142.016 90.1328 142.899C90.1328 143.782 89.4173 144.497 88.5347 144.497Z" fill="white"/>
<path d="M88.5347 144.497C87.6521 144.497 86.9366 143.782 86.9366 142.899C86.9366 142.016 87.6521 141.301 88.5347 141.301C89.4173 141.301 90.1328 142.016 90.1328 142.899C90.1328 143.782 89.4173 144.497 88.5347 144.497Z" fill="white"/>
<path d="M88.5347 144.497C87.6521 144.497 86.9366 143.782 86.9366 142.899C86.9366 142.016 87.6521 141.301 88.5347 141.301C89.4173 141.301 90.1328 142.016 90.1328 142.899C90.1328 143.782 89.4173 144.497 88.5347 144.497Z" fill="white"/>
<path d="M99.4019 155.364C98.5193 155.364 97.8038 154.649 97.8038 153.766C97.8038 152.883 98.5193 152.168 99.4019 152.168C100.285 152.168 101 152.883 101 153.766C101 154.649 100.285 155.364 99.4019 155.364Z" fill="white"/>
<path d="M88.5347 155.364C87.6521 155.364 86.9366 154.649 86.9366 153.766C86.9366 152.883 87.6521 152.168 88.5347 152.168C89.4173 152.168 90.1328 152.883 90.1328 153.766C90.1328 154.649 89.4173 155.364 88.5347 155.364Z" fill="white"/>
<path d="M88.5347 155.364C87.6521 155.364 86.9366 154.649 86.9366 153.766C86.9366 152.883 87.6521 152.168 88.5347 152.168C89.4173 152.168 90.1328 152.883 90.1328 153.766C90.1328 154.649 89.4173 155.364 88.5347 155.364Z" fill="white"/>
<path d="M88.5347 155.364C87.6521 155.364 86.9366 154.649 86.9366 153.766C86.9366 152.883 87.6521 152.168 88.5347 152.168C89.4173 152.168 90.1328 152.883 90.1328 153.766C90.1328 154.649 89.4173 155.364 88.5347 155.364Z" fill="white"/>
<path d="M88.5347 155.364C87.6521 155.364 86.9366 154.649 86.9366 153.766C86.9366 152.883 87.6521 152.168 88.5347 152.168C89.4173 152.168 90.1328 152.883 90.1328 153.766C90.1328 154.649 89.4173 155.364 88.5347 155.364Z" fill="white"/>
<path d="M88.5347 155.364C87.6521 155.364 86.9366 154.649 86.9366 153.766C86.9366 152.883 87.6521 152.168 88.5347 152.168C89.4173 152.168 90.1328 152.883 90.1328 153.766C90.1328 154.649 89.4173 155.364 88.5347 155.364Z" fill="white"/>
<path d="M88.5347 155.364C87.6521 155.364 86.9366 154.649 86.9366 153.766C86.9366 152.883 87.6521 152.168 88.5347 152.168C89.4173 152.168 90.1328 152.883 90.1328 153.766C90.1328 154.649 89.4173 155.364 88.5347 155.364Z" fill="white"/>
<path d="M88.5347 155.364C87.6521 155.364 86.9366 154.649 86.9366 153.766C86.9366 152.883 87.6521 152.168 88.5347 152.168C89.4173 152.168 90.1328 152.883 90.1328 153.766C90.1328 154.649 89.4173 155.364 88.5347 155.364Z" fill="white"/>
<path d="M88.5347 155.364C87.6521 155.364 86.9366 154.649 86.9366 153.766C86.9366 152.883 87.6521 152.168 88.5347 152.168C89.4173 152.168 90.1328 152.883 90.1328 153.766C90.1328 154.649 89.4173 155.364 88.5347 155.364Z" fill="white"/>
<path d="M88.5347 155.364C87.6521 155.364 86.9366 154.649 86.9366 153.766C86.9366 152.883 87.6521 152.168 88.5347 152.168C89.4173 152.168 90.1328 152.883 90.1328 153.766C90.1328 154.649 89.4173 155.364 88.5347 155.364Z" fill="white"/>
<path d="M88.5347 155.364C87.6521 155.364 86.9366 154.649 86.9366 153.766C86.9366 152.883 87.6521 152.168 88.5347 152.168C89.4173 152.168 90.1328 152.883 90.1328 153.766C90.1328 154.649 89.4173 155.364 88.5347 155.364Z" fill="white"/>
<path d="M88.5347 155.364C87.6521 155.364 86.9366 154.649 86.9366 153.766C86.9366 152.883 87.6521 152.168 88.5347 152.168C89.4173 152.168 90.1328 152.883 90.1328 153.766C90.1328 154.649 89.4173 155.364 88.5347 155.364Z" fill="white"/>
<path d="M88.5347 155.364C87.6521 155.364 86.9366 154.649 86.9366 153.766C86.9366 152.883 87.6521 152.168 88.5347 152.168C89.4173 152.168 90.1328 152.883 90.1328 153.766C90.1328 154.649 89.4173 155.364 88.5347 155.364Z" fill="white"/>
<path d="M88.5347 155.364C87.6521 155.364 86.9366 154.649 86.9366 153.766C86.9366 152.883 87.6521 152.168 88.5347 152.168C89.4173 152.168 90.1328 152.883 90.1328 153.766C90.1328 154.649 89.4173 155.364 88.5347 155.364Z" fill="white"/>
<path d="M88.5347 155.364C87.6521 155.364 86.9366 154.649 86.9366 153.766C86.9366 152.883 87.6521 152.168 88.5347 152.168C89.4173 152.168 90.1328 152.883 90.1328 153.766C90.1328 154.649 89.4173 155.364 88.5347 155.364Z" fill="white"/>
<path d="M88.5347 155.364C87.6521 155.364 86.9366 154.649 86.9366 153.766C86.9366 152.883 87.6521 152.168 88.5347 152.168C89.4173 152.168 90.1328 152.883 90.1328 153.766C90.1328 154.649 89.4173 155.364 88.5347 155.364Z" fill="white"/>
<path d="M99.4019 166.231C98.5193 166.231 97.8038 165.516 97.8038 164.633C97.8038 163.75 98.5193 163.035 99.4019 163.035C100.285 163.035 101 163.75 101 164.633C101 165.516 100.285 166.231 99.4019 166.231Z" fill="white"/>
<path d="M88.5347 166.231C87.6521 166.231 86.9366 165.516 86.9366 164.633C86.9366 163.75 87.6521 163.035 88.5347 163.035C89.4173 163.035 90.1328 163.75 90.1328 164.633C90.1328 165.516 89.4173 166.231 88.5347 166.231Z" fill="white"/>
<path d="M88.5347 166.231C87.6521 166.231 86.9366 165.516 86.9366 164.633C86.9366 163.75 87.6521 163.035 88.5347 163.035C89.4173 163.035 90.1328 163.75 90.1328 164.633C90.1328 165.516 89.4173 166.231 88.5347 166.231Z" fill="white"/>
<path d="M88.5347 166.231C87.6521 166.231 86.9366 165.516 86.9366 164.633C86.9366 163.75 87.6521 163.035 88.5347 163.035C89.4173 163.035 90.1328 163.75 90.1328 164.633C90.1328 165.516 89.4173 166.231 88.5347 166.231Z" fill="white"/>
<path d="M88.5347 166.231C87.6521 166.231 86.9366 165.516 86.9366 164.633C86.9366 163.75 87.6521 163.035 88.5347 163.035C89.4173 163.035 90.1328 163.75 90.1328 164.633C90.1328 165.516 89.4173 166.231 88.5347 166.231Z" fill="white"/>
<path d="M88.5347 166.231C87.6521 166.231 86.9366 165.516 86.9366 164.633C86.9366 163.75 87.6521 163.035 88.5347 163.035C89.4173 163.035 90.1328 163.75 90.1328 164.633C90.1328 165.516 89.4173 166.231 88.5347 166.231Z" fill="white"/>
<path d="M88.5347 166.231C87.6521 166.231 86.9366 165.516 86.9366 164.633C86.9366 163.75 87.6521 163.035 88.5347 163.035C89.4173 163.035 90.1328 163.75 90.1328 164.633C90.1328 165.516 89.4173 166.231 88.5347 166.231Z" fill="white"/>
<path d="M88.5347 166.231C87.6521 166.231 86.9366 165.516 86.9366 164.633C86.9366 163.75 87.6521 163.035 88.5347 163.035C89.4173 163.035 90.1328 163.75 90.1328 164.633C90.1328 165.516 89.4173 166.231 88.5347 166.231Z" fill="white"/>
<path d="M88.5347 166.231C87.6521 166.231 86.9366 165.516 86.9366 164.633C86.9366 163.75 87.6521 163.035 88.5347 163.035C89.4173 163.035 90.1328 163.75 90.1328 164.633C90.1328 165.516 89.4173 166.231 88.5347 166.231Z" fill="white"/>
<path d="M88.5347 166.231C87.6521 166.231 86.9366 165.516 86.9366 164.633C86.9366 163.75 87.6521 163.035 88.5347 163.035C89.4173 163.035 90.1328 163.75 90.1328 164.633C90.1328 165.516 89.4173 166.231 88.5347 166.231Z" fill="white"/>
<path d="M88.5347 166.231C87.6521 166.231 86.9366 165.516 86.9366 164.633C86.9366 163.75 87.6521 163.035 88.5347 163.035C89.4173 163.035 90.1328 163.75 90.1328 164.633C90.1328 165.516 89.4173 166.231 88.5347 166.231Z" fill="white"/>
<path d="M88.5347 166.231C87.6521 166.231 86.9366 165.516 86.9366 164.633C86.9366 163.75 87.6521 163.035 88.5347 163.035C89.4173 163.035 90.1328 163.75 90.1328 164.633C90.1328 165.516 89.4173 166.231 88.5347 166.231Z" fill="white"/>
<path d="M88.5347 166.231C87.6521 166.231 86.9366 165.516 86.9366 164.633C86.9366 163.75 87.6521 163.035 88.5347 163.035C89.4173 163.035 90.1328 163.75 90.1328 164.633C90.1328 165.516 89.4173 166.231 88.5347 166.231Z" fill="white"/>
<path d="M88.5347 166.231C87.6521 166.231 86.9366 165.516 86.9366 164.633C86.9366 163.75 87.6521 163.035 88.5347 163.035C89.4173 163.035 90.1328 163.75 90.1328 164.633C90.1328 165.516 89.4173 166.231 88.5347 166.231Z" fill="white"/>
<path d="M88.5347 166.231C87.6521 166.231 86.9366 165.516 86.9366 164.633C86.9366 163.75 87.6521 163.035 88.5347 163.035C89.4173 163.035 90.1328 163.75 90.1328 164.633C90.1328 165.516 89.4173 166.231 88.5347 166.231Z" fill="white"/>
<path d="M88.5347 166.231C87.6521 166.231 86.9366 165.516 86.9366 164.633C86.9366 163.75 87.6521 163.035 88.5347 163.035C89.4173 163.035 90.1328 163.75 90.1328 164.633C90.1328 165.516 89.4173 166.231 88.5347 166.231Z" fill="white"/>
<path d="M99.4019 177.098C98.5193 177.098 97.8038 176.383 97.8038 175.5C97.8038 174.617 98.5193 173.902 99.4019 173.902C100.285 173.902 101 174.617 101 175.5C101 176.383 100.285 177.098 99.4019 177.098Z" fill="white"/>
<path d="M88.5348 177.098C87.6522 177.098 86.9367 176.383 86.9367 175.5C86.9367 174.617 87.6522 173.902 88.5348 173.902C89.4174 173.902 90.1329 174.617 90.1329 175.5C90.1329 176.383 89.4174 177.098 88.5348 177.098Z" fill="white"/>
<path d="M88.5348 177.098C87.6522 177.098 86.9367 176.383 86.9367 175.5C86.9367 174.617 87.6522 173.902 88.5348 173.902C89.4174 173.902 90.1329 174.617 90.1329 175.5C90.1329 176.383 89.4174 177.098 88.5348 177.098Z" fill="white"/>
<path d="M88.5348 177.098C87.6522 177.098 86.9367 176.383 86.9367 175.5C86.9367 174.617 87.6522 173.902 88.5348 173.902C89.4174 173.902 90.1329 174.617 90.1329 175.5C90.1329 176.383 89.4174 177.098 88.5348 177.098Z" fill="white"/>
<path d="M88.5348 177.098C87.6522 177.098 86.9367 176.383 86.9367 175.5C86.9367 174.617 87.6522 173.902 88.5348 173.902C89.4174 173.902 90.1329 174.617 90.1329 175.5C90.1329 176.383 89.4174 177.098 88.5348 177.098Z" fill="white"/>
<path d="M88.5348 177.098C87.6522 177.098 86.9367 176.383 86.9367 175.5C86.9367 174.617 87.6522 173.902 88.5348 173.902C89.4174 173.902 90.1329 174.617 90.1329 175.5C90.1329 176.383 89.4174 177.098 88.5348 177.098Z" fill="white"/>
<path d="M88.5348 177.098C87.6522 177.098 86.9367 176.383 86.9367 175.5C86.9367 174.617 87.6522 173.902 88.5348 173.902C89.4174 173.902 90.1329 174.617 90.1329 175.5C90.1329 176.383 89.4174 177.098 88.5348 177.098Z" fill="white"/>
<path d="M88.5348 177.098C87.6522 177.098 86.9367 176.383 86.9367 175.5C86.9367 174.617 87.6522 173.902 88.5348 173.902C89.4174 173.902 90.1329 174.617 90.1329 175.5C90.1329 176.383 89.4174 177.098 88.5348 177.098Z" fill="white"/>
<path d="M88.5348 177.098C87.6522 177.098 86.9367 176.383 86.9367 175.5C86.9367 174.617 87.6522 173.902 88.5348 173.902C89.4174 173.902 90.1329 174.617 90.1329 175.5C90.1329 176.383 89.4174 177.098 88.5348 177.098Z" fill="white"/>
<path d="M88.5348 177.098C87.6522 177.098 86.9367 176.383 86.9367 175.5C86.9367 174.617 87.6522 173.902 88.5348 173.902C89.4174 173.902 90.1329 174.617 90.1329 175.5C90.1329 176.383 89.4174 177.098 88.5348 177.098Z" fill="white"/>
<path d="M88.5348 177.098C87.6522 177.098 86.9367 176.383 86.9367 175.5C86.9367 174.617 87.6522 173.902 88.5348 173.902C89.4174 173.902 90.1329 174.617 90.1329 175.5C90.1329 176.383 89.4174 177.098 88.5348 177.098Z" fill="white"/>
<path d="M88.5348 177.098C87.6522 177.098 86.9367 176.383 86.9367 175.5C86.9367 174.617 87.6522 173.902 88.5348 173.902C89.4174 173.902 90.1329 174.617 90.1329 175.5C90.1329 176.383 89.4174 177.098 88.5348 177.098Z" fill="white"/>
<path d="M88.5348 177.098C87.6522 177.098 86.9367 176.383 86.9367 175.5C86.9367 174.617 87.6522 173.902 88.5348 173.902C89.4174 173.902 90.1329 174.617 90.1329 175.5C90.1329 176.383 89.4174 177.098 88.5348 177.098Z" fill="white"/>
<path d="M88.5348 177.098C87.6522 177.098 86.9367 176.383 86.9367 175.5C86.9367 174.617 87.6522 173.902 88.5348 173.902C89.4174 173.902 90.1329 174.617 90.1329 175.5C90.1329 176.383 89.4174 177.098 88.5348 177.098Z" fill="white"/>
<path d="M88.5348 177.098C87.6522 177.098 86.9367 176.383 86.9367 175.5C86.9367 174.617 87.6522 173.902 88.5348 173.902C89.4174 173.902 90.1329 174.617 90.1329 175.5C90.1329 176.383 89.4174 177.098 88.5348 177.098Z" fill="white"/>
<path d="M88.5348 177.098C87.6522 177.098 86.9367 176.383 86.9367 175.5C86.9367 174.617 87.6522 173.902 88.5348 173.902C89.4174 173.902 90.1329 174.617 90.1329 175.5C90.1329 176.383 89.4174 177.098 88.5348 177.098Z" fill="white"/>
<path d="M77.6677 177.098C76.7851 177.098 76.0696 176.383 76.0696 175.5C76.0696 174.617 76.7851 173.902 77.6677 173.902C78.5503 173.902 79.2658 174.617 79.2658 175.5C79.2658 176.383 78.5503 177.098 77.6677 177.098Z" fill="white"/>
<path d="M66.8003 177.098C65.9177 177.098 65.2022 176.383 65.2022 175.5C65.2022 174.617 65.9177 173.902 66.8003 173.902C67.6829 173.902 68.3984 174.617 68.3984 175.5C68.3984 176.383 67.6829 177.098 66.8003 177.098Z" fill="white"/>
<path d="M66.8003 177.098C65.9177 177.098 65.2022 176.383 65.2022 175.5C65.2022 174.617 65.9177 173.902 66.8003 173.902C67.6829 173.902 68.3984 174.617 68.3984 175.5C68.3984 176.383 67.6829 177.098 66.8003 177.098Z" fill="white"/>
<path d="M66.8003 177.098C65.9177 177.098 65.2022 176.383 65.2022 175.5C65.2022 174.617 65.9177 173.902 66.8003 173.902C67.6829 173.902 68.3984 174.617 68.3984 175.5C68.3984 176.383 67.6829 177.098 66.8003 177.098Z" fill="white"/>
<path d="M66.8003 177.098C65.9177 177.098 65.2022 176.383 65.2022 175.5C65.2022 174.617 65.9177 173.902 66.8003 173.902C67.6829 173.902 68.3984 174.617 68.3984 175.5C68.3984 176.383 67.6829 177.098 66.8003 177.098Z" fill="white"/>
<path d="M66.8003 177.098C65.9177 177.098 65.2022 176.383 65.2022 175.5C65.2022 174.617 65.9177 173.902 66.8003 173.902C67.6829 173.902 68.3984 174.617 68.3984 175.5C68.3984 176.383 67.6829 177.098 66.8003 177.098Z" fill="white"/>
<path d="M66.8003 177.098C65.9177 177.098 65.2022 176.383 65.2022 175.5C65.2022 174.617 65.9177 173.902 66.8003 173.902C67.6829 173.902 68.3984 174.617 68.3984 175.5C68.3984 176.383 67.6829 177.098 66.8003 177.098Z" fill="white"/>
<path d="M66.8003 177.098C65.9177 177.098 65.2022 176.383 65.2022 175.5C65.2022 174.617 65.9177 173.902 66.8003 173.902C67.6829 173.902 68.3984 174.617 68.3984 175.5C68.3984 176.383 67.6829 177.098 66.8003 177.098Z" fill="white"/>
<path d="M66.8003 177.098C65.9177 177.098 65.2022 176.383 65.2022 175.5C65.2022 174.617 65.9177 173.902 66.8003 173.902C67.6829 173.902 68.3984 174.617 68.3984 175.5C68.3984 176.383 67.6829 177.098 66.8003 177.098Z" fill="white"/>
<path d="M66.8003 177.098C65.9177 177.098 65.2022 176.383 65.2022 175.5C65.2022 174.617 65.9177 173.902 66.8003 173.902C67.6829 173.902 68.3984 174.617 68.3984 175.5C68.3984 176.383 67.6829 177.098 66.8003 177.098Z" fill="white"/>
<path d="M66.8003 177.098C65.9177 177.098 65.2022 176.383 65.2022 175.5C65.2022 174.617 65.9177 173.902 66.8003 173.902C67.6829 173.902 68.3984 174.617 68.3984 175.5C68.3984 176.383 67.6829 177.098 66.8003 177.098Z" fill="white"/>
<path d="M66.8003 177.098C65.9177 177.098 65.2022 176.383 65.2022 175.5C65.2022 174.617 65.9177 173.902 66.8003 173.902C67.6829 173.902 68.3984 174.617 68.3984 175.5C68.3984 176.383 67.6829 177.098 66.8003 177.098Z" fill="white"/>
<path d="M66.8003 177.098C65.9177 177.098 65.2022 176.383 65.2022 175.5C65.2022 174.617 65.9177 173.902 66.8003 173.902C67.6829 173.902 68.3984 174.617 68.3984 175.5C68.3984 176.383 67.6829 177.098 66.8003 177.098Z" fill="white"/>
<path d="M66.8003 177.098C65.9177 177.098 65.2022 176.383 65.2022 175.5C65.2022 174.617 65.9177 173.902 66.8003 173.902C67.6829 173.902 68.3984 174.617 68.3984 175.5C68.3984 176.383 67.6829 177.098 66.8003 177.098Z" fill="white"/>
<path d="M66.8003 177.098C65.9177 177.098 65.2022 176.383 65.2022 175.5C65.2022 174.617 65.9177 173.902 66.8003 173.902C67.6829 173.902 68.3984 174.617 68.3984 175.5C68.3984 176.383 67.6829 177.098 66.8003 177.098Z" fill="white"/>
<path d="M66.8003 177.098C65.9177 177.098 65.2022 176.383 65.2022 175.5C65.2022 174.617 65.9177 173.902 66.8003 173.902C67.6829 173.902 68.3984 174.617 68.3984 175.5C68.3984 176.383 67.6829 177.098 66.8003 177.098Z" fill="white"/>
<path d="M55.9331 177.098C55.0505 177.098 54.335 176.383 54.335 175.5C54.335 174.617 55.0505 173.902 55.9331 173.902C56.8157 173.902 57.5312 174.617 57.5312 175.5C57.5312 176.383 56.8157 177.098 55.9331 177.098Z" fill="white"/>
<path d="M45.0669 177.098C44.1843 177.098 43.4688 176.383 43.4688 175.5C43.4688 174.617 44.1843 173.902 45.0669 173.902C45.9495 173.902 46.665 174.617 46.665 175.5C46.665 176.383 45.9495 177.098 45.0669 177.098Z" fill="white"/>
<path d="M45.0669 177.098C44.1843 177.098 43.4688 176.383 43.4688 175.5C43.4688 174.617 44.1843 173.902 45.0669 173.902C45.9495 173.902 46.665 174.617 46.665 175.5C46.665 176.383 45.9495 177.098 45.0669 177.098Z" fill="white"/>
<path d="M45.0669 177.098C44.1843 177.098 43.4688 176.383 43.4688 175.5C43.4688 174.617 44.1843 173.902 45.0669 173.902C45.9495 173.902 46.665 174.617 46.665 175.5C46.665 176.383 45.9495 177.098 45.0669 177.098Z" fill="white"/>
<path d="M45.0669 177.098C44.1843 177.098 43.4688 176.383 43.4688 175.5C43.4688 174.617 44.1843 173.902 45.0669 173.902C45.9495 173.902 46.665 174.617 46.665 175.5C46.665 176.383 45.9495 177.098 45.0669 177.098Z" fill="white"/>
<path d="M45.0669 177.098C44.1843 177.098 43.4688 176.383 43.4688 175.5C43.4688 174.617 44.1843 173.902 45.0669 173.902C45.9495 173.902 46.665 174.617 46.665 175.5C46.665 176.383 45.9495 177.098 45.0669 177.098Z" fill="white"/>
<path d="M45.0669 177.098C44.1843 177.098 43.4688 176.383 43.4688 175.5C43.4688 174.617 44.1843 173.902 45.0669 173.902C45.9495 173.902 46.665 174.617 46.665 175.5C46.665 176.383 45.9495 177.098 45.0669 177.098Z" fill="white"/>
<path d="M45.0669 177.098C44.1843 177.098 43.4688 176.383 43.4688 175.5C43.4688 174.617 44.1843 173.902 45.0669 173.902C45.9495 173.902 46.665 174.617 46.665 175.5C46.665 176.383 45.9495 177.098 45.0669 177.098Z" fill="white"/>
<path d="M45.0669 177.098C44.1843 177.098 43.4688 176.383 43.4688 175.5C43.4688 174.617 44.1843 173.902 45.0669 173.902C45.9495 173.902 46.665 174.617 46.665 175.5C46.665 176.383 45.9495 177.098 45.0669 177.098Z" fill="white"/>
<path d="M45.0669 177.098C44.1843 177.098 43.4688 176.383 43.4688 175.5C43.4688 174.617 44.1843 173.902 45.0669 173.902C45.9495 173.902 46.665 174.617 46.665 175.5C46.665 176.383 45.9495 177.098 45.0669 177.098Z" fill="white"/>
<path d="M45.0669 177.098C44.1843 177.098 43.4688 176.383 43.4688 175.5C43.4688 174.617 44.1843 173.902 45.0669 173.902C45.9495 173.902 46.665 174.617 46.665 175.5C46.665 176.383 45.9495 177.098 45.0669 177.098Z" fill="white"/>
<path d="M45.0669 177.098C44.1843 177.098 43.4688 176.383 43.4688 175.5C43.4688 174.617 44.1843 173.902 45.0669 173.902C45.9495 173.902 46.665 174.617 46.665 175.5C46.665 176.383 45.9495 177.098 45.0669 177.098Z" fill="white"/>
<path d="M45.0669 177.098C44.1843 177.098 43.4688 176.383 43.4688 175.5C43.4688 174.617 44.1843 173.902 45.0669 173.902C45.9495 173.902 46.665 174.617 46.665 175.5C46.665 176.383 45.9495 177.098 45.0669 177.098Z" fill="white"/>
<path d="M45.0669 177.098C44.1843 177.098 43.4688 176.383 43.4688 175.5C43.4688 174.617 44.1843 173.902 45.0669 173.902C45.9495 173.902 46.665 174.617 46.665 175.5C46.665 176.383 45.9495 177.098 45.0669 177.098Z" fill="white"/>
<path d="M45.0669 177.098C44.1843 177.098 43.4688 176.383 43.4688 175.5C43.4688 174.617 44.1843 173.902 45.0669 173.902C45.9495 173.902 46.665 174.617 46.665 175.5C46.665 176.383 45.9495 177.098 45.0669 177.098Z" fill="white"/>
<path d="M45.0669 177.098C44.1843 177.098 43.4688 176.383 43.4688 175.5C43.4688 174.617 44.1843 173.902 45.0669 173.902C45.9495 173.902 46.665 174.617 46.665 175.5C46.665 176.383 45.9495 177.098 45.0669 177.098Z" fill="white"/>
<path d="M34.1998 177.098C33.3172 177.098 32.6017 176.383 32.6017 175.5C32.6017 174.617 33.3172 173.902 34.1998 173.902C35.0824 173.902 35.7979 174.617 35.7979 175.5C35.7979 176.383 35.0824 177.098 34.1998 177.098Z" fill="white"/>
<path d="M23.3326 177.098C22.45 177.098 21.7345 176.383 21.7345 175.5C21.7345 174.617 22.45 173.902 23.3326 173.902C24.2152 173.902 24.9307 174.617 24.9307 175.5C24.9307 176.383 24.2152 177.098 23.3326 177.098Z" fill="white"/>
<path d="M23.3326 177.098C22.45 177.098 21.7345 176.383 21.7345 175.5C21.7345 174.617 22.45 173.902 23.3326 173.902C24.2152 173.902 24.9307 174.617 24.9307 175.5C24.9307 176.383 24.2152 177.098 23.3326 177.098Z" fill="white"/>
<path d="M23.3326 177.098C22.45 177.098 21.7345 176.383 21.7345 175.5C21.7345 174.617 22.45 173.902 23.3326 173.902C24.2152 173.902 24.9307 174.617 24.9307 175.5C24.9307 176.383 24.2152 177.098 23.3326 177.098Z" fill="white"/>
<path d="M23.3326 177.098C22.45 177.098 21.7345 176.383 21.7345 175.5C21.7345 174.617 22.45 173.902 23.3326 173.902C24.2152 173.902 24.9307 174.617 24.9307 175.5C24.9307 176.383 24.2152 177.098 23.3326 177.098Z" fill="white"/>
<path d="M23.3326 177.098C22.45 177.098 21.7345 176.383 21.7345 175.5C21.7345 174.617 22.45 173.902 23.3326 173.902C24.2152 173.902 24.9307 174.617 24.9307 175.5C24.9307 176.383 24.2152 177.098 23.3326 177.098Z" fill="white"/>
<path d="M23.3326 177.098C22.45 177.098 21.7345 176.383 21.7345 175.5C21.7345 174.617 22.45 173.902 23.3326 173.902C24.2152 173.902 24.9307 174.617 24.9307 175.5C24.9307 176.383 24.2152 177.098 23.3326 177.098Z" fill="white"/>
<path d="M23.3326 177.098C22.45 177.098 21.7345 176.383 21.7345 175.5C21.7345 174.617 22.45 173.902 23.3326 173.902C24.2152 173.902 24.9307 174.617 24.9307 175.5C24.9307 176.383 24.2152 177.098 23.3326 177.098Z" fill="white"/>
<path d="M23.3326 177.098C22.45 177.098 21.7345 176.383 21.7345 175.5C21.7345 174.617 22.45 173.902 23.3326 173.902C24.2152 173.902 24.9307 174.617 24.9307 175.5C24.9307 176.383 24.2152 177.098 23.3326 177.098Z" fill="white"/>
<path d="M23.3326 177.098C22.45 177.098 21.7345 176.383 21.7345 175.5C21.7345 174.617 22.45 173.902 23.3326 173.902C24.2152 173.902 24.9307 174.617 24.9307 175.5C24.9307 176.383 24.2152 177.098 23.3326 177.098Z" fill="white"/>
<path d="M23.3326 177.098C22.45 177.098 21.7345 176.383 21.7345 175.5C21.7345 174.617 22.45 173.902 23.3326 173.902C24.2152 173.902 24.9307 174.617 24.9307 175.5C24.9307 176.383 24.2152 177.098 23.3326 177.098Z" fill="white"/>
<path d="M23.3326 177.098C22.45 177.098 21.7345 176.383 21.7345 175.5C21.7345 174.617 22.45 173.902 23.3326 173.902C24.2152 173.902 24.9307 174.617 24.9307 175.5C24.9307 176.383 24.2152 177.098 23.3326 177.098Z" fill="white"/>
<path d="M23.3326 177.098C22.45 177.098 21.7345 176.383 21.7345 175.5C21.7345 174.617 22.45 173.902 23.3326 173.902C24.2152 173.902 24.9307 174.617 24.9307 175.5C24.9307 176.383 24.2152 177.098 23.3326 177.098Z" fill="white"/>
<path d="M23.3326 177.098C22.45 177.098 21.7345 176.383 21.7345 175.5C21.7345 174.617 22.45 173.902 23.3326 173.902C24.2152 173.902 24.9307 174.617 24.9307 175.5C24.9307 176.383 24.2152 177.098 23.3326 177.098Z" fill="white"/>
<path d="M23.3326 177.098C22.45 177.098 21.7345 176.383 21.7345 175.5C21.7345 174.617 22.45 173.902 23.3326 173.902C24.2152 173.902 24.9307 174.617 24.9307 175.5C24.9307 176.383 24.2152 177.098 23.3326 177.098Z" fill="white"/>
<path d="M23.3326 177.098C22.45 177.098 21.7345 176.383 21.7345 175.5C21.7345 174.617 22.45 173.902 23.3326 173.902C24.2152 173.902 24.9307 174.617 24.9307 175.5C24.9307 176.383 24.2152 177.098 23.3326 177.098Z" fill="white"/>
<path d="M12.4652 177.098C11.5826 177.098 10.8671 176.383 10.8671 175.5C10.8671 174.617 11.5826 173.902 12.4652 173.902C13.3478 173.902 14.0633 174.617 14.0633 175.5C14.0633 176.383 13.3478 177.098 12.4652 177.098Z" fill="white"/>
<path d="M1.5981 177.098C0.715491 177.098 -2.38419e-06 176.383 -2.38419e-06 175.5C-2.38419e-06 174.617 0.715491 173.902 1.5981 173.902C2.4807 173.902 3.1962 174.617 3.1962 175.5C3.1962 176.383 2.4807 177.098 1.5981 177.098Z" fill="white"/>
<path d="M1.5981 177.098C0.715491 177.098 -2.38419e-06 176.383 -2.38419e-06 175.5C-2.38419e-06 174.617 0.715491 173.902 1.5981 173.902C2.4807 173.902 3.1962 174.617 3.1962 175.5C3.1962 176.383 2.4807 177.098 1.5981 177.098Z" fill="white"/>
<path d="M1.5981 177.098C0.715491 177.098 -2.38419e-06 176.383 -2.38419e-06 175.5C-2.38419e-06 174.617 0.715491 173.902 1.5981 173.902C2.4807 173.902 3.1962 174.617 3.1962 175.5C3.1962 176.383 2.4807 177.098 1.5981 177.098Z" fill="white"/>
<path d="M1.5981 177.098C0.715491 177.098 -2.38419e-06 176.383 -2.38419e-06 175.5C-2.38419e-06 174.617 0.715491 173.902 1.5981 173.902C2.4807 173.902 3.1962 174.617 3.1962 175.5C3.1962 176.383 2.4807 177.098 1.5981 177.098Z" fill="white"/>
<path d="M1.5981 177.098C0.715491 177.098 -2.38419e-06 176.383 -2.38419e-06 175.5C-2.38419e-06 174.617 0.715491 173.902 1.5981 173.902C2.4807 173.902 3.1962 174.617 3.1962 175.5C3.1962 176.383 2.4807 177.098 1.5981 177.098Z" fill="white"/>
<path d="M1.5981 177.098C0.715491 177.098 -2.38419e-06 176.383 -2.38419e-06 175.5C-2.38419e-06 174.617 0.715491 173.902 1.5981 173.902C2.4807 173.902 3.1962 174.617 3.1962 175.5C3.1962 176.383 2.4807 177.098 1.5981 177.098Z" fill="white"/>
<path d="M1.5981 177.098C0.715491 177.098 -2.38419e-06 176.383 -2.38419e-06 175.5C-2.38419e-06 174.617 0.715491 173.902 1.5981 173.902C2.4807 173.902 3.1962 174.617 3.1962 175.5C3.1962 176.383 2.4807 177.098 1.5981 177.098Z" fill="white"/>
<path d="M1.5981 177.098C0.715491 177.098 -2.38419e-06 176.383 -2.38419e-06 175.5C-2.38419e-06 174.617 0.715491 173.902 1.5981 173.902C2.4807 173.902 3.1962 174.617 3.1962 175.5C3.1962 176.383 2.4807 177.098 1.5981 177.098Z" fill="white"/>
<path d="M1.5981 177.098C0.715491 177.098 -2.38419e-06 176.383 -2.38419e-06 175.5C-2.38419e-06 174.617 0.715491 173.902 1.5981 173.902C2.4807 173.902 3.1962 174.617 3.1962 175.5C3.1962 176.383 2.4807 177.098 1.5981 177.098Z" fill="white"/>
<path d="M1.5981 177.098C0.715491 177.098 -2.38419e-06 176.383 -2.38419e-06 175.5C-2.38419e-06 174.617 0.715491 173.902 1.5981 173.902C2.4807 173.902 3.1962 174.617 3.1962 175.5C3.1962 176.383 2.4807 177.098 1.5981 177.098Z" fill="white"/>
<path d="M1.5981 177.098C0.715491 177.098 -2.38419e-06 176.383 -2.38419e-06 175.5C-2.38419e-06 174.617 0.715491 173.902 1.5981 173.902C2.4807 173.902 3.1962 174.617 3.1962 175.5C3.1962 176.383 2.4807 177.098 1.5981 177.098Z" fill="white"/>
<path d="M1.5981 177.098C0.715491 177.098 -2.38419e-06 176.383 -2.38419e-06 175.5C-2.38419e-06 174.617 0.715491 173.902 1.5981 173.902C2.4807 173.902 3.1962 174.617 3.1962 175.5C3.1962 176.383 2.4807 177.098 1.5981 177.098Z" fill="white"/>
<path d="M1.5981 177.098C0.715491 177.098 -2.38419e-06 176.383 -2.38419e-06 175.5C-2.38419e-06 174.617 0.715491 173.902 1.5981 173.902C2.4807 173.902 3.1962 174.617 3.1962 175.5C3.1962 176.383 2.4807 177.098 1.5981 177.098Z" fill="white"/>
<path d="M1.5981 177.098C0.715491 177.098 -2.38419e-06 176.383 -2.38419e-06 175.5C-2.38419e-06 174.617 0.715491 173.902 1.5981 173.902C2.4807 173.902 3.1962 174.617 3.1962 175.5C3.1962 176.383 2.4807 177.098 1.5981 177.098Z" fill="white"/>
<path d="M1.5981 177.098C0.715491 177.098 -2.38419e-06 176.383 -2.38419e-06 175.5C-2.38419e-06 174.617 0.715491 173.902 1.5981 173.902C2.4807 173.902 3.1962 174.617 3.1962 175.5C3.1962 176.383 2.4807 177.098 1.5981 177.098Z" fill="white"/>
<path d="M99.4019 187.966C98.5193 187.966 97.8038 187.251 97.8038 186.368C97.8038 185.485 98.5193 184.77 99.4019 184.77C100.285 184.77 101 185.485 101 186.368C101 187.251 100.285 187.966 99.4019 187.966Z" fill="white"/>
<path d="M88.5348 187.966C87.6522 187.966 86.9367 187.251 86.9367 186.368C86.9367 185.485 87.6522 184.77 88.5348 184.77C89.4174 184.77 90.1329 185.485 90.1329 186.368C90.1329 187.251 89.4174 187.966 88.5348 187.966Z" fill="white"/>
<path d="M88.5348 187.966C87.6522 187.966 86.9367 187.251 86.9367 186.368C86.9367 185.485 87.6522 184.77 88.5348 184.77C89.4174 184.77 90.1329 185.485 90.1329 186.368C90.1329 187.251 89.4174 187.966 88.5348 187.966Z" fill="white"/>
<path d="M88.5348 187.966C87.6522 187.966 86.9367 187.251 86.9367 186.368C86.9367 185.485 87.6522 184.77 88.5348 184.77C89.4174 184.77 90.1329 185.485 90.1329 186.368C90.1329 187.251 89.4174 187.966 88.5348 187.966Z" fill="white"/>
<path d="M88.5348 187.966C87.6522 187.966 86.9367 187.251 86.9367 186.368C86.9367 185.485 87.6522 184.77 88.5348 184.77C89.4174 184.77 90.1329 185.485 90.1329 186.368C90.1329 187.251 89.4174 187.966 88.5348 187.966Z" fill="white"/>
<path d="M88.5348 187.966C87.6522 187.966 86.9367 187.251 86.9367 186.368C86.9367 185.485 87.6522 184.77 88.5348 184.77C89.4174 184.77 90.1329 185.485 90.1329 186.368C90.1329 187.251 89.4174 187.966 88.5348 187.966Z" fill="white"/>
<path d="M88.5348 187.966C87.6522 187.966 86.9367 187.251 86.9367 186.368C86.9367 185.485 87.6522 184.77 88.5348 184.77C89.4174 184.77 90.1329 185.485 90.1329 186.368C90.1329 187.251 89.4174 187.966 88.5348 187.966Z" fill="white"/>
<path d="M88.5348 187.966C87.6522 187.966 86.9367 187.251 86.9367 186.368C86.9367 185.485 87.6522 184.77 88.5348 184.77C89.4174 184.77 90.1329 185.485 90.1329 186.368C90.1329 187.251 89.4174 187.966 88.5348 187.966Z" fill="white"/>
<path d="M88.5348 187.966C87.6522 187.966 86.9367 187.251 86.9367 186.368C86.9367 185.485 87.6522 184.77 88.5348 184.77C89.4174 184.77 90.1329 185.485 90.1329 186.368C90.1329 187.251 89.4174 187.966 88.5348 187.966Z" fill="white"/>
<path d="M88.5348 187.966C87.6522 187.966 86.9367 187.251 86.9367 186.368C86.9367 185.485 87.6522 184.77 88.5348 184.77C89.4174 184.77 90.1329 185.485 90.1329 186.368C90.1329 187.251 89.4174 187.966 88.5348 187.966Z" fill="white"/>
<path d="M88.5348 187.966C87.6522 187.966 86.9367 187.251 86.9367 186.368C86.9367 185.485 87.6522 184.77 88.5348 184.77C89.4174 184.77 90.1329 185.485 90.1329 186.368C90.1329 187.251 89.4174 187.966 88.5348 187.966Z" fill="white"/>
<path d="M88.5348 187.966C87.6522 187.966 86.9367 187.251 86.9367 186.368C86.9367 185.485 87.6522 184.77 88.5348 184.77C89.4174 184.77 90.1329 185.485 90.1329 186.368C90.1329 187.251 89.4174 187.966 88.5348 187.966Z" fill="white"/>
<path d="M88.5348 187.966C87.6522 187.966 86.9367 187.251 86.9367 186.368C86.9367 185.485 87.6522 184.77 88.5348 184.77C89.4174 184.77 90.1329 185.485 90.1329 186.368C90.1329 187.251 89.4174 187.966 88.5348 187.966Z" fill="white"/>
<path d="M88.5348 187.966C87.6522 187.966 86.9367 187.251 86.9367 186.368C86.9367 185.485 87.6522 184.77 88.5348 184.77C89.4174 184.77 90.1329 185.485 90.1329 186.368C90.1329 187.251 89.4174 187.966 88.5348 187.966Z" fill="white"/>
<path d="M88.5348 187.966C87.6522 187.966 86.9367 187.251 86.9367 186.368C86.9367 185.485 87.6522 184.77 88.5348 184.77C89.4174 184.77 90.1329 185.485 90.1329 186.368C90.1329 187.251 89.4174 187.966 88.5348 187.966Z" fill="white"/>
<path d="M88.5348 187.966C87.6522 187.966 86.9367 187.251 86.9367 186.368C86.9367 185.485 87.6522 184.77 88.5348 184.77C89.4174 184.77 90.1329 185.485 90.1329 186.368C90.1329 187.251 89.4174 187.966 88.5348 187.966Z" fill="white"/>
<path d="M77.6677 187.966C76.7851 187.966 76.0696 187.251 76.0696 186.368C76.0696 185.485 76.7851 184.77 77.6677 184.77C78.5503 184.77 79.2658 185.485 79.2658 186.368C79.2658 187.251 78.5503 187.966 77.6677 187.966Z" fill="white"/>
<path d="M66.8003 187.966C65.9177 187.966 65.2022 187.251 65.2022 186.368C65.2022 185.485 65.9177 184.77 66.8003 184.77C67.6829 184.77 68.3984 185.485 68.3984 186.368C68.3984 187.251 67.6829 187.966 66.8003 187.966Z" fill="white"/>
<path d="M66.8003 187.966C65.9177 187.966 65.2022 187.251 65.2022 186.368C65.2022 185.485 65.9177 184.77 66.8003 184.77C67.6829 184.77 68.3984 185.485 68.3984 186.368C68.3984 187.251 67.6829 187.966 66.8003 187.966Z" fill="white"/>
<path d="M66.8003 187.966C65.9177 187.966 65.2022 187.251 65.2022 186.368C65.2022 185.485 65.9177 184.77 66.8003 184.77C67.6829 184.77 68.3984 185.485 68.3984 186.368C68.3984 187.251 67.6829 187.966 66.8003 187.966Z" fill="white"/>
<path d="M66.8003 187.966C65.9177 187.966 65.2022 187.251 65.2022 186.368C65.2022 185.485 65.9177 184.77 66.8003 184.77C67.6829 184.77 68.3984 185.485 68.3984 186.368C68.3984 187.251 67.6829 187.966 66.8003 187.966Z" fill="white"/>
<path d="M66.8003 187.966C65.9177 187.966 65.2022 187.251 65.2022 186.368C65.2022 185.485 65.9177 184.77 66.8003 184.77C67.6829 184.77 68.3984 185.485 68.3984 186.368C68.3984 187.251 67.6829 187.966 66.8003 187.966Z" fill="white"/>
<path d="M66.8003 187.966C65.9177 187.966 65.2022 187.251 65.2022 186.368C65.2022 185.485 65.9177 184.77 66.8003 184.77C67.6829 184.77 68.3984 185.485 68.3984 186.368C68.3984 187.251 67.6829 187.966 66.8003 187.966Z" fill="white"/>
<path d="M66.8003 187.966C65.9177 187.966 65.2022 187.251 65.2022 186.368C65.2022 185.485 65.9177 184.77 66.8003 184.77C67.6829 184.77 68.3984 185.485 68.3984 186.368C68.3984 187.251 67.6829 187.966 66.8003 187.966Z" fill="white"/>
<path d="M66.8003 187.966C65.9177 187.966 65.2022 187.251 65.2022 186.368C65.2022 185.485 65.9177 184.77 66.8003 184.77C67.6829 184.77 68.3984 185.485 68.3984 186.368C68.3984 187.251 67.6829 187.966 66.8003 187.966Z" fill="white"/>
<path d="M66.8003 187.966C65.9177 187.966 65.2022 187.251 65.2022 186.368C65.2022 185.485 65.9177 184.77 66.8003 184.77C67.6829 184.77 68.3984 185.485 68.3984 186.368C68.3984 187.251 67.6829 187.966 66.8003 187.966Z" fill="white"/>
<path d="M66.8003 187.966C65.9177 187.966 65.2022 187.251 65.2022 186.368C65.2022 185.485 65.9177 184.77 66.8003 184.77C67.6829 184.77 68.3984 185.485 68.3984 186.368C68.3984 187.251 67.6829 187.966 66.8003 187.966Z" fill="white"/>
<path d="M66.8003 187.966C65.9177 187.966 65.2022 187.251 65.2022 186.368C65.2022 185.485 65.9177 184.77 66.8003 184.77C67.6829 184.77 68.3984 185.485 68.3984 186.368C68.3984 187.251 67.6829 187.966 66.8003 187.966Z" fill="white"/>
<path d="M66.8003 187.966C65.9177 187.966 65.2022 187.251 65.2022 186.368C65.2022 185.485 65.9177 184.77 66.8003 184.77C67.6829 184.77 68.3984 185.485 68.3984 186.368C68.3984 187.251 67.6829 187.966 66.8003 187.966Z" fill="white"/>
<path d="M66.8003 187.966C65.9177 187.966 65.2022 187.251 65.2022 186.368C65.2022 185.485 65.9177 184.77 66.8003 184.77C67.6829 184.77 68.3984 185.485 68.3984 186.368C68.3984 187.251 67.6829 187.966 66.8003 187.966Z" fill="white"/>
<path d="M66.8003 187.966C65.9177 187.966 65.2022 187.251 65.2022 186.368C65.2022 185.485 65.9177 184.77 66.8003 184.77C67.6829 184.77 68.3984 185.485 68.3984 186.368C68.3984 187.251 67.6829 187.966 66.8003 187.966Z" fill="white"/>
<path d="M66.8003 187.966C65.9177 187.966 65.2022 187.251 65.2022 186.368C65.2022 185.485 65.9177 184.77 66.8003 184.77C67.6829 184.77 68.3984 185.485 68.3984 186.368C68.3984 187.251 67.6829 187.966 66.8003 187.966Z" fill="white"/>
<path d="M55.9331 187.966C55.0505 187.966 54.335 187.251 54.335 186.368C54.335 185.485 55.0505 184.77 55.9331 184.77C56.8157 184.77 57.5312 185.485 57.5312 186.368C57.5312 187.251 56.8157 187.966 55.9331 187.966Z" fill="white"/>
<path d="M45.0669 187.966C44.1843 187.966 43.4688 187.251 43.4688 186.368C43.4688 185.485 44.1843 184.77 45.0669 184.77C45.9495 184.77 46.665 185.485 46.665 186.368C46.665 187.251 45.9495 187.966 45.0669 187.966Z" fill="white"/>
<path d="M45.0669 187.966C44.1843 187.966 43.4688 187.251 43.4688 186.368C43.4688 185.485 44.1843 184.77 45.0669 184.77C45.9495 184.77 46.665 185.485 46.665 186.368C46.665 187.251 45.9495 187.966 45.0669 187.966Z" fill="white"/>
<path d="M45.0669 187.966C44.1843 187.966 43.4688 187.251 43.4688 186.368C43.4688 185.485 44.1843 184.77 45.0669 184.77C45.9495 184.77 46.665 185.485 46.665 186.368C46.665 187.251 45.9495 187.966 45.0669 187.966Z" fill="white"/>
<path d="M45.0669 187.966C44.1843 187.966 43.4688 187.251 43.4688 186.368C43.4688 185.485 44.1843 184.77 45.0669 184.77C45.9495 184.77 46.665 185.485 46.665 186.368C46.665 187.251 45.9495 187.966 45.0669 187.966Z" fill="white"/>
<path d="M45.0669 187.966C44.1843 187.966 43.4688 187.251 43.4688 186.368C43.4688 185.485 44.1843 184.77 45.0669 184.77C45.9495 184.77 46.665 185.485 46.665 186.368C46.665 187.251 45.9495 187.966 45.0669 187.966Z" fill="white"/>
<path d="M45.0669 187.966C44.1843 187.966 43.4688 187.251 43.4688 186.368C43.4688 185.485 44.1843 184.77 45.0669 184.77C45.9495 184.77 46.665 185.485 46.665 186.368C46.665 187.251 45.9495 187.966 45.0669 187.966Z" fill="white"/>
<path d="M45.0669 187.966C44.1843 187.966 43.4688 187.251 43.4688 186.368C43.4688 185.485 44.1843 184.77 45.0669 184.77C45.9495 184.77 46.665 185.485 46.665 186.368C46.665 187.251 45.9495 187.966 45.0669 187.966Z" fill="white"/>
<path d="M45.0669 187.966C44.1843 187.966 43.4688 187.251 43.4688 186.368C43.4688 185.485 44.1843 184.77 45.0669 184.77C45.9495 184.77 46.665 185.485 46.665 186.368C46.665 187.251 45.9495 187.966 45.0669 187.966Z" fill="white"/>
<path d="M45.0669 187.966C44.1843 187.966 43.4688 187.251 43.4688 186.368C43.4688 185.485 44.1843 184.77 45.0669 184.77C45.9495 184.77 46.665 185.485 46.665 186.368C46.665 187.251 45.9495 187.966 45.0669 187.966Z" fill="white"/>
<path d="M45.0669 187.966C44.1843 187.966 43.4688 187.251 43.4688 186.368C43.4688 185.485 44.1843 184.77 45.0669 184.77C45.9495 184.77 46.665 185.485 46.665 186.368C46.665 187.251 45.9495 187.966 45.0669 187.966Z" fill="white"/>
<path d="M45.0669 187.966C44.1843 187.966 43.4688 187.251 43.4688 186.368C43.4688 185.485 44.1843 184.77 45.0669 184.77C45.9495 184.77 46.665 185.485 46.665 186.368C46.665 187.251 45.9495 187.966 45.0669 187.966Z" fill="white"/>
<path d="M45.0669 187.966C44.1843 187.966 43.4688 187.251 43.4688 186.368C43.4688 185.485 44.1843 184.77 45.0669 184.77C45.9495 184.77 46.665 185.485 46.665 186.368C46.665 187.251 45.9495 187.966 45.0669 187.966Z" fill="white"/>
<path d="M45.0669 187.966C44.1843 187.966 43.4688 187.251 43.4688 186.368C43.4688 185.485 44.1843 184.77 45.0669 184.77C45.9495 184.77 46.665 185.485 46.665 186.368C46.665 187.251 45.9495 187.966 45.0669 187.966Z" fill="white"/>
<path d="M45.0669 187.966C44.1843 187.966 43.4688 187.251 43.4688 186.368C43.4688 185.485 44.1843 184.77 45.0669 184.77C45.9495 184.77 46.665 185.485 46.665 186.368C46.665 187.251 45.9495 187.966 45.0669 187.966Z" fill="white"/>
<path d="M45.0669 187.966C44.1843 187.966 43.4688 187.251 43.4688 186.368C43.4688 185.485 44.1843 184.77 45.0669 184.77C45.9495 184.77 46.665 185.485 46.665 186.368C46.665 187.251 45.9495 187.966 45.0669 187.966Z" fill="white"/>
<path d="M34.1998 187.966C33.3172 187.966 32.6017 187.251 32.6017 186.368C32.6017 185.485 33.3172 184.77 34.1998 184.77C35.0824 184.77 35.7979 185.485 35.7979 186.368C35.7979 187.251 35.0824 187.966 34.1998 187.966Z" fill="white"/>
<path d="M23.3326 187.966C22.45 187.966 21.7345 187.251 21.7345 186.368C21.7345 185.485 22.45 184.77 23.3326 184.77C24.2152 184.77 24.9307 185.485 24.9307 186.368C24.9307 187.251 24.2152 187.966 23.3326 187.966Z" fill="white"/>
<path d="M23.3326 187.966C22.45 187.966 21.7345 187.251 21.7345 186.368C21.7345 185.485 22.45 184.77 23.3326 184.77C24.2152 184.77 24.9307 185.485 24.9307 186.368C24.9307 187.251 24.2152 187.966 23.3326 187.966Z" fill="white"/>
<path d="M23.3326 187.966C22.45 187.966 21.7345 187.251 21.7345 186.368C21.7345 185.485 22.45 184.77 23.3326 184.77C24.2152 184.77 24.9307 185.485 24.9307 186.368C24.9307 187.251 24.2152 187.966 23.3326 187.966Z" fill="white"/>
<path d="M23.3326 187.966C22.45 187.966 21.7345 187.251 21.7345 186.368C21.7345 185.485 22.45 184.77 23.3326 184.77C24.2152 184.77 24.9307 185.485 24.9307 186.368C24.9307 187.251 24.2152 187.966 23.3326 187.966Z" fill="white"/>
<path d="M23.3326 187.966C22.45 187.966 21.7345 187.251 21.7345 186.368C21.7345 185.485 22.45 184.77 23.3326 184.77C24.2152 184.77 24.9307 185.485 24.9307 186.368C24.9307 187.251 24.2152 187.966 23.3326 187.966Z" fill="white"/>
<path d="M23.3326 187.966C22.45 187.966 21.7345 187.251 21.7345 186.368C21.7345 185.485 22.45 184.77 23.3326 184.77C24.2152 184.77 24.9307 185.485 24.9307 186.368C24.9307 187.251 24.2152 187.966 23.3326 187.966Z" fill="white"/>
<path d="M23.3326 187.966C22.45 187.966 21.7345 187.251 21.7345 186.368C21.7345 185.485 22.45 184.77 23.3326 184.77C24.2152 184.77 24.9307 185.485 24.9307 186.368C24.9307 187.251 24.2152 187.966 23.3326 187.966Z" fill="white"/>
<path d="M23.3326 187.966C22.45 187.966 21.7345 187.251 21.7345 186.368C21.7345 185.485 22.45 184.77 23.3326 184.77C24.2152 184.77 24.9307 185.485 24.9307 186.368C24.9307 187.251 24.2152 187.966 23.3326 187.966Z" fill="white"/>
<path d="M23.3326 187.966C22.45 187.966 21.7345 187.251 21.7345 186.368C21.7345 185.485 22.45 184.77 23.3326 184.77C24.2152 184.77 24.9307 185.485 24.9307 186.368C24.9307 187.251 24.2152 187.966 23.3326 187.966Z" fill="white"/>
<path d="M23.3326 187.966C22.45 187.966 21.7345 187.251 21.7345 186.368C21.7345 185.485 22.45 184.77 23.3326 184.77C24.2152 184.77 24.9307 185.485 24.9307 186.368C24.9307 187.251 24.2152 187.966 23.3326 187.966Z" fill="white"/>
<path d="M23.3326 187.966C22.45 187.966 21.7345 187.251 21.7345 186.368C21.7345 185.485 22.45 184.77 23.3326 184.77C24.2152 184.77 24.9307 185.485 24.9307 186.368C24.9307 187.251 24.2152 187.966 23.3326 187.966Z" fill="white"/>
<path d="M23.3326 187.966C22.45 187.966 21.7345 187.251 21.7345 186.368C21.7345 185.485 22.45 184.77 23.3326 184.77C24.2152 184.77 24.9307 185.485 24.9307 186.368C24.9307 187.251 24.2152 187.966 23.3326 187.966Z" fill="white"/>
<path d="M23.3326 187.966C22.45 187.966 21.7345 187.251 21.7345 186.368C21.7345 185.485 22.45 184.77 23.3326 184.77C24.2152 184.77 24.9307 185.485 24.9307 186.368C24.9307 187.251 24.2152 187.966 23.3326 187.966Z" fill="white"/>
<path d="M23.3326 187.966C22.45 187.966 21.7345 187.251 21.7345 186.368C21.7345 185.485 22.45 184.77 23.3326 184.77C24.2152 184.77 24.9307 185.485 24.9307 186.368C24.9307 187.251 24.2152 187.966 23.3326 187.966Z" fill="white"/>
<path d="M23.3326 187.966C22.45 187.966 21.7345 187.251 21.7345 186.368C21.7345 185.485 22.45 184.77 23.3326 184.77C24.2152 184.77 24.9307 185.485 24.9307 186.368C24.9307 187.251 24.2152 187.966 23.3326 187.966Z" fill="white"/>
<path d="M12.4652 187.966C11.5826 187.966 10.8671 187.251 10.8671 186.368C10.8671 185.485 11.5826 184.77 12.4652 184.77C13.3478 184.77 14.0633 185.485 14.0633 186.368C14.0633 187.251 13.3478 187.966 12.4652 187.966Z" fill="white"/>
<path d="M1.5981 187.966C0.715491 187.966 -2.38419e-06 187.251 -2.38419e-06 186.368C-2.38419e-06 185.485 0.715491 184.77 1.5981 184.77C2.4807 184.77 3.1962 185.485 3.1962 186.368C3.1962 187.251 2.4807 187.966 1.5981 187.966Z" fill="white"/>
<path d="M1.5981 187.966C0.715491 187.966 -2.38419e-06 187.251 -2.38419e-06 186.368C-2.38419e-06 185.485 0.715491 184.77 1.5981 184.77C2.4807 184.77 3.1962 185.485 3.1962 186.368C3.1962 187.251 2.4807 187.966 1.5981 187.966Z" fill="white"/>
<path d="M1.5981 187.966C0.715491 187.966 -2.38419e-06 187.251 -2.38419e-06 186.368C-2.38419e-06 185.485 0.715491 184.77 1.5981 184.77C2.4807 184.77 3.1962 185.485 3.1962 186.368C3.1962 187.251 2.4807 187.966 1.5981 187.966Z" fill="white"/>
<path d="M1.5981 187.966C0.715491 187.966 -2.38419e-06 187.251 -2.38419e-06 186.368C-2.38419e-06 185.485 0.715491 184.77 1.5981 184.77C2.4807 184.77 3.1962 185.485 3.1962 186.368C3.1962 187.251 2.4807 187.966 1.5981 187.966Z" fill="white"/>
<path d="M1.5981 187.966C0.715491 187.966 -2.38419e-06 187.251 -2.38419e-06 186.368C-2.38419e-06 185.485 0.715491 184.77 1.5981 184.77C2.4807 184.77 3.1962 185.485 3.1962 186.368C3.1962 187.251 2.4807 187.966 1.5981 187.966Z" fill="white"/>
<path d="M1.5981 187.966C0.715491 187.966 -2.38419e-06 187.251 -2.38419e-06 186.368C-2.38419e-06 185.485 0.715491 184.77 1.5981 184.77C2.4807 184.77 3.1962 185.485 3.1962 186.368C3.1962 187.251 2.4807 187.966 1.5981 187.966Z" fill="white"/>
<path d="M1.5981 187.966C0.715491 187.966 -2.38419e-06 187.251 -2.38419e-06 186.368C-2.38419e-06 185.485 0.715491 184.77 1.5981 184.77C2.4807 184.77 3.1962 185.485 3.1962 186.368C3.1962 187.251 2.4807 187.966 1.5981 187.966Z" fill="white"/>
<path d="M1.5981 187.966C0.715491 187.966 -2.38419e-06 187.251 -2.38419e-06 186.368C-2.38419e-06 185.485 0.715491 184.77 1.5981 184.77C2.4807 184.77 3.1962 185.485 3.1962 186.368C3.1962 187.251 2.4807 187.966 1.5981 187.966Z" fill="white"/>
<path d="M1.5981 187.966C0.715491 187.966 -2.38419e-06 187.251 -2.38419e-06 186.368C-2.38419e-06 185.485 0.715491 184.77 1.5981 184.77C2.4807 184.77 3.1962 185.485 3.1962 186.368C3.1962 187.251 2.4807 187.966 1.5981 187.966Z" fill="white"/>
<path d="M1.5981 187.966C0.715491 187.966 -2.38419e-06 187.251 -2.38419e-06 186.368C-2.38419e-06 185.485 0.715491 184.77 1.5981 184.77C2.4807 184.77 3.1962 185.485 3.1962 186.368C3.1962 187.251 2.4807 187.966 1.5981 187.966Z" fill="white"/>
<path d="M1.5981 187.966C0.715491 187.966 -2.38419e-06 187.251 -2.38419e-06 186.368C-2.38419e-06 185.485 0.715491 184.77 1.5981 184.77C2.4807 184.77 3.1962 185.485 3.1962 186.368C3.1962 187.251 2.4807 187.966 1.5981 187.966Z" fill="white"/>
<path d="M1.5981 187.966C0.715491 187.966 -2.38419e-06 187.251 -2.38419e-06 186.368C-2.38419e-06 185.485 0.715491 184.77 1.5981 184.77C2.4807 184.77 3.1962 185.485 3.1962 186.368C3.1962 187.251 2.4807 187.966 1.5981 187.966Z" fill="white"/>
<path d="M1.5981 187.966C0.715491 187.966 -2.38419e-06 187.251 -2.38419e-06 186.368C-2.38419e-06 185.485 0.715491 184.77 1.5981 184.77C2.4807 184.77 3.1962 185.485 3.1962 186.368C3.1962 187.251 2.4807 187.966 1.5981 187.966Z" fill="white"/>
<path d="M1.5981 187.966C0.715491 187.966 -2.38419e-06 187.251 -2.38419e-06 186.368C-2.38419e-06 185.485 0.715491 184.77 1.5981 184.77C2.4807 184.77 3.1962 185.485 3.1962 186.368C3.1962 187.251 2.4807 187.966 1.5981 187.966Z" fill="white"/>
<path d="M1.5981 187.966C0.715491 187.966 -2.38419e-06 187.251 -2.38419e-06 186.368C-2.38419e-06 185.485 0.715491 184.77 1.5981 184.77C2.4807 184.77 3.1962 185.485 3.1962 186.368C3.1962 187.251 2.4807 187.966 1.5981 187.966Z" fill="white"/>
</g>
<defs>
<clipPath id="clip0_1_18">
<rect width="101" height="188" fill="white"/>
</clipPath>
</defs>
</svg>
